<svg xmlns="http://www.w3.org/2000/svg" xmlns:xlink="http://www.w3.org/1999/xlink" id="body_1" preserveAspectRatio="xMinYMin meet" viewBox="0 0 793 1121"><defs><clipPath id="1"><path id="" clip-rule="evenodd" transform="matrix(1 0 0 1 0 0)" d="M0 841L0 -0.9000244L0 -0.9000244L595.3 -0.9000244L595.3 -0.9000244L595.3 841L595.3 841L0 841z" /></clipPath><clipPath id="2"><path id="" clip-rule="evenodd" transform="matrix(1 0 0 1 0 0)" d="M0 -0.9000244L595.3 -0.9000244L595.3 -0.9000244L595.3 841L595.3 841L0 841z" /></clipPath><clipPath id="3"><path id="" clip-rule="evenodd" transform="matrix(1 0 0 1 0 0)" d="M0 -0.9000244L595.3 -0.9000244L595.3 -0.9000244L595.3 841L595.3 841L0 841z" /></clipPath><clipPath id="4"><path id="" clip-rule="evenodd" transform="matrix(1 0 0 1 0 0)" d="M527.85 787.75L538.35 787.75L538.35 787.75L538.35 799.8L538.35 799.8L527.85 799.8z" /></clipPath><clipPath id="5"><path id="" clip-rule="evenodd" transform="matrix(1 0 0 1 0 0)" d="M0 -0.9000244L595.3 -0.9000244L595.3 -0.9000244L595.3 841L595.3 841L0 841z" /></clipPath><clipPath id="6"><path id="" clip-rule="evenodd" transform="matrix(1 0 0 1 0 0)" d="M0 -0.9000244L595.3 -0.9000244L595.3 -0.9000244L595.3 841L595.3 841L0 841z" /></clipPath><clipPath id="7"><path id="" clip-rule="evenodd" transform="matrix(1 0 0 1 0 0)" d="M84.3 163.85L129.7 163.85L129.7 163.85L129.7 235.7L129.7 235.7L84.3 235.7z" /></clipPath><clipPath id="8"><path id="" clip-rule="evenodd" transform="matrix(1 0 0 1 0 0)" d="M0 -0.9000244L595.3 -0.9000244L595.3 -0.9000244L595.3 841L595.3 841L0 841z" /></clipPath><clipPath id="9"><path id="" clip-rule="evenodd" transform="matrix(1 0 0 1 0 0)" d="M129.65 163.85L175.05 163.85L175.05 163.85L175.05 235.7L175.05 235.7L129.65 235.7z" /></clipPath><clipPath id="10"><path id="" clip-rule="evenodd" transform="matrix(1 0 0 1 0 0)" d="M0 -0.9000244L595.3 -0.9000244L595.3 -0.9000244L595.3 841L595.3 841L0 841z" /></clipPath><clipPath id="11"><path id="" clip-rule="evenodd" transform="matrix(1 0 0 1 0 0)" d="M175 163.85L220.4 163.85L220.4 163.85L220.4 235.7L220.4 235.7L175 235.7z" /></clipPath><clipPath id="12"><path id="" clip-rule="evenodd" transform="matrix(1 0 0 1 0 0)" d="M0 -0.9000244L595.3 -0.9000244L595.3 -0.9000244L595.3 841L595.3 841L0 841z" /></clipPath><clipPath id="13"><path id="" clip-rule="evenodd" transform="matrix(1 0 0 1 0 0)" d="M220.35 163.85L265.9 163.85L265.9 163.85L265.9 235.7L265.9 235.7L220.35 235.7z" /></clipPath><clipPath id="14"><path id="" clip-rule="evenodd" transform="matrix(1 0 0 1 0 0)" d="M0 -0.9000244L595.3 -0.9000244L595.3 -0.9000244L595.3 841L595.3 841L0 841z" /></clipPath><clipPath id="15"><path id="" clip-rule="evenodd" transform="matrix(1 0 0 1 0 0)" d="M265.85 163.85L311.4 163.85L311.4 163.85L311.4 235.7L311.4 235.7L265.85 235.7z" /></clipPath><clipPath id="16"><path id="" clip-rule="evenodd" transform="matrix(1 0 0 1 0 0)" d="M0 -0.9000244L595.3 -0.9000244L595.3 -0.9000244L595.3 841L595.3 841L0 841z" /></clipPath><clipPath id="17"><path id="" clip-rule="evenodd" transform="matrix(1 0 0 1 0 0)" d="M311.35 163.85L356.9 163.85L356.9 163.85L356.9 235.7L356.9 235.7L311.35 235.7z" /></clipPath><clipPath id="18"><path id="" clip-rule="evenodd" transform="matrix(1 0 0 1 0 0)" d="M0 -0.9000244L595.3 -0.9000244L595.3 -0.9000244L595.3 841L595.3 841L0 841z" /></clipPath><clipPath id="19"><path id="" clip-rule="evenodd" transform="matrix(1 0 0 1 0 0)" d="M356.85 163.85L402.3 163.85L402.3 163.85L402.3 235.7L402.3 235.7L356.85 235.7z" /></clipPath><clipPath id="20"><path id="" clip-rule="evenodd" transform="matrix(1 0 0 1 0 0)" d="M0 -0.9000244L595.3 -0.9000244L595.3 -0.9000244L595.3 841L595.3 841L0 841z" /></clipPath><clipPath id="21"><path id="" clip-rule="evenodd" transform="matrix(1 0 0 1 0 0)" d="M402.25 163.85L447.7 163.85L447.7 163.85L447.7 235.7L447.7 235.7L402.25 235.7z" /></clipPath><clipPath id="22"><path id="" clip-rule="evenodd" transform="matrix(1 0 0 1 0 0)" d="M0 -0.9000244L595.3 -0.9000244L595.3 -0.9000244L595.3 841L595.3 841L0 841z" /></clipPath><clipPath id="23"><path id="" clip-rule="evenodd" transform="matrix(1 0 0 1 0 0)" d="M447.65 163.85L493.1 163.85L493.1 163.85L493.1 235.7L493.1 235.7L447.65 235.7z" /></clipPath><clipPath id="24"><path id="" clip-rule="evenodd" transform="matrix(1 0 0 1 0 0)" d="M0 -0.9000244L595.3 -0.9000244L595.3 -0.9000244L595.3 841L595.3 841L0 841z" /></clipPath><clipPath id="25"><path id="" clip-rule="evenodd" transform="matrix(1 0 0 1 0 0)" d="M493.05 163.85L539.4 163.85L539.4 163.85L539.4 235.7L539.4 235.7L493.05 235.7z" /></clipPath><clipPath id="26"><path id="" clip-rule="evenodd" transform="matrix(1 0 0 1 0 0)" d="M0 -0.9000244L595.3 -0.9000244L595.3 -0.9000244L595.3 841L595.3 841L0 841z" /></clipPath><clipPath id="27"><path id="" clip-rule="evenodd" transform="matrix(1 0 0 1 0 0)" d="M84.3 235.7L129.7 235.7L129.7 235.7L129.7 259.35L129.7 259.35L84.3 259.35z" /></clipPath><clipPath id="28"><path id="" clip-rule="evenodd" transform="matrix(1 0 0 1 0 0)" d="M0 -0.9000244L595.3 -0.9000244L595.3 -0.9000244L595.3 841L595.3 841L0 841z" /></clipPath><clipPath id="29"><path id="" clip-rule="evenodd" transform="matrix(1 0 0 1 0 0)" d="M129.65 235.7L175.05 235.7L175.05 235.7L175.05 259.35L175.05 259.35L129.65 259.35z" /></clipPath><clipPath id="30"><path id="" clip-rule="evenodd" transform="matrix(1 0 0 1 0 0)" d="M0 -0.9000244L595.3 -0.9000244L595.3 -0.9000244L595.3 841L595.3 841L0 841z" /></clipPath><clipPath id="31"><path id="" clip-rule="evenodd" transform="matrix(1 0 0 1 0 0)" d="M175 235.7L220.4 235.7L220.4 235.7L220.4 259.35L220.4 259.35L175 259.35z" /></clipPath><clipPath id="32"><path id="" clip-rule="evenodd" transform="matrix(1 0 0 1 0 0)" d="M0 -0.9000244L595.3 -0.9000244L595.3 -0.9000244L595.3 841L595.3 841L0 841z" /></clipPath><clipPath id="33"><path id="" clip-rule="evenodd" transform="matrix(1 0 0 1 0 0)" d="M220.35 235.7L265.9 235.7L265.9 235.7L265.9 259.35L265.9 259.35L220.35 259.35z" /></clipPath><clipPath id="34"><path id="" clip-rule="evenodd" transform="matrix(1 0 0 1 0 0)" d="M0 -0.9000244L595.3 -0.9000244L595.3 -0.9000244L595.3 841L595.3 841L0 841z" /></clipPath><clipPath id="35"><path id="" clip-rule="evenodd" transform="matrix(1 0 0 1 0 0)" d="M265.85 235.7L311.4 235.7L311.4 235.7L311.4 259.35L311.4 259.35L265.85 259.35z" /></clipPath><clipPath id="36"><path id="" clip-rule="evenodd" transform="matrix(1 0 0 1 0 0)" d="M0 -0.9000244L595.3 -0.9000244L595.3 -0.9000244L595.3 841L595.3 841L0 841z" /></clipPath><clipPath id="37"><path id="" clip-rule="evenodd" transform="matrix(1 0 0 1 0 0)" d="M311.35 235.7L356.9 235.7L356.9 235.7L356.9 259.35L356.9 259.35L311.35 259.35z" /></clipPath><clipPath id="38"><path id="" clip-rule="evenodd" transform="matrix(1 0 0 1 0 0)" d="M0 -0.9000244L595.3 -0.9000244L595.3 -0.9000244L595.3 841L595.3 841L0 841z" /></clipPath><clipPath id="39"><path id="" clip-rule="evenodd" transform="matrix(1 0 0 1 0 0)" d="M356.85 235.7L402.3 235.7L402.3 235.7L402.3 259.35L402.3 259.35L356.85 259.35z" /></clipPath><clipPath id="40"><path id="" clip-rule="evenodd" transform="matrix(1 0 0 1 0 0)" d="M0 -0.9000244L595.3 -0.9000244L595.3 -0.9000244L595.3 841L595.3 841L0 841z" /></clipPath><clipPath id="41"><path id="" clip-rule="evenodd" transform="matrix(1 0 0 1 0 0)" d="M402.25 235.7L447.7 235.7L447.7 235.7L447.7 259.35L447.7 259.35L402.25 259.35z" /></clipPath><clipPath id="42"><path id="" clip-rule="evenodd" transform="matrix(1 0 0 1 0 0)" d="M0 -0.9000244L595.3 -0.9000244L595.3 -0.9000244L595.3 841L595.3 841L0 841z" /></clipPath><clipPath id="43"><path id="" clip-rule="evenodd" transform="matrix(1 0 0 1 0 0)" d="M447.65 235.7L493.1 235.7L493.1 235.7L493.1 259.35L493.1 259.35L447.65 259.35z" /></clipPath><clipPath id="44"><path id="" clip-rule="evenodd" transform="matrix(1 0 0 1 0 0)" d="M0 -0.9000244L595.3 -0.9000244L595.3 -0.9000244L595.3 841L595.3 841L0 841z" /></clipPath><clipPath id="45"><path id="" clip-rule="evenodd" transform="matrix(1 0 0 1 0 0)" d="M493.05 235.7L539.4 235.7L539.4 235.7L539.4 259.35L539.4 259.35L493.05 259.35z" /></clipPath><clipPath id="46"><path id="" clip-rule="evenodd" transform="matrix(1 0 0 1 0 0)" d="M0 -0.9000244L595.3 -0.9000244L595.3 -0.9000244L595.3 841L595.3 841L0 841z" /></clipPath><clipPath id="47"><path id="" clip-rule="evenodd" transform="matrix(1 0 0 1 0 0)" d="M84.3 259.35L129.7 259.35L129.7 259.35L129.7 282L129.7 282L84.3 282z" /></clipPath><clipPath id="48"><path id="" clip-rule="evenodd" transform="matrix(1 0 0 1 0 0)" d="M0 -0.9000244L595.3 -0.9000244L595.3 -0.9000244L595.3 841L595.3 841L0 841z" /></clipPath><clipPath id="49"><path id="" clip-rule="evenodd" transform="matrix(1 0 0 1 0 0)" d="M129.65 259.35L175.05 259.35L175.05 259.35L175.05 282L175.05 282L129.65 282z" /></clipPath><clipPath id="50"><path id="" clip-rule="evenodd" transform="matrix(1 0 0 1 0 0)" d="M0 -0.9000244L595.3 -0.9000244L595.3 -0.9000244L595.3 841L595.3 841L0 841z" /></clipPath><clipPath id="51"><path id="" clip-rule="evenodd" transform="matrix(1 0 0 1 0 0)" d="M175 259.35L220.4 259.35L220.4 259.35L220.4 282L220.4 282L175 282z" /></clipPath><clipPath id="52"><path id="" clip-rule="evenodd" transform="matrix(1 0 0 1 0 0)" d="M0 -0.9000244L595.3 -0.9000244L595.3 -0.9000244L595.3 841L595.3 841L0 841z" /></clipPath><clipPath id="53"><path id="" clip-rule="evenodd" transform="matrix(1 0 0 1 0 0)" d="M220.35 259.35L265.9 259.35L265.9 259.35L265.9 282L265.9 282L220.35 282z" /></clipPath><clipPath id="54"><path id="" clip-rule="evenodd" transform="matrix(1 0 0 1 0 0)" d="M0 -0.9000244L595.3 -0.9000244L595.3 -0.9000244L595.3 841L595.3 841L0 841z" /></clipPath><clipPath id="55"><path id="" clip-rule="evenodd" transform="matrix(1 0 0 1 0 0)" d="M265.85 259.35L311.4 259.35L311.4 259.35L311.4 282L311.4 282L265.85 282z" /></clipPath><clipPath id="56"><path id="" clip-rule="evenodd" transform="matrix(1 0 0 1 0 0)" d="M0 -0.9000244L595.3 -0.9000244L595.3 -0.9000244L595.3 841L595.3 841L0 841z" /></clipPath><clipPath id="57"><path id="" clip-rule="evenodd" transform="matrix(1 0 0 1 0 0)" d="M311.35 259.35L356.9 259.35L356.9 259.35L356.9 282L356.9 282L311.35 282z" /></clipPath><clipPath id="58"><path id="" clip-rule="evenodd" transform="matrix(1 0 0 1 0 0)" d="M0 -0.9000244L595.3 -0.9000244L595.3 -0.9000244L595.3 841L595.3 841L0 841z" /></clipPath><clipPath id="59"><path id="" clip-rule="evenodd" transform="matrix(1 0 0 1 0 0)" d="M356.85 259.35L402.3 259.35L402.3 259.35L402.3 282L402.3 282L356.85 282z" /></clipPath><clipPath id="60"><path id="" clip-rule="evenodd" transform="matrix(1 0 0 1 0 0)" d="M0 -0.9000244L595.3 -0.9000244L595.3 -0.9000244L595.3 841L595.3 841L0 841z" /></clipPath><clipPath id="61"><path id="" clip-rule="evenodd" transform="matrix(1 0 0 1 0 0)" d="M402.25 259.35L447.7 259.35L447.7 259.35L447.7 282L447.7 282L402.25 282z" /></clipPath><clipPath id="62"><path id="" clip-rule="evenodd" transform="matrix(1 0 0 1 0 0)" d="M0 -0.9000244L595.3 -0.9000244L595.3 -0.9000244L595.3 841L595.3 841L0 841z" /></clipPath><clipPath id="63"><path id="" clip-rule="evenodd" transform="matrix(1 0 0 1 0 0)" d="M447.65 259.35L493.1 259.35L493.1 259.35L493.1 282L493.1 282L447.65 282z" /></clipPath><clipPath id="64"><path id="" clip-rule="evenodd" transform="matrix(1 0 0 1 0 0)" d="M0 -0.9000244L595.3 -0.9000244L595.3 -0.9000244L595.3 841L595.3 841L0 841z" /></clipPath><clipPath id="65"><path id="" clip-rule="evenodd" transform="matrix(1 0 0 1 0 0)" d="M493.05 259.35L539.4 259.35L539.4 259.35L539.4 282L539.4 282L493.05 282z" /></clipPath><clipPath id="66"><path id="" clip-rule="evenodd" transform="matrix(1 0 0 1 0 0)" d="M0 -0.9000244L595.3 -0.9000244L595.3 -0.9000244L595.3 841L595.3 841L0 841z" /></clipPath><clipPath id="67"><path id="" clip-rule="evenodd" transform="matrix(1 0 0 1 0 0)" d="M84.3 282L129.7 282L129.7 282L129.7 304.65L129.7 304.65L84.3 304.65z" /></clipPath><clipPath id="68"><path id="" clip-rule="evenodd" transform="matrix(1 0 0 1 0 0)" d="M0 -0.9000244L595.3 -0.9000244L595.3 -0.9000244L595.3 841L595.3 841L0 841z" /></clipPath><clipPath id="69"><path id="" clip-rule="evenodd" transform="matrix(1 0 0 1 0 0)" d="M129.65 282L175.05 282L175.05 282L175.05 304.65L175.05 304.65L129.65 304.65z" /></clipPath><clipPath id="70"><path id="" clip-rule="evenodd" transform="matrix(1 0 0 1 0 0)" d="M0 -0.9000244L595.3 -0.9000244L595.3 -0.9000244L595.3 841L595.3 841L0 841z" /></clipPath><clipPath id="71"><path id="" clip-rule="evenodd" transform="matrix(1 0 0 1 0 0)" d="M175 282L220.4 282L220.4 282L220.4 304.65L220.4 304.65L175 304.65z" /></clipPath><clipPath id="72"><path id="" clip-rule="evenodd" transform="matrix(1 0 0 1 0 0)" d="M0 -0.9000244L595.3 -0.9000244L595.3 -0.9000244L595.3 841L595.3 841L0 841z" /></clipPath><clipPath id="73"><path id="" clip-rule="evenodd" transform="matrix(1 0 0 1 0 0)" d="M220.35 282L265.9 282L265.9 282L265.9 304.65L265.9 304.65L220.35 304.65z" /></clipPath><clipPath id="74"><path id="" clip-rule="evenodd" transform="matrix(1 0 0 1 0 0)" d="M0 -0.9000244L595.3 -0.9000244L595.3 -0.9000244L595.3 841L595.3 841L0 841z" /></clipPath><clipPath id="75"><path id="" clip-rule="evenodd" transform="matrix(1 0 0 1 0 0)" d="M265.85 282L311.4 282L311.4 282L311.4 304.65L311.4 304.65L265.85 304.65z" /></clipPath><clipPath id="76"><path id="" clip-rule="evenodd" transform="matrix(1 0 0 1 0 0)" d="M0 -0.9000244L595.3 -0.9000244L595.3 -0.9000244L595.3 841L595.3 841L0 841z" /></clipPath><clipPath id="77"><path id="" clip-rule="evenodd" transform="matrix(1 0 0 1 0 0)" d="M311.35 282L356.9 282L356.9 282L356.9 304.65L356.9 304.65L311.35 304.65z" /></clipPath><clipPath id="78"><path id="" clip-rule="evenodd" transform="matrix(1 0 0 1 0 0)" d="M0 -0.9000244L595.3 -0.9000244L595.3 -0.9000244L595.3 841L595.3 841L0 841z" /></clipPath><clipPath id="79"><path id="" clip-rule="evenodd" transform="matrix(1 0 0 1 0 0)" d="M356.85 282L402.3 282L402.3 282L402.3 304.65L402.3 304.65L356.85 304.65z" /></clipPath><clipPath id="80"><path id="" clip-rule="evenodd" transform="matrix(1 0 0 1 0 0)" d="M0 -0.9000244L595.3 -0.9000244L595.3 -0.9000244L595.3 841L595.3 841L0 841z" /></clipPath><clipPath id="81"><path id="" clip-rule="evenodd" transform="matrix(1 0 0 1 0 0)" d="M402.25 282L447.7 282L447.7 282L447.7 304.65L447.7 304.65L402.25 304.65z" /></clipPath><clipPath id="82"><path id="" clip-rule="evenodd" transform="matrix(1 0 0 1 0 0)" d="M0 -0.9000244L595.3 -0.9000244L595.3 -0.9000244L595.3 841L595.3 841L0 841z" /></clipPath><clipPath id="83"><path id="" clip-rule="evenodd" transform="matrix(1 0 0 1 0 0)" d="M447.65 282L493.1 282L493.1 282L493.1 304.65L493.1 304.65L447.65 304.65z" /></clipPath><clipPath id="84"><path id="" clip-rule="evenodd" transform="matrix(1 0 0 1 0 0)" d="M0 -0.9000244L595.3 -0.9000244L595.3 -0.9000244L595.3 841L595.3 841L0 841z" /></clipPath><clipPath id="85"><path id="" clip-rule="evenodd" transform="matrix(1 0 0 1 0 0)" d="M493.05 282L539.4 282L539.4 282L539.4 304.65L539.4 304.65L493.05 304.65z" /></clipPath><clipPath id="86"><path id="" clip-rule="evenodd" transform="matrix(1 0 0 1 0 0)" d="M0 -0.9000244L595.3 -0.9000244L595.3 -0.9000244L595.3 841L595.3 841L0 841z" /></clipPath><clipPath id="87"><path id="" clip-rule="evenodd" transform="matrix(1 0 0 1 0 0)" d="M84.3 304.65L129.7 304.65L129.7 304.65L129.7 327.2999L129.7 327.2999L84.3 327.2999z" /></clipPath><clipPath id="88"><path id="" clip-rule="evenodd" transform="matrix(1 0 0 1 0 0)" d="M0 -0.9000244L595.3 -0.9000244L595.3 -0.9000244L595.3 841L595.3 841L0 841z" /></clipPath><clipPath id="89"><path id="" clip-rule="evenodd" transform="matrix(1 0 0 1 0 0)" d="M129.65 304.65L175.05 304.65L175.05 304.65L175.05 327.2999L175.05 327.2999L129.65 327.2999z" /></clipPath><clipPath id="90"><path id="" clip-rule="evenodd" transform="matrix(1 0 0 1 0 0)" d="M0 -0.9000244L595.3 -0.9000244L595.3 -0.9000244L595.3 841L595.3 841L0 841z" /></clipPath><clipPath id="91"><path id="" clip-rule="evenodd" transform="matrix(1 0 0 1 0 0)" d="M175 304.65L220.4 304.65L220.4 304.65L220.4 327.2999L220.4 327.2999L175 327.2999z" /></clipPath><clipPath id="92"><path id="" clip-rule="evenodd" transform="matrix(1 0 0 1 0 0)" d="M0 -0.9000244L595.3 -0.9000244L595.3 -0.9000244L595.3 841L595.3 841L0 841z" /></clipPath><clipPath id="93"><path id="" clip-rule="evenodd" transform="matrix(1 0 0 1 0 0)" d="M220.35 304.65L265.9 304.65L265.9 304.65L265.9 327.2999L265.9 327.2999L220.35 327.2999z" /></clipPath><clipPath id="94"><path id="" clip-rule="evenodd" transform="matrix(1 0 0 1 0 0)" d="M0 -0.9000244L595.3 -0.9000244L595.3 -0.9000244L595.3 841L595.3 841L0 841z" /></clipPath><clipPath id="95"><path id="" clip-rule="evenodd" transform="matrix(1 0 0 1 0 0)" d="M265.85 304.65L311.4 304.65L311.4 304.65L311.4 327.2999L311.4 327.2999L265.85 327.2999z" /></clipPath><clipPath id="96"><path id="" clip-rule="evenodd" transform="matrix(1 0 0 1 0 0)" d="M0 -0.9000244L595.3 -0.9000244L595.3 -0.9000244L595.3 841L595.3 841L0 841z" /></clipPath><clipPath id="97"><path id="" clip-rule="evenodd" transform="matrix(1 0 0 1 0 0)" d="M311.35 304.65L356.9 304.65L356.9 304.65L356.9 327.2999L356.9 327.2999L311.35 327.2999z" /></clipPath><clipPath id="98"><path id="" clip-rule="evenodd" transform="matrix(1 0 0 1 0 0)" d="M0 -0.9000244L595.3 -0.9000244L595.3 -0.9000244L595.3 841L595.3 841L0 841z" /></clipPath><clipPath id="99"><path id="" clip-rule="evenodd" transform="matrix(1 0 0 1 0 0)" d="M356.85 304.65L402.3 304.65L402.3 304.65L402.3 327.2999L402.3 327.2999L356.85 327.2999z" /></clipPath><clipPath id="100"><path id="" clip-rule="evenodd" transform="matrix(1 0 0 1 0 0)" d="M0 -0.9000244L595.3 -0.9000244L595.3 -0.9000244L595.3 841L595.3 841L0 841z" /></clipPath><clipPath id="101"><path id="" clip-rule="evenodd" transform="matrix(1 0 0 1 0 0)" d="M402.25 304.65L447.7 304.65L447.7 304.65L447.7 327.2999L447.7 327.2999L402.25 327.2999z" /></clipPath><clipPath id="102"><path id="" clip-rule="evenodd" transform="matrix(1 0 0 1 0 0)" d="M0 -0.9000244L595.3 -0.9000244L595.3 -0.9000244L595.3 841L595.3 841L0 841z" /></clipPath><clipPath id="103"><path id="" clip-rule="evenodd" transform="matrix(1 0 0 1 0 0)" d="M447.65 304.65L493.1 304.65L493.1 304.65L493.1 327.2999L493.1 327.2999L447.65 327.2999z" /></clipPath><clipPath id="104"><path id="" clip-rule="evenodd" transform="matrix(1 0 0 1 0 0)" d="M0 -0.9000244L595.3 -0.9000244L595.3 -0.9000244L595.3 841L595.3 841L0 841z" /></clipPath><clipPath id="105"><path id="" clip-rule="evenodd" transform="matrix(1 0 0 1 0 0)" d="M493.05 304.65L539.4 304.65L539.4 304.65L539.4 327.2999L539.4 327.2999L493.05 327.2999z" /></clipPath><clipPath id="106"><path id="" clip-rule="evenodd" transform="matrix(1 0 0 1 0 0)" d="M0 -0.9000244L595.3 -0.9000244L595.3 -0.9000244L595.3 841L595.3 841L0 841z" /></clipPath><clipPath id="107"><path id="" clip-rule="evenodd" transform="matrix(1 0 0 1 0 0)" d="M84.3 327.3L129.7 327.3L129.7 327.3L129.7 349.95L129.7 349.95L84.3 349.95z" /></clipPath><clipPath id="108"><path id="" clip-rule="evenodd" transform="matrix(1 0 0 1 0 0)" d="M0 -0.9000244L595.3 -0.9000244L595.3 -0.9000244L595.3 841L595.3 841L0 841z" /></clipPath><clipPath id="109"><path id="" clip-rule="evenodd" transform="matrix(1 0 0 1 0 0)" d="M129.65 327.3L175.05 327.3L175.05 327.3L175.05 349.95L175.05 349.95L129.65 349.95z" /></clipPath><clipPath id="110"><path id="" clip-rule="evenodd" transform="matrix(1 0 0 1 0 0)" d="M0 -0.9000244L595.3 -0.9000244L595.3 -0.9000244L595.3 841L595.3 841L0 841z" /></clipPath><clipPath id="111"><path id="" clip-rule="evenodd" transform="matrix(1 0 0 1 0 0)" d="M175 327.3L220.4 327.3L220.4 327.3L220.4 349.95L220.4 349.95L175 349.95z" /></clipPath><clipPath id="112"><path id="" clip-rule="evenodd" transform="matrix(1 0 0 1 0 0)" d="M0 -0.9000244L595.3 -0.9000244L595.3 -0.9000244L595.3 841L595.3 841L0 841z" /></clipPath><clipPath id="113"><path id="" clip-rule="evenodd" transform="matrix(1 0 0 1 0 0)" d="M220.35 327.3L265.9 327.3L265.9 327.3L265.9 349.95L265.9 349.95L220.35 349.95z" /></clipPath><clipPath id="114"><path id="" clip-rule="evenodd" transform="matrix(1 0 0 1 0 0)" d="M0 -0.9000244L595.3 -0.9000244L595.3 -0.9000244L595.3 841L595.3 841L0 841z" /></clipPath><clipPath id="115"><path id="" clip-rule="evenodd" transform="matrix(1 0 0 1 0 0)" d="M265.85 327.3L311.4 327.3L311.4 327.3L311.4 349.95L311.4 349.95L265.85 349.95z" /></clipPath><clipPath id="116"><path id="" clip-rule="evenodd" transform="matrix(1 0 0 1 0 0)" d="M0 -0.9000244L595.3 -0.9000244L595.3 -0.9000244L595.3 841L595.3 841L0 841z" /></clipPath><clipPath id="117"><path id="" clip-rule="evenodd" transform="matrix(1 0 0 1 0 0)" d="M311.35 327.3L356.9 327.3L356.9 327.3L356.9 349.95L356.9 349.95L311.35 349.95z" /></clipPath><clipPath id="118"><path id="" clip-rule="evenodd" transform="matrix(1 0 0 1 0 0)" d="M0 -0.9000244L595.3 -0.9000244L595.3 -0.9000244L595.3 841L595.3 841L0 841z" /></clipPath><clipPath id="119"><path id="" clip-rule="evenodd" transform="matrix(1 0 0 1 0 0)" d="M356.85 327.3L402.3 327.3L402.3 327.3L402.3 349.95L402.3 349.95L356.85 349.95z" /></clipPath><clipPath id="120"><path id="" clip-rule="evenodd" transform="matrix(1 0 0 1 0 0)" d="M0 -0.9000244L595.3 -0.9000244L595.3 -0.9000244L595.3 841L595.3 841L0 841z" /></clipPath><clipPath id="121"><path id="" clip-rule="evenodd" transform="matrix(1 0 0 1 0 0)" d="M402.25 327.3L447.7 327.3L447.7 327.3L447.7 349.95L447.7 349.95L402.25 349.95z" /></clipPath><clipPath id="122"><path id="" clip-rule="evenodd" transform="matrix(1 0 0 1 0 0)" d="M0 -0.9000244L595.3 -0.9000244L595.3 -0.9000244L595.3 841L595.3 841L0 841z" /></clipPath><clipPath id="123"><path id="" clip-rule="evenodd" transform="matrix(1 0 0 1 0 0)" d="M447.65 327.3L493.1 327.3L493.1 327.3L493.1 349.95L493.1 349.95L447.65 349.95z" /></clipPath><clipPath id="124"><path id="" clip-rule="evenodd" transform="matrix(1 0 0 1 0 0)" d="M0 -0.9000244L595.3 -0.9000244L595.3 -0.9000244L595.3 841L595.3 841L0 841z" /></clipPath><clipPath id="125"><path id="" clip-rule="evenodd" transform="matrix(1 0 0 1 0 0)" d="M493.05 327.3L539.4 327.3L539.4 327.3L539.4 349.95L539.4 349.95L493.05 349.95z" /></clipPath><clipPath id="126"><path id="" clip-rule="evenodd" transform="matrix(1 0 0 1 0 0)" d="M0 -0.9000244L595.3 -0.9000244L595.3 -0.9000244L595.3 841L595.3 841L0 841z" /></clipPath><clipPath id="127"><path id="" clip-rule="evenodd" transform="matrix(1 0 0 1 0 0)" d="M84.3 349.95L129.7 349.95L129.7 349.95L129.7 372.6L129.7 372.6L84.3 372.6z" /></clipPath><clipPath id="128"><path id="" clip-rule="evenodd" transform="matrix(1 0 0 1 0 0)" d="M0 -0.9000244L595.3 -0.9000244L595.3 -0.9000244L595.3 841L595.3 841L0 841z" /></clipPath><clipPath id="129"><path id="" clip-rule="evenodd" transform="matrix(1 0 0 1 0 0)" d="M129.65 349.95L175.05 349.95L175.05 349.95L175.05 372.6L175.05 372.6L129.65 372.6z" /></clipPath><clipPath id="130"><path id="" clip-rule="evenodd" transform="matrix(1 0 0 1 0 0)" d="M0 -0.9000244L595.3 -0.9000244L595.3 -0.9000244L595.3 841L595.3 841L0 841z" /></clipPath><clipPath id="131"><path id="" clip-rule="evenodd" transform="matrix(1 0 0 1 0 0)" d="M175 349.95L220.4 349.95L220.4 349.95L220.4 372.6L220.4 372.6L175 372.6z" /></clipPath><clipPath id="132"><path id="" clip-rule="evenodd" transform="matrix(1 0 0 1 0 0)" d="M0 -0.9000244L595.3 -0.9000244L595.3 -0.9000244L595.3 841L595.3 841L0 841z" /></clipPath><clipPath id="133"><path id="" clip-rule="evenodd" transform="matrix(1 0 0 1 0 0)" d="M220.35 349.95L265.9 349.95L265.9 349.95L265.9 372.6L265.9 372.6L220.35 372.6z" /></clipPath><clipPath id="134"><path id="" clip-rule="evenodd" transform="matrix(1 0 0 1 0 0)" d="M0 -0.9000244L595.3 -0.9000244L595.3 -0.9000244L595.3 841L595.3 841L0 841z" /></clipPath><clipPath id="135"><path id="" clip-rule="evenodd" transform="matrix(1 0 0 1 0 0)" d="M265.85 349.95L311.4 349.95L311.4 349.95L311.4 372.6L311.4 372.6L265.85 372.6z" /></clipPath><clipPath id="136"><path id="" clip-rule="evenodd" transform="matrix(1 0 0 1 0 0)" d="M0 -0.9000244L595.3 -0.9000244L595.3 -0.9000244L595.3 841L595.3 841L0 841z" /></clipPath><clipPath id="137"><path id="" clip-rule="evenodd" transform="matrix(1 0 0 1 0 0)" d="M311.35 349.95L356.9 349.95L356.9 349.95L356.9 372.6L356.9 372.6L311.35 372.6z" /></clipPath><clipPath id="138"><path id="" clip-rule="evenodd" transform="matrix(1 0 0 1 0 0)" d="M0 -0.9000244L595.3 -0.9000244L595.3 -0.9000244L595.3 841L595.3 841L0 841z" /></clipPath><clipPath id="139"><path id="" clip-rule="evenodd" transform="matrix(1 0 0 1 0 0)" d="M356.85 349.95L402.3 349.95L402.3 349.95L402.3 372.6L402.3 372.6L356.85 372.6z" /></clipPath><clipPath id="140"><path id="" clip-rule="evenodd" transform="matrix(1 0 0 1 0 0)" d="M0 -0.9000244L595.3 -0.9000244L595.3 -0.9000244L595.3 841L595.3 841L0 841z" /></clipPath><clipPath id="141"><path id="" clip-rule="evenodd" transform="matrix(1 0 0 1 0 0)" d="M402.25 349.95L447.7 349.95L447.7 349.95L447.7 372.6L447.7 372.6L402.25 372.6z" /></clipPath><clipPath id="142"><path id="" clip-rule="evenodd" transform="matrix(1 0 0 1 0 0)" d="M0 -0.9000244L595.3 -0.9000244L595.3 -0.9000244L595.3 841L595.3 841L0 841z" /></clipPath><clipPath id="143"><path id="" clip-rule="evenodd" transform="matrix(1 0 0 1 0 0)" d="M447.65 349.95L493.1 349.95L493.1 349.95L493.1 372.6L493.1 372.6L447.65 372.6z" /></clipPath><clipPath id="144"><path id="" clip-rule="evenodd" transform="matrix(1 0 0 1 0 0)" d="M0 -0.9000244L595.3 -0.9000244L595.3 -0.9000244L595.3 841L595.3 841L0 841z" /></clipPath><clipPath id="145"><path id="" clip-rule="evenodd" transform="matrix(1 0 0 1 0 0)" d="M493.05 349.95L539.4 349.95L539.4 349.95L539.4 372.6L539.4 372.6L493.05 372.6z" /></clipPath><clipPath id="146"><path id="" clip-rule="evenodd" transform="matrix(1 0 0 1 0 0)" d="M0 -0.9000244L595.3 -0.9000244L595.3 -0.9000244L595.3 841L595.3 841L0 841z" /></clipPath><clipPath id="147"><path id="" clip-rule="evenodd" transform="matrix(1 0 0 1 0 0)" d="M84.3 372.6L129.7 372.6L129.7 372.6L129.7 395.25L129.7 395.25L84.3 395.25z" /></clipPath><clipPath id="148"><path id="" clip-rule="evenodd" transform="matrix(1 0 0 1 0 0)" d="M0 -0.9000244L595.3 -0.9000244L595.3 -0.9000244L595.3 841L595.3 841L0 841z" /></clipPath><clipPath id="149"><path id="" clip-rule="evenodd" transform="matrix(1 0 0 1 0 0)" d="M129.65 372.6L175.05 372.6L175.05 372.6L175.05 395.25L175.05 395.25L129.65 395.25z" /></clipPath><clipPath id="150"><path id="" clip-rule="evenodd" transform="matrix(1 0 0 1 0 0)" d="M0 -0.9000244L595.3 -0.9000244L595.3 -0.9000244L595.3 841L595.3 841L0 841z" /></clipPath><clipPath id="151"><path id="" clip-rule="evenodd" transform="matrix(1 0 0 1 0 0)" d="M175 372.6L220.4 372.6L220.4 372.6L220.4 395.25L220.4 395.25L175 395.25z" /></clipPath><clipPath id="152"><path id="" clip-rule="evenodd" transform="matrix(1 0 0 1 0 0)" d="M0 -0.9000244L595.3 -0.9000244L595.3 -0.9000244L595.3 841L595.3 841L0 841z" /></clipPath><clipPath id="153"><path id="" clip-rule="evenodd" transform="matrix(1 0 0 1 0 0)" d="M220.35 372.6L265.9 372.6L265.9 372.6L265.9 395.25L265.9 395.25L220.35 395.25z" /></clipPath><clipPath id="154"><path id="" clip-rule="evenodd" transform="matrix(1 0 0 1 0 0)" d="M0 -0.9000244L595.3 -0.9000244L595.3 -0.9000244L595.3 841L595.3 841L0 841z" /></clipPath><clipPath id="155"><path id="" clip-rule="evenodd" transform="matrix(1 0 0 1 0 0)" d="M265.85 372.6L311.4 372.6L311.4 372.6L311.4 395.25L311.4 395.25L265.85 395.25z" /></clipPath><clipPath id="156"><path id="" clip-rule="evenodd" transform="matrix(1 0 0 1 0 0)" d="M0 -0.9000244L595.3 -0.9000244L595.3 -0.9000244L595.3 841L595.3 841L0 841z" /></clipPath><clipPath id="157"><path id="" clip-rule="evenodd" transform="matrix(1 0 0 1 0 0)" d="M311.35 372.6L356.9 372.6L356.9 372.6L356.9 395.25L356.9 395.25L311.35 395.25z" /></clipPath><clipPath id="158"><path id="" clip-rule="evenodd" transform="matrix(1 0 0 1 0 0)" d="M0 -0.9000244L595.3 -0.9000244L595.3 -0.9000244L595.3 841L595.3 841L0 841z" /></clipPath><clipPath id="159"><path id="" clip-rule="evenodd" transform="matrix(1 0 0 1 0 0)" d="M356.85 372.6L402.3 372.6L402.3 372.6L402.3 395.25L402.3 395.25L356.85 395.25z" /></clipPath><clipPath id="160"><path id="" clip-rule="evenodd" transform="matrix(1 0 0 1 0 0)" d="M0 -0.9000244L595.3 -0.9000244L595.3 -0.9000244L595.3 841L595.3 841L0 841z" /></clipPath><clipPath id="161"><path id="" clip-rule="evenodd" transform="matrix(1 0 0 1 0 0)" d="M402.25 372.6L447.7 372.6L447.7 372.6L447.7 395.25L447.7 395.25L402.25 395.25z" /></clipPath><clipPath id="162"><path id="" clip-rule="evenodd" transform="matrix(1 0 0 1 0 0)" d="M0 -0.9000244L595.3 -0.9000244L595.3 -0.9000244L595.3 841L595.3 841L0 841z" /></clipPath><clipPath id="163"><path id="" clip-rule="evenodd" transform="matrix(1 0 0 1 0 0)" d="M447.65 372.6L493.1 372.6L493.1 372.6L493.1 395.25L493.1 395.25L447.65 395.25z" /></clipPath><clipPath id="164"><path id="" clip-rule="evenodd" transform="matrix(1 0 0 1 0 0)" d="M0 -0.9000244L595.3 -0.9000244L595.3 -0.9000244L595.3 841L595.3 841L0 841z" /></clipPath><clipPath id="165"><path id="" clip-rule="evenodd" transform="matrix(1 0 0 1 0 0)" d="M493.05 372.6L539.4 372.6L539.4 372.6L539.4 395.25L539.4 395.25L493.05 395.25z" /></clipPath><clipPath id="166"><path id="" clip-rule="evenodd" transform="matrix(1 0 0 1 0 0)" d="M0 -0.9000244L595.3 -0.9000244L595.3 -0.9000244L595.3 841L595.3 841L0 841z" /></clipPath><clipPath id="167"><path id="" clip-rule="evenodd" transform="matrix(1 0 0 1 0 0)" d="M84.3 395.25L129.7 395.25L129.7 395.25L129.7 417.9L129.7 417.9L84.3 417.9z" /></clipPath><clipPath id="168"><path id="" clip-rule="evenodd" transform="matrix(1 0 0 1 0 0)" d="M0 -0.9000244L595.3 -0.9000244L595.3 -0.9000244L595.3 841L595.3 841L0 841z" /></clipPath><clipPath id="169"><path id="" clip-rule="evenodd" transform="matrix(1 0 0 1 0 0)" d="M129.65 395.25L175.05 395.25L175.05 395.25L175.05 417.9L175.05 417.9L129.65 417.9z" /></clipPath><clipPath id="170"><path id="" clip-rule="evenodd" transform="matrix(1 0 0 1 0 0)" d="M0 -0.9000244L595.3 -0.9000244L595.3 -0.9000244L595.3 841L595.3 841L0 841z" /></clipPath><clipPath id="171"><path id="" clip-rule="evenodd" transform="matrix(1 0 0 1 0 0)" d="M175 395.25L220.4 395.25L220.4 395.25L220.4 417.9L220.4 417.9L175 417.9z" /></clipPath><clipPath id="172"><path id="" clip-rule="evenodd" transform="matrix(1 0 0 1 0 0)" d="M0 -0.9000244L595.3 -0.9000244L595.3 -0.9000244L595.3 841L595.3 841L0 841z" /></clipPath><clipPath id="173"><path id="" clip-rule="evenodd" transform="matrix(1 0 0 1 0 0)" d="M220.35 395.25L265.9 395.25L265.9 395.25L265.9 417.9L265.9 417.9L220.35 417.9z" /></clipPath><clipPath id="174"><path id="" clip-rule="evenodd" transform="matrix(1 0 0 1 0 0)" d="M0 -0.9000244L595.3 -0.9000244L595.3 -0.9000244L595.3 841L595.3 841L0 841z" /></clipPath><clipPath id="175"><path id="" clip-rule="evenodd" transform="matrix(1 0 0 1 0 0)" d="M265.85 395.25L311.4 395.25L311.4 395.25L311.4 417.9L311.4 417.9L265.85 417.9z" /></clipPath><clipPath id="176"><path id="" clip-rule="evenodd" transform="matrix(1 0 0 1 0 0)" d="M0 -0.9000244L595.3 -0.9000244L595.3 -0.9000244L595.3 841L595.3 841L0 841z" /></clipPath><clipPath id="177"><path id="" clip-rule="evenodd" transform="matrix(1 0 0 1 0 0)" d="M311.35 395.25L356.9 395.25L356.9 395.25L356.9 417.9L356.9 417.9L311.35 417.9z" /></clipPath><clipPath id="178"><path id="" clip-rule="evenodd" transform="matrix(1 0 0 1 0 0)" d="M0 -0.9000244L595.3 -0.9000244L595.3 -0.9000244L595.3 841L595.3 841L0 841z" /></clipPath><clipPath id="179"><path id="" clip-rule="evenodd" transform="matrix(1 0 0 1 0 0)" d="M356.85 395.25L402.3 395.25L402.3 395.25L402.3 417.9L402.3 417.9L356.85 417.9z" /></clipPath><clipPath id="180"><path id="" clip-rule="evenodd" transform="matrix(1 0 0 1 0 0)" d="M0 -0.9000244L595.3 -0.9000244L595.3 -0.9000244L595.3 841L595.3 841L0 841z" /></clipPath><clipPath id="181"><path id="" clip-rule="evenodd" transform="matrix(1 0 0 1 0 0)" d="M402.25 395.25L447.7 395.25L447.7 395.25L447.7 417.9L447.7 417.9L402.25 417.9z" /></clipPath><clipPath id="182"><path id="" clip-rule="evenodd" transform="matrix(1 0 0 1 0 0)" d="M0 -0.9000244L595.3 -0.9000244L595.3 -0.9000244L595.3 841L595.3 841L0 841z" /></clipPath><clipPath id="183"><path id="" clip-rule="evenodd" transform="matrix(1 0 0 1 0 0)" d="M447.65 395.25L493.1 395.25L493.1 395.25L493.1 417.9L493.1 417.9L447.65 417.9z" /></clipPath><clipPath id="184"><path id="" clip-rule="evenodd" transform="matrix(1 0 0 1 0 0)" d="M0 -0.9000244L595.3 -0.9000244L595.3 -0.9000244L595.3 841L595.3 841L0 841z" /></clipPath><clipPath id="185"><path id="" clip-rule="evenodd" transform="matrix(1 0 0 1 0 0)" d="M493.05 395.25L539.4 395.25L539.4 395.25L539.4 417.9L539.4 417.9L493.05 417.9z" /></clipPath><clipPath id="186"><path id="" clip-rule="evenodd" transform="matrix(1 0 0 1 0 0)" d="M0 -0.9000244L595.3 -0.9000244L595.3 -0.9000244L595.3 841L595.3 841L0 841z" /></clipPath><clipPath id="187"><path id="" clip-rule="evenodd" transform="matrix(1 0 0 1 0 0)" d="M84.3 417.9L129.7 417.9L129.7 417.9L129.7 440.55L129.7 440.55L84.3 440.55z" /></clipPath><clipPath id="188"><path id="" clip-rule="evenodd" transform="matrix(1 0 0 1 0 0)" d="M0 -0.9000244L595.3 -0.9000244L595.3 -0.9000244L595.3 841L595.3 841L0 841z" /></clipPath><clipPath id="189"><path id="" clip-rule="evenodd" transform="matrix(1 0 0 1 0 0)" d="M129.65 417.9L175.05 417.9L175.05 417.9L175.05 440.55L175.05 440.55L129.65 440.55z" /></clipPath><clipPath id="190"><path id="" clip-rule="evenodd" transform="matrix(1 0 0 1 0 0)" d="M0 -0.9000244L595.3 -0.9000244L595.3 -0.9000244L595.3 841L595.3 841L0 841z" /></clipPath><clipPath id="191"><path id="" clip-rule="evenodd" transform="matrix(1 0 0 1 0 0)" d="M175 417.9L220.4 417.9L220.4 417.9L220.4 440.55L220.4 440.55L175 440.55z" /></clipPath><clipPath id="192"><path id="" clip-rule="evenodd" transform="matrix(1 0 0 1 0 0)" d="M0 -0.9000244L595.3 -0.9000244L595.3 -0.9000244L595.3 841L595.3 841L0 841z" /></clipPath><clipPath id="193"><path id="" clip-rule="evenodd" transform="matrix(1 0 0 1 0 0)" d="M220.35 417.9L265.9 417.9L265.9 417.9L265.9 440.55L265.9 440.55L220.35 440.55z" /></clipPath><clipPath id="194"><path id="" clip-rule="evenodd" transform="matrix(1 0 0 1 0 0)" d="M0 -0.9000244L595.3 -0.9000244L595.3 -0.9000244L595.3 841L595.3 841L0 841z" /></clipPath><clipPath id="195"><path id="" clip-rule="evenodd" transform="matrix(1 0 0 1 0 0)" d="M265.85 417.9L311.4 417.9L311.4 417.9L311.4 440.55L311.4 440.55L265.85 440.55z" /></clipPath><clipPath id="196"><path id="" clip-rule="evenodd" transform="matrix(1 0 0 1 0 0)" d="M0 -0.9000244L595.3 -0.9000244L595.3 -0.9000244L595.3 841L595.3 841L0 841z" /></clipPath><clipPath id="197"><path id="" clip-rule="evenodd" transform="matrix(1 0 0 1 0 0)" d="M311.35 417.9L356.9 417.9L356.9 417.9L356.9 440.55L356.9 440.55L311.35 440.55z" /></clipPath><clipPath id="198"><path id="" clip-rule="evenodd" transform="matrix(1 0 0 1 0 0)" d="M0 -0.9000244L595.3 -0.9000244L595.3 -0.9000244L595.3 841L595.3 841L0 841z" /></clipPath><clipPath id="199"><path id="" clip-rule="evenodd" transform="matrix(1 0 0 1 0 0)" d="M356.85 417.9L402.3 417.9L402.3 417.9L402.3 440.55L402.3 440.55L356.85 440.55z" /></clipPath><clipPath id="200"><path id="" clip-rule="evenodd" transform="matrix(1 0 0 1 0 0)" d="M0 -0.9000244L595.3 -0.9000244L595.3 -0.9000244L595.3 841L595.3 841L0 841z" /></clipPath><clipPath id="201"><path id="" clip-rule="evenodd" transform="matrix(1 0 0 1 0 0)" d="M402.25 417.9L447.7 417.9L447.7 417.9L447.7 440.55L447.7 440.55L402.25 440.55z" /></clipPath><clipPath id="202"><path id="" clip-rule="evenodd" transform="matrix(1 0 0 1 0 0)" d="M0 -0.9000244L595.3 -0.9000244L595.3 -0.9000244L595.3 841L595.3 841L0 841z" /></clipPath><clipPath id="203"><path id="" clip-rule="evenodd" transform="matrix(1 0 0 1 0 0)" d="M447.65 417.9L493.1 417.9L493.1 417.9L493.1 440.55L493.1 440.55L447.65 440.55z" /></clipPath><clipPath id="204"><path id="" clip-rule="evenodd" transform="matrix(1 0 0 1 0 0)" d="M0 -0.9000244L595.3 -0.9000244L595.3 -0.9000244L595.3 841L595.3 841L0 841z" /></clipPath><clipPath id="205"><path id="" clip-rule="evenodd" transform="matrix(1 0 0 1 0 0)" d="M493.05 417.9L539.4 417.9L539.4 417.9L539.4 440.55L539.4 440.55L493.05 440.55z" /></clipPath><clipPath id="206"><path id="" clip-rule="evenodd" transform="matrix(1 0 0 1 0 0)" d="M0 -0.9000244L595.3 -0.9000244L595.3 -0.9000244L595.3 841L595.3 841L0 841z" /></clipPath><clipPath id="207"><path id="" clip-rule="evenodd" transform="matrix(1 0 0 1 0 0)" d="M84.3 440.55L129.7 440.55L129.7 440.55L129.7 463.2L129.7 463.2L84.3 463.2z" /></clipPath><clipPath id="208"><path id="" clip-rule="evenodd" transform="matrix(1 0 0 1 0 0)" d="M0 -0.9000244L595.3 -0.9000244L595.3 -0.9000244L595.3 841L595.3 841L0 841z" /></clipPath><clipPath id="209"><path id="" clip-rule="evenodd" transform="matrix(1 0 0 1 0 0)" d="M129.65 440.55L175.05 440.55L175.05 440.55L175.05 463.2L175.05 463.2L129.65 463.2z" /></clipPath><clipPath id="210"><path id="" clip-rule="evenodd" transform="matrix(1 0 0 1 0 0)" d="M0 -0.9000244L595.3 -0.9000244L595.3 -0.9000244L595.3 841L595.3 841L0 841z" /></clipPath><clipPath id="211"><path id="" clip-rule="evenodd" transform="matrix(1 0 0 1 0 0)" d="M175 440.55L220.4 440.55L220.4 440.55L220.4 463.2L220.4 463.2L175 463.2z" /></clipPath><clipPath id="212"><path id="" clip-rule="evenodd" transform="matrix(1 0 0 1 0 0)" d="M0 -0.9000244L595.3 -0.9000244L595.3 -0.9000244L595.3 841L595.3 841L0 841z" /></clipPath><clipPath id="213"><path id="" clip-rule="evenodd" transform="matrix(1 0 0 1 0 0)" d="M220.35 440.55L265.9 440.55L265.9 440.55L265.9 463.2L265.9 463.2L220.35 463.2z" /></clipPath><clipPath id="214"><path id="" clip-rule="evenodd" transform="matrix(1 0 0 1 0 0)" d="M0 -0.9000244L595.3 -0.9000244L595.3 -0.9000244L595.3 841L595.3 841L0 841z" /></clipPath><clipPath id="215"><path id="" clip-rule="evenodd" transform="matrix(1 0 0 1 0 0)" d="M265.85 440.55L311.4 440.55L311.4 440.55L311.4 463.2L311.4 463.2L265.85 463.2z" /></clipPath><clipPath id="216"><path id="" clip-rule="evenodd" transform="matrix(1 0 0 1 0 0)" d="M0 -0.9000244L595.3 -0.9000244L595.3 -0.9000244L595.3 841L595.3 841L0 841z" /></clipPath><clipPath id="217"><path id="" clip-rule="evenodd" transform="matrix(1 0 0 1 0 0)" d="M311.35 440.55L356.9 440.55L356.9 440.55L356.9 463.2L356.9 463.2L311.35 463.2z" /></clipPath><clipPath id="218"><path id="" clip-rule="evenodd" transform="matrix(1 0 0 1 0 0)" d="M0 -0.9000244L595.3 -0.9000244L595.3 -0.9000244L595.3 841L595.3 841L0 841z" /></clipPath><clipPath id="219"><path id="" clip-rule="evenodd" transform="matrix(1 0 0 1 0 0)" d="M356.85 440.55L402.3 440.55L402.3 440.55L402.3 463.2L402.3 463.2L356.85 463.2z" /></clipPath><clipPath id="220"><path id="" clip-rule="evenodd" transform="matrix(1 0 0 1 0 0)" d="M0 -0.9000244L595.3 -0.9000244L595.3 -0.9000244L595.3 841L595.3 841L0 841z" /></clipPath><clipPath id="221"><path id="" clip-rule="evenodd" transform="matrix(1 0 0 1 0 0)" d="M402.25 440.55L447.7 440.55L447.7 440.55L447.7 463.2L447.7 463.2L402.25 463.2z" /></clipPath><clipPath id="222"><path id="" clip-rule="evenodd" transform="matrix(1 0 0 1 0 0)" d="M0 -0.9000244L595.3 -0.9000244L595.3 -0.9000244L595.3 841L595.3 841L0 841z" /></clipPath><clipPath id="223"><path id="" clip-rule="evenodd" transform="matrix(1 0 0 1 0 0)" d="M447.65 440.55L493.1 440.55L493.1 440.55L493.1 463.2L493.1 463.2L447.65 463.2z" /></clipPath><clipPath id="224"><path id="" clip-rule="evenodd" transform="matrix(1 0 0 1 0 0)" d="M0 -0.9000244L595.3 -0.9000244L595.3 -0.9000244L595.3 841L595.3 841L0 841z" /></clipPath><clipPath id="225"><path id="" clip-rule="evenodd" transform="matrix(1 0 0 1 0 0)" d="M493.05 440.55L539.4 440.55L539.4 440.55L539.4 463.2L539.4 463.2L493.05 463.2z" /></clipPath><clipPath id="226"><path id="" clip-rule="evenodd" transform="matrix(1 0 0 1 0 0)" d="M0 -0.9000244L595.3 -0.9000244L595.3 -0.9000244L595.3 841L595.3 841L0 841z" /></clipPath><clipPath id="227"><path id="" clip-rule="evenodd" transform="matrix(1 0 0 1 0 0)" d="M84.3 463.2L129.7 463.2L129.7 463.2L129.7 485.85L129.7 485.85L84.3 485.85z" /></clipPath><clipPath id="228"><path id="" clip-rule="evenodd" transform="matrix(1 0 0 1 0 0)" d="M0 -0.9000244L595.3 -0.9000244L595.3 -0.9000244L595.3 841L595.3 841L0 841z" /></clipPath><clipPath id="229"><path id="" clip-rule="evenodd" transform="matrix(1 0 0 1 0 0)" d="M129.65 463.2L175.05 463.2L175.05 463.2L175.05 485.85L175.05 485.85L129.65 485.85z" /></clipPath><clipPath id="230"><path id="" clip-rule="evenodd" transform="matrix(1 0 0 1 0 0)" d="M0 -0.9000244L595.3 -0.9000244L595.3 -0.9000244L595.3 841L595.3 841L0 841z" /></clipPath><clipPath id="231"><path id="" clip-rule="evenodd" transform="matrix(1 0 0 1 0 0)" d="M175 463.2L220.4 463.2L220.4 463.2L220.4 485.85L220.4 485.85L175 485.85z" /></clipPath><clipPath id="232"><path id="" clip-rule="evenodd" transform="matrix(1 0 0 1 0 0)" d="M0 -0.9000244L595.3 -0.9000244L595.3 -0.9000244L595.3 841L595.3 841L0 841z" /></clipPath><clipPath id="233"><path id="" clip-rule="evenodd" transform="matrix(1 0 0 1 0 0)" d="M220.35 463.2L265.9 463.2L265.9 463.2L265.9 485.85L265.9 485.85L220.35 485.85z" /></clipPath><clipPath id="234"><path id="" clip-rule="evenodd" transform="matrix(1 0 0 1 0 0)" d="M0 -0.9000244L595.3 -0.9000244L595.3 -0.9000244L595.3 841L595.3 841L0 841z" /></clipPath><clipPath id="235"><path id="" clip-rule="evenodd" transform="matrix(1 0 0 1 0 0)" d="M265.85 463.2L311.4 463.2L311.4 463.2L311.4 485.85L311.4 485.85L265.85 485.85z" /></clipPath><clipPath id="236"><path id="" clip-rule="evenodd" transform="matrix(1 0 0 1 0 0)" d="M0 -0.9000244L595.3 -0.9000244L595.3 -0.9000244L595.3 841L595.3 841L0 841z" /></clipPath><clipPath id="237"><path id="" clip-rule="evenodd" transform="matrix(1 0 0 1 0 0)" d="M311.35 463.2L356.9 463.2L356.9 463.2L356.9 485.85L356.9 485.85L311.35 485.85z" /></clipPath><clipPath id="238"><path id="" clip-rule="evenodd" transform="matrix(1 0 0 1 0 0)" d="M0 -0.9000244L595.3 -0.9000244L595.3 -0.9000244L595.3 841L595.3 841L0 841z" /></clipPath><clipPath id="239"><path id="" clip-rule="evenodd" transform="matrix(1 0 0 1 0 0)" d="M356.85 463.2L402.3 463.2L402.3 463.2L402.3 485.85L402.3 485.85L356.85 485.85z" /></clipPath><clipPath id="240"><path id="" clip-rule="evenodd" transform="matrix(1 0 0 1 0 0)" d="M0 -0.9000244L595.3 -0.9000244L595.3 -0.9000244L595.3 841L595.3 841L0 841z" /></clipPath><clipPath id="241"><path id="" clip-rule="evenodd" transform="matrix(1 0 0 1 0 0)" d="M402.25 463.2L447.7 463.2L447.7 463.2L447.7 485.85L447.7 485.85L402.25 485.85z" /></clipPath><clipPath id="242"><path id="" clip-rule="evenodd" transform="matrix(1 0 0 1 0 0)" d="M0 -0.9000244L595.3 -0.9000244L595.3 -0.9000244L595.3 841L595.3 841L0 841z" /></clipPath><clipPath id="243"><path id="" clip-rule="evenodd" transform="matrix(1 0 0 1 0 0)" d="M447.65 463.2L493.1 463.2L493.1 463.2L493.1 485.85L493.1 485.85L447.65 485.85z" /></clipPath><clipPath id="244"><path id="" clip-rule="evenodd" transform="matrix(1 0 0 1 0 0)" d="M0 -0.9000244L595.3 -0.9000244L595.3 -0.9000244L595.3 841L595.3 841L0 841z" /></clipPath><clipPath id="245"><path id="" clip-rule="evenodd" transform="matrix(1 0 0 1 0 0)" d="M493.05 463.2L539.4 463.2L539.4 463.2L539.4 485.85L539.4 485.85L493.05 485.85z" /></clipPath><clipPath id="246"><path id="" clip-rule="evenodd" transform="matrix(1 0 0 1 0 0)" d="M0 -0.9000244L595.3 -0.9000244L595.3 -0.9000244L595.3 841L595.3 841L0 841z" /></clipPath><clipPath id="247"><path id="" clip-rule="evenodd" transform="matrix(1 0 0 1 0 0)" d="M84.3 485.85L129.7 485.85L129.7 485.85L129.7 508.5L129.7 508.5L84.3 508.5z" /></clipPath><clipPath id="248"><path id="" clip-rule="evenodd" transform="matrix(1 0 0 1 0 0)" d="M0 -0.9000244L595.3 -0.9000244L595.3 -0.9000244L595.3 841L595.3 841L0 841z" /></clipPath><clipPath id="249"><path id="" clip-rule="evenodd" transform="matrix(1 0 0 1 0 0)" d="M129.65 485.85L175.05 485.85L175.05 485.85L175.05 508.5L175.05 508.5L129.65 508.5z" /></clipPath><clipPath id="250"><path id="" clip-rule="evenodd" transform="matrix(1 0 0 1 0 0)" d="M0 -0.9000244L595.3 -0.9000244L595.3 -0.9000244L595.3 841L595.3 841L0 841z" /></clipPath><clipPath id="251"><path id="" clip-rule="evenodd" transform="matrix(1 0 0 1 0 0)" d="M175 485.85L220.4 485.85L220.4 485.85L220.4 508.5L220.4 508.5L175 508.5z" /></clipPath><clipPath id="252"><path id="" clip-rule="evenodd" transform="matrix(1 0 0 1 0 0)" d="M0 -0.9000244L595.3 -0.9000244L595.3 -0.9000244L595.3 841L595.3 841L0 841z" /></clipPath><clipPath id="253"><path id="" clip-rule="evenodd" transform="matrix(1 0 0 1 0 0)" d="M220.35 485.85L265.9 485.85L265.9 485.85L265.9 508.5L265.9 508.5L220.35 508.5z" /></clipPath><clipPath id="254"><path id="" clip-rule="evenodd" transform="matrix(1 0 0 1 0 0)" d="M0 -0.9000244L595.3 -0.9000244L595.3 -0.9000244L595.3 841L595.3 841L0 841z" /></clipPath><clipPath id="255"><path id="" clip-rule="evenodd" transform="matrix(1 0 0 1 0 0)" d="M265.85 485.85L311.4 485.85L311.4 485.85L311.4 508.5L311.4 508.5L265.85 508.5z" /></clipPath><clipPath id="256"><path id="" clip-rule="evenodd" transform="matrix(1 0 0 1 0 0)" d="M0 -0.9000244L595.3 -0.9000244L595.3 -0.9000244L595.3 841L595.3 841L0 841z" /></clipPath><clipPath id="257"><path id="" clip-rule="evenodd" transform="matrix(1 0 0 1 0 0)" d="M311.35 485.85L356.9 485.85L356.9 485.85L356.9 508.5L356.9 508.5L311.35 508.5z" /></clipPath><clipPath id="258"><path id="" clip-rule="evenodd" transform="matrix(1 0 0 1 0 0)" d="M0 -0.9000244L595.3 -0.9000244L595.3 -0.9000244L595.3 841L595.3 841L0 841z" /></clipPath><clipPath id="259"><path id="" clip-rule="evenodd" transform="matrix(1 0 0 1 0 0)" d="M356.85 485.85L402.3 485.85L402.3 485.85L402.3 508.5L402.3 508.5L356.85 508.5z" /></clipPath><clipPath id="260"><path id="" clip-rule="evenodd" transform="matrix(1 0 0 1 0 0)" d="M0 -0.9000244L595.3 -0.9000244L595.3 -0.9000244L595.3 841L595.3 841L0 841z" /></clipPath><clipPath id="261"><path id="" clip-rule="evenodd" transform="matrix(1 0 0 1 0 0)" d="M402.25 485.85L447.7 485.85L447.7 485.85L447.7 508.5L447.7 508.5L402.25 508.5z" /></clipPath><clipPath id="262"><path id="" clip-rule="evenodd" transform="matrix(1 0 0 1 0 0)" d="M0 -0.9000244L595.3 -0.9000244L595.3 -0.9000244L595.3 841L595.3 841L0 841z" /></clipPath><clipPath id="263"><path id="" clip-rule="evenodd" transform="matrix(1 0 0 1 0 0)" d="M447.65 485.85L493.1 485.85L493.1 485.85L493.1 508.5L493.1 508.5L447.65 508.5z" /></clipPath><clipPath id="264"><path id="" clip-rule="evenodd" transform="matrix(1 0 0 1 0 0)" d="M0 -0.9000244L595.3 -0.9000244L595.3 -0.9000244L595.3 841L595.3 841L0 841z" /></clipPath><clipPath id="265"><path id="" clip-rule="evenodd" transform="matrix(1 0 0 1 0 0)" d="M493.05 485.85L539.4 485.85L539.4 485.85L539.4 508.5L539.4 508.5L493.05 508.5z" /></clipPath><clipPath id="266"><path id="" clip-rule="evenodd" transform="matrix(1 0 0 1 0 0)" d="M0 -0.9000244L595.3 -0.9000244L595.3 -0.9000244L595.3 841L595.3 841L0 841z" /></clipPath><clipPath id="267"><path id="" clip-rule="evenodd" transform="matrix(1 0 0 1 0 0)" d="M84.3 508.5L129.7 508.5L129.7 508.5L129.7 531.15L129.7 531.15L84.3 531.15z" /></clipPath><clipPath id="268"><path id="" clip-rule="evenodd" transform="matrix(1 0 0 1 0 0)" d="M0 -0.9000244L595.3 -0.9000244L595.3 -0.9000244L595.3 841L595.3 841L0 841z" /></clipPath><clipPath id="269"><path id="" clip-rule="evenodd" transform="matrix(1 0 0 1 0 0)" d="M129.65 508.5L175.05 508.5L175.05 508.5L175.05 531.15L175.05 531.15L129.65 531.15z" /></clipPath><clipPath id="270"><path id="" clip-rule="evenodd" transform="matrix(1 0 0 1 0 0)" d="M0 -0.9000244L595.3 -0.9000244L595.3 -0.9000244L595.3 841L595.3 841L0 841z" /></clipPath><clipPath id="271"><path id="" clip-rule="evenodd" transform="matrix(1 0 0 1 0 0)" d="M175 508.5L220.4 508.5L220.4 508.5L220.4 531.15L220.4 531.15L175 531.15z" /></clipPath><clipPath id="272"><path id="" clip-rule="evenodd" transform="matrix(1 0 0 1 0 0)" d="M0 -0.9000244L595.3 -0.9000244L595.3 -0.9000244L595.3 841L595.3 841L0 841z" /></clipPath><clipPath id="273"><path id="" clip-rule="evenodd" transform="matrix(1 0 0 1 0 0)" d="M220.35 508.5L265.9 508.5L265.9 508.5L265.9 531.15L265.9 531.15L220.35 531.15z" /></clipPath><clipPath id="274"><path id="" clip-rule="evenodd" transform="matrix(1 0 0 1 0 0)" d="M0 -0.9000244L595.3 -0.9000244L595.3 -0.9000244L595.3 841L595.3 841L0 841z" /></clipPath><clipPath id="275"><path id="" clip-rule="evenodd" transform="matrix(1 0 0 1 0 0)" d="M265.85 508.5L311.4 508.5L311.4 508.5L311.4 531.15L311.4 531.15L265.85 531.15z" /></clipPath><clipPath id="276"><path id="" clip-rule="evenodd" transform="matrix(1 0 0 1 0 0)" d="M0 -0.9000244L595.3 -0.9000244L595.3 -0.9000244L595.3 841L595.3 841L0 841z" /></clipPath><clipPath id="277"><path id="" clip-rule="evenodd" transform="matrix(1 0 0 1 0 0)" d="M311.35 508.5L356.9 508.5L356.9 508.5L356.9 531.15L356.9 531.15L311.35 531.15z" /></clipPath><clipPath id="278"><path id="" clip-rule="evenodd" transform="matrix(1 0 0 1 0 0)" d="M0 -0.9000244L595.3 -0.9000244L595.3 -0.9000244L595.3 841L595.3 841L0 841z" /></clipPath><clipPath id="279"><path id="" clip-rule="evenodd" transform="matrix(1 0 0 1 0 0)" d="M356.85 508.5L402.3 508.5L402.3 508.5L402.3 531.15L402.3 531.15L356.85 531.15z" /></clipPath><clipPath id="280"><path id="" clip-rule="evenodd" transform="matrix(1 0 0 1 0 0)" d="M0 -0.9000244L595.3 -0.9000244L595.3 -0.9000244L595.3 841L595.3 841L0 841z" /></clipPath><clipPath id="281"><path id="" clip-rule="evenodd" transform="matrix(1 0 0 1 0 0)" d="M402.25 508.5L447.7 508.5L447.7 508.5L447.7 531.15L447.7 531.15L402.25 531.15z" /></clipPath><clipPath id="282"><path id="" clip-rule="evenodd" transform="matrix(1 0 0 1 0 0)" d="M0 -0.9000244L595.3 -0.9000244L595.3 -0.9000244L595.3 841L595.3 841L0 841z" /></clipPath><clipPath id="283"><path id="" clip-rule="evenodd" transform="matrix(1 0 0 1 0 0)" d="M447.65 508.5L493.1 508.5L493.1 508.5L493.1 531.15L493.1 531.15L447.65 531.15z" /></clipPath><clipPath id="284"><path id="" clip-rule="evenodd" transform="matrix(1 0 0 1 0 0)" d="M0 -0.9000244L595.3 -0.9000244L595.3 -0.9000244L595.3 841L595.3 841L0 841z" /></clipPath><clipPath id="285"><path id="" clip-rule="evenodd" transform="matrix(1 0 0 1 0 0)" d="M493.05 508.5L539.4 508.5L539.4 508.5L539.4 531.15L539.4 531.15L493.05 531.15z" /></clipPath><clipPath id="286"><path id="" clip-rule="evenodd" transform="matrix(1 0 0 1 0 0)" d="M0 -0.9000244L595.3 -0.9000244L595.3 -0.9000244L595.3 841L595.3 841L0 841z" /></clipPath><clipPath id="287"><path id="" clip-rule="evenodd" transform="matrix(1 0 0 1 0 0)" d="M84.3 531.15L129.7 531.15L129.7 531.15L129.7 553.8L129.7 553.8L84.3 553.8z" /></clipPath><clipPath id="288"><path id="" clip-rule="evenodd" transform="matrix(1 0 0 1 0 0)" d="M0 -0.9000244L595.3 -0.9000244L595.3 -0.9000244L595.3 841L595.3 841L0 841z" /></clipPath><clipPath id="289"><path id="" clip-rule="evenodd" transform="matrix(1 0 0 1 0 0)" d="M129.65 531.15L175.05 531.15L175.05 531.15L175.05 553.8L175.05 553.8L129.65 553.8z" /></clipPath><clipPath id="290"><path id="" clip-rule="evenodd" transform="matrix(1 0 0 1 0 0)" d="M0 -0.9000244L595.3 -0.9000244L595.3 -0.9000244L595.3 841L595.3 841L0 841z" /></clipPath><clipPath id="291"><path id="" clip-rule="evenodd" transform="matrix(1 0 0 1 0 0)" d="M175 531.15L220.4 531.15L220.4 531.15L220.4 553.8L220.4 553.8L175 553.8z" /></clipPath><clipPath id="292"><path id="" clip-rule="evenodd" transform="matrix(1 0 0 1 0 0)" d="M0 -0.9000244L595.3 -0.9000244L595.3 -0.9000244L595.3 841L595.3 841L0 841z" /></clipPath><clipPath id="293"><path id="" clip-rule="evenodd" transform="matrix(1 0 0 1 0 0)" d="M220.35 531.15L265.9 531.15L265.9 531.15L265.9 553.8L265.9 553.8L220.35 553.8z" /></clipPath><clipPath id="294"><path id="" clip-rule="evenodd" transform="matrix(1 0 0 1 0 0)" d="M0 -0.9000244L595.3 -0.9000244L595.3 -0.9000244L595.3 841L595.3 841L0 841z" /></clipPath><clipPath id="295"><path id="" clip-rule="evenodd" transform="matrix(1 0 0 1 0 0)" d="M265.85 531.15L311.4 531.15L311.4 531.15L311.4 553.8L311.4 553.8L265.85 553.8z" /></clipPath><clipPath id="296"><path id="" clip-rule="evenodd" transform="matrix(1 0 0 1 0 0)" d="M0 -0.9000244L595.3 -0.9000244L595.3 -0.9000244L595.3 841L595.3 841L0 841z" /></clipPath><clipPath id="297"><path id="" clip-rule="evenodd" transform="matrix(1 0 0 1 0 0)" d="M311.35 531.15L356.9 531.15L356.9 531.15L356.9 553.8L356.9 553.8L311.35 553.8z" /></clipPath><clipPath id="298"><path id="" clip-rule="evenodd" transform="matrix(1 0 0 1 0 0)" d="M0 -0.9000244L595.3 -0.9000244L595.3 -0.9000244L595.3 841L595.3 841L0 841z" /></clipPath><clipPath id="299"><path id="" clip-rule="evenodd" transform="matrix(1 0 0 1 0 0)" d="M356.85 531.15L402.3 531.15L402.3 531.15L402.3 553.8L402.3 553.8L356.85 553.8z" /></clipPath><clipPath id="300"><path id="" clip-rule="evenodd" transform="matrix(1 0 0 1 0 0)" d="M0 -0.9000244L595.3 -0.9000244L595.3 -0.9000244L595.3 841L595.3 841L0 841z" /></clipPath><clipPath id="301"><path id="" clip-rule="evenodd" transform="matrix(1 0 0 1 0 0)" d="M402.25 531.15L447.7 531.15L447.7 531.15L447.7 553.8L447.7 553.8L402.25 553.8z" /></clipPath><clipPath id="302"><path id="" clip-rule="evenodd" transform="matrix(1 0 0 1 0 0)" d="M0 -0.9000244L595.3 -0.9000244L595.3 -0.9000244L595.3 841L595.3 841L0 841z" /></clipPath><clipPath id="303"><path id="" clip-rule="evenodd" transform="matrix(1 0 0 1 0 0)" d="M447.65 531.15L493.1 531.15L493.1 531.15L493.1 553.8L493.1 553.8L447.65 553.8z" /></clipPath><clipPath id="304"><path id="" clip-rule="evenodd" transform="matrix(1 0 0 1 0 0)" d="M0 -0.9000244L595.3 -0.9000244L595.3 -0.9000244L595.3 841L595.3 841L0 841z" /></clipPath><clipPath id="305"><path id="" clip-rule="evenodd" transform="matrix(1 0 0 1 0 0)" d="M493.05 531.15L539.4 531.15L539.4 531.15L539.4 553.8L539.4 553.8L493.05 553.8z" /></clipPath><clipPath id="306"><path id="" clip-rule="evenodd" transform="matrix(1 0 0 1 0 0)" d="M0 -0.9000244L595.3 -0.9000244L595.3 -0.9000244L595.3 841L595.3 841L0 841z" /></clipPath><clipPath id="307"><path id="" clip-rule="evenodd" transform="matrix(1 0 0 1 0 0)" d="M84.3 553.8L129.7 553.8L129.7 553.8L129.7 576.45L129.7 576.45L84.3 576.45z" /></clipPath><clipPath id="308"><path id="" clip-rule="evenodd" transform="matrix(1 0 0 1 0 0)" d="M0 -0.9000244L595.3 -0.9000244L595.3 -0.9000244L595.3 841L595.3 841L0 841z" /></clipPath><clipPath id="309"><path id="" clip-rule="evenodd" transform="matrix(1 0 0 1 0 0)" d="M129.65 553.8L175.05 553.8L175.05 553.8L175.05 576.45L175.05 576.45L129.65 576.45z" /></clipPath><clipPath id="310"><path id="" clip-rule="evenodd" transform="matrix(1 0 0 1 0 0)" d="M0 -0.9000244L595.3 -0.9000244L595.3 -0.9000244L595.3 841L595.3 841L0 841z" /></clipPath><clipPath id="311"><path id="" clip-rule="evenodd" transform="matrix(1 0 0 1 0 0)" d="M175 553.8L220.4 553.8L220.4 553.8L220.4 576.45L220.4 576.45L175 576.45z" /></clipPath><clipPath id="312"><path id="" clip-rule="evenodd" transform="matrix(1 0 0 1 0 0)" d="M0 -0.9000244L595.3 -0.9000244L595.3 -0.9000244L595.3 841L595.3 841L0 841z" /></clipPath><clipPath id="313"><path id="" clip-rule="evenodd" transform="matrix(1 0 0 1 0 0)" d="M220.35 553.8L265.9 553.8L265.9 553.8L265.9 576.45L265.9 576.45L220.35 576.45z" /></clipPath><clipPath id="314"><path id="" clip-rule="evenodd" transform="matrix(1 0 0 1 0 0)" d="M0 -0.9000244L595.3 -0.9000244L595.3 -0.9000244L595.3 841L595.3 841L0 841z" /></clipPath><clipPath id="315"><path id="" clip-rule="evenodd" transform="matrix(1 0 0 1 0 0)" d="M265.85 553.8L311.4 553.8L311.4 553.8L311.4 576.45L311.4 576.45L265.85 576.45z" /></clipPath><clipPath id="316"><path id="" clip-rule="evenodd" transform="matrix(1 0 0 1 0 0)" d="M0 -0.9000244L595.3 -0.9000244L595.3 -0.9000244L595.3 841L595.3 841L0 841z" /></clipPath><clipPath id="317"><path id="" clip-rule="evenodd" transform="matrix(1 0 0 1 0 0)" d="M311.35 553.8L356.9 553.8L356.9 553.8L356.9 576.45L356.9 576.45L311.35 576.45z" /></clipPath><clipPath id="318"><path id="" clip-rule="evenodd" transform="matrix(1 0 0 1 0 0)" d="M0 -0.9000244L595.3 -0.9000244L595.3 -0.9000244L595.3 841L595.3 841L0 841z" /></clipPath><clipPath id="319"><path id="" clip-rule="evenodd" transform="matrix(1 0 0 1 0 0)" d="M356.85 553.8L402.3 553.8L402.3 553.8L402.3 576.45L402.3 576.45L356.85 576.45z" /></clipPath><clipPath id="320"><path id="" clip-rule="evenodd" transform="matrix(1 0 0 1 0 0)" d="M0 -0.9000244L595.3 -0.9000244L595.3 -0.9000244L595.3 841L595.3 841L0 841z" /></clipPath><clipPath id="321"><path id="" clip-rule="evenodd" transform="matrix(1 0 0 1 0 0)" d="M402.25 553.8L447.7 553.8L447.7 553.8L447.7 576.45L447.7 576.45L402.25 576.45z" /></clipPath><clipPath id="322"><path id="" clip-rule="evenodd" transform="matrix(1 0 0 1 0 0)" d="M0 -0.9000244L595.3 -0.9000244L595.3 -0.9000244L595.3 841L595.3 841L0 841z" /></clipPath><clipPath id="323"><path id="" clip-rule="evenodd" transform="matrix(1 0 0 1 0 0)" d="M447.65 553.8L493.1 553.8L493.1 553.8L493.1 576.45L493.1 576.45L447.65 576.45z" /></clipPath><clipPath id="324"><path id="" clip-rule="evenodd" transform="matrix(1 0 0 1 0 0)" d="M0 -0.9000244L595.3 -0.9000244L595.3 -0.9000244L595.3 841L595.3 841L0 841z" /></clipPath><clipPath id="325"><path id="" clip-rule="evenodd" transform="matrix(1 0 0 1 0 0)" d="M493.05 553.8L539.4 553.8L539.4 553.8L539.4 576.45L539.4 576.45L493.05 576.45z" /></clipPath><clipPath id="326"><path id="" clip-rule="evenodd" transform="matrix(1 0 0 1 0 0)" d="M0 -0.9000244L595.3 -0.9000244L595.3 -0.9000244L595.3 841L595.3 841L0 841z" /></clipPath><clipPath id="327"><path id="" clip-rule="evenodd" transform="matrix(1 0 0 1 0 0)" d="M84.3 576.45L129.7 576.45L129.7 576.45L129.7 599.1L129.7 599.1L84.3 599.1z" /></clipPath><clipPath id="328"><path id="" clip-rule="evenodd" transform="matrix(1 0 0 1 0 0)" d="M0 -0.9000244L595.3 -0.9000244L595.3 -0.9000244L595.3 841L595.3 841L0 841z" /></clipPath><clipPath id="329"><path id="" clip-rule="evenodd" transform="matrix(1 0 0 1 0 0)" d="M129.65 576.45L175.05 576.45L175.05 576.45L175.05 599.1L175.05 599.1L129.65 599.1z" /></clipPath><clipPath id="330"><path id="" clip-rule="evenodd" transform="matrix(1 0 0 1 0 0)" d="M0 -0.9000244L595.3 -0.9000244L595.3 -0.9000244L595.3 841L595.3 841L0 841z" /></clipPath><clipPath id="331"><path id="" clip-rule="evenodd" transform="matrix(1 0 0 1 0 0)" d="M175 576.45L220.4 576.45L220.4 576.45L220.4 599.1L220.4 599.1L175 599.1z" /></clipPath><clipPath id="332"><path id="" clip-rule="evenodd" transform="matrix(1 0 0 1 0 0)" d="M0 -0.9000244L595.3 -0.9000244L595.3 -0.9000244L595.3 841L595.3 841L0 841z" /></clipPath><clipPath id="333"><path id="" clip-rule="evenodd" transform="matrix(1 0 0 1 0 0)" d="M220.35 576.45L265.9 576.45L265.9 576.45L265.9 599.1L265.9 599.1L220.35 599.1z" /></clipPath><clipPath id="334"><path id="" clip-rule="evenodd" transform="matrix(1 0 0 1 0 0)" d="M0 -0.9000244L595.3 -0.9000244L595.3 -0.9000244L595.3 841L595.3 841L0 841z" /></clipPath><clipPath id="335"><path id="" clip-rule="evenodd" transform="matrix(1 0 0 1 0 0)" d="M265.85 576.45L311.4 576.45L311.4 576.45L311.4 599.1L311.4 599.1L265.85 599.1z" /></clipPath><clipPath id="336"><path id="" clip-rule="evenodd" transform="matrix(1 0 0 1 0 0)" d="M0 -0.9000244L595.3 -0.9000244L595.3 -0.9000244L595.3 841L595.3 841L0 841z" /></clipPath><clipPath id="337"><path id="" clip-rule="evenodd" transform="matrix(1 0 0 1 0 0)" d="M311.35 576.45L356.9 576.45L356.9 576.45L356.9 599.1L356.9 599.1L311.35 599.1z" /></clipPath><clipPath id="338"><path id="" clip-rule="evenodd" transform="matrix(1 0 0 1 0 0)" d="M0 -0.9000244L595.3 -0.9000244L595.3 -0.9000244L595.3 841L595.3 841L0 841z" /></clipPath><clipPath id="339"><path id="" clip-rule="evenodd" transform="matrix(1 0 0 1 0 0)" d="M356.85 576.45L402.3 576.45L402.3 576.45L402.3 599.1L402.3 599.1L356.85 599.1z" /></clipPath><clipPath id="340"><path id="" clip-rule="evenodd" transform="matrix(1 0 0 1 0 0)" d="M0 -0.9000244L595.3 -0.9000244L595.3 -0.9000244L595.3 841L595.3 841L0 841z" /></clipPath><clipPath id="341"><path id="" clip-rule="evenodd" transform="matrix(1 0 0 1 0 0)" d="M402.25 576.45L447.7 576.45L447.7 576.45L447.7 599.1L447.7 599.1L402.25 599.1z" /></clipPath><clipPath id="342"><path id="" clip-rule="evenodd" transform="matrix(1 0 0 1 0 0)" d="M0 -0.9000244L595.3 -0.9000244L595.3 -0.9000244L595.3 841L595.3 841L0 841z" /></clipPath><clipPath id="343"><path id="" clip-rule="evenodd" transform="matrix(1 0 0 1 0 0)" d="M447.65 576.45L493.1 576.45L493.1 576.45L493.1 599.1L493.1 599.1L447.65 599.1z" /></clipPath><clipPath id="344"><path id="" clip-rule="evenodd" transform="matrix(1 0 0 1 0 0)" d="M0 -0.9000244L595.3 -0.9000244L595.3 -0.9000244L595.3 841L595.3 841L0 841z" /></clipPath><clipPath id="345"><path id="" clip-rule="evenodd" transform="matrix(1 0 0 1 0 0)" d="M493.05 576.45L539.4 576.45L539.4 576.45L539.4 599.1L539.4 599.1L493.05 599.1z" /></clipPath><clipPath id="346"><path id="" clip-rule="evenodd" transform="matrix(1 0 0 1 0 0)" d="M0 -0.9000244L595.3 -0.9000244L595.3 -0.9000244L595.3 841L595.3 841L0 841z" /></clipPath><clipPath id="347"><path id="" clip-rule="evenodd" transform="matrix(1 0 0 1 0 0)" d="M84.3 599.1L129.7 599.1L129.7 599.1L129.7 621.75L129.7 621.75L84.3 621.75z" /></clipPath><clipPath id="348"><path id="" clip-rule="evenodd" transform="matrix(1 0 0 1 0 0)" d="M0 -0.9000244L595.3 -0.9000244L595.3 -0.9000244L595.3 841L595.3 841L0 841z" /></clipPath><clipPath id="349"><path id="" clip-rule="evenodd" transform="matrix(1 0 0 1 0 0)" d="M129.65 599.1L175.05 599.1L175.05 599.1L175.05 621.75L175.05 621.75L129.65 621.75z" /></clipPath><clipPath id="350"><path id="" clip-rule="evenodd" transform="matrix(1 0 0 1 0 0)" d="M0 -0.9000244L595.3 -0.9000244L595.3 -0.9000244L595.3 841L595.3 841L0 841z" /></clipPath><clipPath id="351"><path id="" clip-rule="evenodd" transform="matrix(1 0 0 1 0 0)" d="M175 599.1L220.4 599.1L220.4 599.1L220.4 621.75L220.4 621.75L175 621.75z" /></clipPath><clipPath id="352"><path id="" clip-rule="evenodd" transform="matrix(1 0 0 1 0 0)" d="M0 -0.9000244L595.3 -0.9000244L595.3 -0.9000244L595.3 841L595.3 841L0 841z" /></clipPath><clipPath id="353"><path id="" clip-rule="evenodd" transform="matrix(1 0 0 1 0 0)" d="M220.35 599.1L265.9 599.1L265.9 599.1L265.9 621.75L265.9 621.75L220.35 621.75z" /></clipPath><clipPath id="354"><path id="" clip-rule="evenodd" transform="matrix(1 0 0 1 0 0)" d="M0 -0.9000244L595.3 -0.9000244L595.3 -0.9000244L595.3 841L595.3 841L0 841z" /></clipPath><clipPath id="355"><path id="" clip-rule="evenodd" transform="matrix(1 0 0 1 0 0)" d="M265.85 599.1L311.4 599.1L311.4 599.1L311.4 621.75L311.4 621.75L265.85 621.75z" /></clipPath><clipPath id="356"><path id="" clip-rule="evenodd" transform="matrix(1 0 0 1 0 0)" d="M0 -0.9000244L595.3 -0.9000244L595.3 -0.9000244L595.3 841L595.3 841L0 841z" /></clipPath><clipPath id="357"><path id="" clip-rule="evenodd" transform="matrix(1 0 0 1 0 0)" d="M311.35 599.1L356.9 599.1L356.9 599.1L356.9 621.75L356.9 621.75L311.35 621.75z" /></clipPath><clipPath id="358"><path id="" clip-rule="evenodd" transform="matrix(1 0 0 1 0 0)" d="M0 -0.9000244L595.3 -0.9000244L595.3 -0.9000244L595.3 841L595.3 841L0 841z" /></clipPath><clipPath id="359"><path id="" clip-rule="evenodd" transform="matrix(1 0 0 1 0 0)" d="M356.85 599.1L402.3 599.1L402.3 599.1L402.3 621.75L402.3 621.75L356.85 621.75z" /></clipPath><clipPath id="360"><path id="" clip-rule="evenodd" transform="matrix(1 0 0 1 0 0)" d="M0 -0.9000244L595.3 -0.9000244L595.3 -0.9000244L595.3 841L595.3 841L0 841z" /></clipPath><clipPath id="361"><path id="" clip-rule="evenodd" transform="matrix(1 0 0 1 0 0)" d="M402.25 599.1L447.7 599.1L447.7 599.1L447.7 621.75L447.7 621.75L402.25 621.75z" /></clipPath><clipPath id="362"><path id="" clip-rule="evenodd" transform="matrix(1 0 0 1 0 0)" d="M0 -0.9000244L595.3 -0.9000244L595.3 -0.9000244L595.3 841L595.3 841L0 841z" /></clipPath><clipPath id="363"><path id="" clip-rule="evenodd" transform="matrix(1 0 0 1 0 0)" d="M447.65 599.1L493.1 599.1L493.1 599.1L493.1 621.75L493.1 621.75L447.65 621.75z" /></clipPath><clipPath id="364"><path id="" clip-rule="evenodd" transform="matrix(1 0 0 1 0 0)" d="M0 -0.9000244L595.3 -0.9000244L595.3 -0.9000244L595.3 841L595.3 841L0 841z" /></clipPath><clipPath id="365"><path id="" clip-rule="evenodd" transform="matrix(1 0 0 1 0 0)" d="M493.05 599.1L539.4 599.1L539.4 599.1L539.4 621.75L539.4 621.75L493.05 621.75z" /></clipPath><clipPath id="366"><path id="" clip-rule="evenodd" transform="matrix(1 0 0 1 0 0)" d="M0 -0.9000244L595.3 -0.9000244L595.3 -0.9000244L595.3 841L595.3 841L0 841z" /></clipPath><clipPath id="367"><path id="" clip-rule="evenodd" transform="matrix(1 0 0 1 0 0)" d="M84.3 621.75L129.7 621.75L129.7 621.75L129.7 645.95L129.7 645.95L84.3 645.95z" /></clipPath><clipPath id="368"><path id="" clip-rule="evenodd" transform="matrix(1 0 0 1 0 0)" d="M0 -0.9000244L595.3 -0.9000244L595.3 -0.9000244L595.3 841L595.3 841L0 841z" /></clipPath><clipPath id="369"><path id="" clip-rule="evenodd" transform="matrix(1 0 0 1 0 0)" d="M129.65 621.75L175.05 621.75L175.05 621.75L175.05 645.95L175.05 645.95L129.65 645.95z" /></clipPath><clipPath id="370"><path id="" clip-rule="evenodd" transform="matrix(1 0 0 1 0 0)" d="M0 -0.9000244L595.3 -0.9000244L595.3 -0.9000244L595.3 841L595.3 841L0 841z" /></clipPath><clipPath id="371"><path id="" clip-rule="evenodd" transform="matrix(1 0 0 1 0 0)" d="M175 621.75L220.4 621.75L220.4 621.75L220.4 645.95L220.4 645.95L175 645.95z" /></clipPath><clipPath id="372"><path id="" clip-rule="evenodd" transform="matrix(1 0 0 1 0 0)" d="M0 -0.9000244L595.3 -0.9000244L595.3 -0.9000244L595.3 841L595.3 841L0 841z" /></clipPath><clipPath id="373"><path id="" clip-rule="evenodd" transform="matrix(1 0 0 1 0 0)" d="M220.35 621.75L265.9 621.75L265.9 621.75L265.9 645.95L265.9 645.95L220.35 645.95z" /></clipPath><clipPath id="374"><path id="" clip-rule="evenodd" transform="matrix(1 0 0 1 0 0)" d="M0 -0.9000244L595.3 -0.9000244L595.3 -0.9000244L595.3 841L595.3 841L0 841z" /></clipPath><clipPath id="375"><path id="" clip-rule="evenodd" transform="matrix(1 0 0 1 0 0)" d="M265.85 621.75L311.4 621.75L311.4 621.75L311.4 645.95L311.4 645.95L265.85 645.95z" /></clipPath><clipPath id="376"><path id="" clip-rule="evenodd" transform="matrix(1 0 0 1 0 0)" d="M0 -0.9000244L595.3 -0.9000244L595.3 -0.9000244L595.3 841L595.3 841L0 841z" /></clipPath><clipPath id="377"><path id="" clip-rule="evenodd" transform="matrix(1 0 0 1 0 0)" d="M311.35 621.75L356.9 621.75L356.9 621.75L356.9 645.95L356.9 645.95L311.35 645.95z" /></clipPath><clipPath id="378"><path id="" clip-rule="evenodd" transform="matrix(1 0 0 1 0 0)" d="M0 -0.9000244L595.3 -0.9000244L595.3 -0.9000244L595.3 841L595.3 841L0 841z" /></clipPath><clipPath id="379"><path id="" clip-rule="evenodd" transform="matrix(1 0 0 1 0 0)" d="M356.85 621.75L402.3 621.75L402.3 621.75L402.3 645.95L402.3 645.95L356.85 645.95z" /></clipPath><clipPath id="380"><path id="" clip-rule="evenodd" transform="matrix(1 0 0 1 0 0)" d="M0 -0.9000244L595.3 -0.9000244L595.3 -0.9000244L595.3 841L595.3 841L0 841z" /></clipPath><clipPath id="381"><path id="" clip-rule="evenodd" transform="matrix(1 0 0 1 0 0)" d="M402.25 621.75L447.7 621.75L447.7 621.75L447.7 645.95L447.7 645.95L402.25 645.95z" /></clipPath><clipPath id="382"><path id="" clip-rule="evenodd" transform="matrix(1 0 0 1 0 0)" d="M0 -0.9000244L595.3 -0.9000244L595.3 -0.9000244L595.3 841L595.3 841L0 841z" /></clipPath><clipPath id="383"><path id="" clip-rule="evenodd" transform="matrix(1 0 0 1 0 0)" d="M447.65 621.75L493.1 621.75L493.1 621.75L493.1 645.95L493.1 645.95L447.65 645.95z" /></clipPath><clipPath id="384"><path id="" clip-rule="evenodd" transform="matrix(1 0 0 1 0 0)" d="M0 -0.9000244L595.3 -0.9000244L595.3 -0.9000244L595.3 841L595.3 841L0 841z" /></clipPath><clipPath id="385"><path id="" clip-rule="evenodd" transform="matrix(1 0 0 1 0 0)" d="M493.05 621.75L539.4 621.75L539.4 621.75L539.4 645.95L539.4 645.95L493.05 645.95z" /></clipPath><clipPath id="386"><path id="" clip-rule="evenodd" transform="matrix(1 0 0 1 0 0)" d="M0 -0.9000244L595.3 -0.9000244L595.3 -0.9000244L595.3 841L595.3 841L0 841z" /></clipPath></defs><g transform="matrix(1.333333 0 0 1.333333 0 0)"><g clip-path="url(#1)"><g clip-path="url(#2)"><path id="18" transform="matrix(1 0 0 -1 0 841)" d="M85.05 774.1L538.6 774.1L538.6 774.1L538.6 773.62L538.6 773.62L85.05 773.62z" stroke="none" fill="#000000" fill-rule="evenodd" /></g><g clip-path="url(#3)"><g clip-path="url(#4)"></g></g><g clip-path="url(#5)"></g><g clip-path="url(#6)"><g clip-path="url(#7)"></g></g><g clip-path="url(#8)"><g clip-path="url(#9)"></g></g><g clip-path="url(#10)"><g clip-path="url(#11)"></g></g><g clip-path="url(#12)"><g clip-path="url(#13)"></g></g><g clip-path="url(#14)"><g clip-path="url(#15)"></g></g><g clip-path="url(#16)"><g clip-path="url(#17)"></g></g><g clip-path="url(#18)"><g clip-path="url(#19)"></g></g><g clip-path="url(#20)"><g clip-path="url(#21)"></g></g><g clip-path="url(#22)"><g clip-path="url(#23)"></g></g><g clip-path="url(#24)"><g clip-path="url(#25)"></g></g><g clip-path="url(#26)"><g clip-path="url(#27)"></g></g><g clip-path="url(#28)"><g clip-path="url(#29)"></g></g><g clip-path="url(#30)"><g clip-path="url(#31)"></g></g><g clip-path="url(#32)"><g clip-path="url(#33)"></g></g><g clip-path="url(#34)"><g clip-path="url(#35)"></g></g><g clip-path="url(#36)"><g clip-path="url(#37)"></g></g><g clip-path="url(#38)"><g clip-path="url(#39)"></g></g><g clip-path="url(#40)"><g clip-path="url(#41)"></g></g><g clip-path="url(#42)"><g clip-path="url(#43)"></g></g><g clip-path="url(#44)"><g clip-path="url(#45)"></g></g><g clip-path="url(#46)"><g clip-path="url(#47)"></g></g><g clip-path="url(#48)"><g clip-path="url(#49)"></g></g><g clip-path="url(#50)"><g clip-path="url(#51)"></g></g><g clip-path="url(#52)"><g clip-path="url(#53)"></g></g><g clip-path="url(#54)"><g clip-path="url(#55)"></g></g><g clip-path="url(#56)"><g clip-path="url(#57)"></g></g><g clip-path="url(#58)"><g clip-path="url(#59)"></g></g><g clip-path="url(#60)"><g clip-path="url(#61)"></g></g><g clip-path="url(#62)"><g clip-path="url(#63)"></g></g><g clip-path="url(#64)"><g clip-path="url(#65)"></g></g><g clip-path="url(#66)"><g clip-path="url(#67)"></g></g><g clip-path="url(#68)"><g clip-path="url(#69)"></g></g><g clip-path="url(#70)"><g clip-path="url(#71)"></g></g><g clip-path="url(#72)"><g clip-path="url(#73)"></g></g><g clip-path="url(#74)"><g clip-path="url(#75)"></g></g><g clip-path="url(#76)"><g clip-path="url(#77)"></g></g><g clip-path="url(#78)"><g clip-path="url(#79)"></g></g><g clip-path="url(#80)"><g clip-path="url(#81)"></g></g><g clip-path="url(#82)"><g clip-path="url(#83)"></g></g><g clip-path="url(#84)"><g clip-path="url(#85)"></g></g><g clip-path="url(#86)"><g clip-path="url(#87)"></g></g><g clip-path="url(#88)"><g clip-path="url(#89)"></g></g><g clip-path="url(#90)"><g clip-path="url(#91)"></g></g><g clip-path="url(#92)"><g clip-path="url(#93)"></g></g><g clip-path="url(#94)"><g clip-path="url(#95)"></g></g><g clip-path="url(#96)"><g clip-path="url(#97)"></g></g><g clip-path="url(#98)"><g clip-path="url(#99)"></g></g><g clip-path="url(#100)"><g clip-path="url(#101)"></g></g><g clip-path="url(#102)"><g clip-path="url(#103)"></g></g><g clip-path="url(#104)"><g clip-path="url(#105)"></g></g><g clip-path="url(#106)"><g clip-path="url(#107)"></g></g><g clip-path="url(#108)"><g clip-path="url(#109)"></g></g><g clip-path="url(#110)"><g clip-path="url(#111)"></g></g><g clip-path="url(#112)"><g clip-path="url(#113)"></g></g><g clip-path="url(#114)"><g clip-path="url(#115)"></g></g><g clip-path="url(#116)"><g clip-path="url(#117)"></g></g><g clip-path="url(#118)"><g clip-path="url(#119)"></g></g><g clip-path="url(#120)"><g clip-path="url(#121)"></g></g><g clip-path="url(#122)"><g clip-path="url(#123)"></g></g><g clip-path="url(#124)"><g clip-path="url(#125)"></g></g><g clip-path="url(#126)"><g clip-path="url(#127)"></g></g><g clip-path="url(#128)"><g clip-path="url(#129)"></g></g><g clip-path="url(#130)"><g clip-path="url(#131)"></g></g><g clip-path="url(#132)"><g clip-path="url(#133)"></g></g><g clip-path="url(#134)"><g clip-path="url(#135)"></g></g><g clip-path="url(#136)"><g clip-path="url(#137)"></g></g><g clip-path="url(#138)"><g clip-path="url(#139)"></g></g><g clip-path="url(#140)"><g clip-path="url(#141)"></g></g><g clip-path="url(#142)"><g clip-path="url(#143)"></g></g><g clip-path="url(#144)"><g clip-path="url(#145)"></g></g><g clip-path="url(#146)"><g clip-path="url(#147)"></g></g><g clip-path="url(#148)"><g clip-path="url(#149)"></g></g><g clip-path="url(#150)"><g clip-path="url(#151)"></g></g><g clip-path="url(#152)"><g clip-path="url(#153)"></g></g><g clip-path="url(#154)"><g clip-path="url(#155)"></g></g><g clip-path="url(#156)"><g clip-path="url(#157)"></g></g><g clip-path="url(#158)"><g clip-path="url(#159)"></g></g><g clip-path="url(#160)"><g clip-path="url(#161)"></g></g><g clip-path="url(#162)"><g clip-path="url(#163)"></g></g><g clip-path="url(#164)"><g clip-path="url(#165)"></g></g><g clip-path="url(#166)"><g clip-path="url(#167)"></g></g><g clip-path="url(#168)"><g clip-path="url(#169)"></g></g><g clip-path="url(#170)"><g clip-path="url(#171)"></g></g><g clip-path="url(#172)"><g clip-path="url(#173)"></g></g><g clip-path="url(#174)"><g clip-path="url(#175)"></g></g><g clip-path="url(#176)"><g clip-path="url(#177)"></g></g><g clip-path="url(#178)"><g clip-path="url(#179)"></g></g><g clip-path="url(#180)"><g clip-path="url(#181)"></g></g><g clip-path="url(#182)"><g clip-path="url(#183)"></g></g><g clip-path="url(#184)"><g clip-path="url(#185)"></g></g><g clip-path="url(#186)"><g clip-path="url(#187)"></g></g><g clip-path="url(#188)"><g clip-path="url(#189)"></g></g><g clip-path="url(#190)"><g clip-path="url(#191)"></g></g><g clip-path="url(#192)"><g clip-path="url(#193)"></g></g><g clip-path="url(#194)"><g clip-path="url(#195)"></g></g><g clip-path="url(#196)"><g clip-path="url(#197)"></g></g><g clip-path="url(#198)"><g clip-path="url(#199)"></g></g><g clip-path="url(#200)"><g clip-path="url(#201)"></g></g><g clip-path="url(#202)"><g clip-path="url(#203)"></g></g><g clip-path="url(#204)"><g clip-path="url(#205)"></g></g><g clip-path="url(#206)"><g clip-path="url(#207)"></g></g><g clip-path="url(#208)"><g clip-path="url(#209)"></g></g><g clip-path="url(#210)"><g clip-path="url(#211)"></g></g><g clip-path="url(#212)"><g clip-path="url(#213)"></g></g><g clip-path="url(#214)"><g clip-path="url(#215)"></g></g><g clip-path="url(#216)"><g clip-path="url(#217)"></g></g><g clip-path="url(#218)"><g clip-path="url(#219)"></g></g><g clip-path="url(#220)"><g clip-path="url(#221)"></g></g><g clip-path="url(#222)"><g clip-path="url(#223)"></g></g><g clip-path="url(#224)"><g clip-path="url(#225)"></g></g><g clip-path="url(#226)"><g clip-path="url(#227)"></g></g><g clip-path="url(#228)"><g clip-path="url(#229)"></g></g><g clip-path="url(#230)"><g clip-path="url(#231)"></g></g><g clip-path="url(#232)"><g clip-path="url(#233)"></g></g><g clip-path="url(#234)"><g clip-path="url(#235)"></g></g><g clip-path="url(#236)"><g clip-path="url(#237)"></g></g><g clip-path="url(#238)"><g clip-path="url(#239)"></g></g><g clip-path="url(#240)"><g clip-path="url(#241)"></g></g><g clip-path="url(#242)"><g clip-path="url(#243)"></g></g><g clip-path="url(#244)"><g clip-path="url(#245)"></g></g><g clip-path="url(#246)"><g clip-path="url(#247)"></g></g><g clip-path="url(#248)"><g clip-path="url(#249)"></g></g><g clip-path="url(#250)"><g clip-path="url(#251)"></g></g><g clip-path="url(#252)"><g clip-path="url(#253)"></g></g><g clip-path="url(#254)"><g clip-path="url(#255)"></g></g><g clip-path="url(#256)"><g clip-path="url(#257)"></g></g><g clip-path="url(#258)"><g clip-path="url(#259)"></g></g><g clip-path="url(#260)"><g clip-path="url(#261)"></g></g><g clip-path="url(#262)"><g clip-path="url(#263)"></g></g><g clip-path="url(#264)"><g clip-path="url(#265)"></g></g><g clip-path="url(#266)"><g clip-path="url(#267)"></g></g><g clip-path="url(#268)"><g clip-path="url(#269)"></g></g><g clip-path="url(#270)"><g clip-path="url(#271)"></g></g><g clip-path="url(#272)"><g clip-path="url(#273)"></g></g><g clip-path="url(#274)"><g clip-path="url(#275)"></g></g><g clip-path="url(#276)"><g clip-path="url(#277)"></g></g><g clip-path="url(#278)"><g clip-path="url(#279)"></g></g><g clip-path="url(#280)"><g clip-path="url(#281)"></g></g><g clip-path="url(#282)"><g clip-path="url(#283)"></g></g><g clip-path="url(#284)"><g clip-path="url(#285)"></g></g><g clip-path="url(#286)"><g clip-path="url(#287)"></g></g><g clip-path="url(#288)"><g clip-path="url(#289)"></g></g><g clip-path="url(#290)"><g clip-path="url(#291)"></g></g><g clip-path="url(#292)"><g clip-path="url(#293)"></g></g><g clip-path="url(#294)"><g clip-path="url(#295)"></g></g><g clip-path="url(#296)"><g clip-path="url(#297)"></g></g><g clip-path="url(#298)"><g clip-path="url(#299)"></g></g><g clip-path="url(#300)"><g clip-path="url(#301)"></g></g><g clip-path="url(#302)"><g clip-path="url(#303)"></g></g><g clip-path="url(#304)"><g clip-path="url(#305)"></g></g><g clip-path="url(#306)"><g clip-path="url(#307)"></g></g><g clip-path="url(#308)"><g clip-path="url(#309)"></g></g><g clip-path="url(#310)"><g clip-path="url(#311)"></g></g><g clip-path="url(#312)"><g clip-path="url(#313)"></g></g><g clip-path="url(#314)"><g clip-path="url(#315)"></g></g><g clip-path="url(#316)"><g clip-path="url(#317)"></g></g><g clip-path="url(#318)"><g clip-path="url(#319)"></g></g><g clip-path="url(#320)"><g clip-path="url(#321)"></g></g><g clip-path="url(#322)"><g clip-path="url(#323)"></g></g><g clip-path="url(#324)"><g clip-path="url(#325)"></g></g><g clip-path="url(#326)"><g clip-path="url(#327)"></g></g><g clip-path="url(#328)"><g clip-path="url(#329)"></g></g><g clip-path="url(#330)"><g clip-path="url(#331)"></g></g><g clip-path="url(#332)"><g clip-path="url(#333)"></g></g><g clip-path="url(#334)"><g clip-path="url(#335)"></g></g><g clip-path="url(#336)"><g clip-path="url(#337)"></g></g><g clip-path="url(#338)"><g clip-path="url(#339)"></g></g><g clip-path="url(#340)"><g clip-path="url(#341)"></g></g><g clip-path="url(#342)"><g clip-path="url(#343)"></g></g><g clip-path="url(#344)"><g clip-path="url(#345)"></g></g><g clip-path="url(#346)"><g clip-path="url(#347)"></g></g><g clip-path="url(#348)"><g clip-path="url(#349)"></g></g><g clip-path="url(#350)"><g clip-path="url(#351)"></g></g><g clip-path="url(#352)"><g clip-path="url(#353)"></g></g><g clip-path="url(#354)"><g clip-path="url(#355)"></g></g><g clip-path="url(#356)"><g clip-path="url(#357)"></g></g><g clip-path="url(#358)"><g clip-path="url(#359)"></g></g><g clip-path="url(#360)"><g clip-path="url(#361)"></g></g><g clip-path="url(#362)"><g clip-path="url(#363)"></g></g><g clip-path="url(#364)"><g clip-path="url(#365)"></g></g><g clip-path="url(#366)"><g clip-path="url(#367)"></g></g><g clip-path="url(#368)"><g clip-path="url(#369)"></g></g><g clip-path="url(#370)"><g clip-path="url(#371)"></g></g><g clip-path="url(#372)"><g clip-path="url(#373)"></g></g><g clip-path="url(#374)"><g clip-path="url(#375)"></g></g><g clip-path="url(#376)"><g clip-path="url(#377)"></g></g><g clip-path="url(#378)"><g clip-path="url(#379)"></g></g><g clip-path="url(#380)"><g clip-path="url(#381)"></g></g><g clip-path="url(#382)"><g clip-path="url(#383)"></g></g><g clip-path="url(#384)"><g clip-path="url(#385)"></g></g><g clip-path="url(#386)"><path id="839" transform="matrix(1 0 0 -1 0 841)" d="M84.3 676.4301L539.35 676.4301" stroke="#000000" stroke-width="1.44" fill="none" /><path id="840" transform="matrix(1 0 0 -1 0 841)" d="M84.3 195.88L539.35 195.88" stroke="#000000" stroke-width="1.44" fill="none" /><path id="841" transform="matrix(1 0 0 -1 0 841)" d="M84.3 604.82L539.35 604.82" stroke="#000000" stroke-width="0.96" fill="none" /></g></g></g></svg>