<svg xmlns="http://www.w3.org/2000/svg" xmlns:xlink="http://www.w3.org/1999/xlink" id="body_1" preserveAspectRatio="xMinYMin meet" viewBox="0 0 793 1121"><defs><clipPath id="1"><path id="" clip-rule="evenodd" transform="matrix(1 0 0 1 0 0)" d="M0 841L0 -0.9000244L0 -0.9000244L595.3 -0.9000244L595.3 -0.9000244L595.3 841L595.3 841L0 841z" /></clipPath><clipPath id="2"><path id="" clip-rule="evenodd" transform="matrix(1 0 0 1 0 0)" d="M0 -0.9000244L595.3 -0.9000244L595.3 -0.9000244L595.3 841L595.3 841L0 841z" /></clipPath><clipPath id="3"><path id="" clip-rule="evenodd" transform="matrix(1 0 0 1 0 0)" d="M0 -0.9000244L595.3 -0.9000244L595.3 -0.9000244L595.3 841L595.3 841L0 841z" /></clipPath><clipPath id="4"><path id="" clip-rule="evenodd" transform="matrix(1 0 0 1 0 0)" d="M527.85 787.75L538.35 787.75L538.35 787.75L538.35 799.8L538.35 799.8L527.85 799.8z" /></clipPath><clipPath id="5"><path id="" clip-rule="evenodd" transform="matrix(1 0 0 1 0 0)" d="M0 -0.9000244L595.3 -0.9000244L595.3 -0.9000244L595.3 841L595.3 841L0 841z" /></clipPath><clipPath id="6"><path id="" clip-rule="evenodd" transform="matrix(1 0 0 1 0 0)" d="M0 -0.9000244L595.3 -0.9000244L595.3 -0.9000244L595.3 841L595.3 841L0 841z" /></clipPath><clipPath id="7"><path id="" clip-rule="evenodd" transform="matrix(1 0 0 1 0 0)" d="M79.65 103.85L146 103.85L146 103.85L146 127.25L146 127.25L79.65 127.25z" /></clipPath><clipPath id="8"><path id="" clip-rule="evenodd" transform="matrix(1 0 0 1 0 0)" d="M0 -0.9000244L595.3 -0.9000244L595.3 -0.9000244L595.3 841L595.3 841L0 841z" /></clipPath><clipPath id="9"><path id="" clip-rule="evenodd" transform="matrix(1 0 0 1 0 0)" d="M145.95 103.85L212.3 103.85L212.3 103.85L212.3 127.25L212.3 127.25L145.95 127.25z" /></clipPath><clipPath id="10"><path id="" clip-rule="evenodd" transform="matrix(1 0 0 1 0 0)" d="M0 -0.9000244L595.3 -0.9000244L595.3 -0.9000244L595.3 841L595.3 841L0 841z" /></clipPath><clipPath id="11"><path id="" clip-rule="evenodd" transform="matrix(1 0 0 1 0 0)" d="M212.25 103.85L278.6 103.85L278.6 103.85L278.6 127.25L278.6 127.25L212.25 127.25z" /></clipPath><clipPath id="12"><path id="" clip-rule="evenodd" transform="matrix(1 0 0 1 0 0)" d="M0 -0.9000244L595.3 -0.9000244L595.3 -0.9000244L595.3 841L595.3 841L0 841z" /></clipPath><clipPath id="13"><path id="" clip-rule="evenodd" transform="matrix(1 0 0 1 0 0)" d="M278.55 103.85L344.9 103.85L344.9 103.85L344.9 127.25L344.9 127.25L278.55 127.25z" /></clipPath><clipPath id="14"><path id="" clip-rule="evenodd" transform="matrix(1 0 0 1 0 0)" d="M0 -0.9000244L595.3 -0.9000244L595.3 -0.9000244L595.3 841L595.3 841L0 841z" /></clipPath><clipPath id="15"><path id="" clip-rule="evenodd" transform="matrix(1 0 0 1 0 0)" d="M344.85 103.85L411.2 103.85L411.2 103.85L411.2 127.25L411.2 127.25L344.85 127.25z" /></clipPath><clipPath id="16"><path id="" clip-rule="evenodd" transform="matrix(1 0 0 1 0 0)" d="M0 -0.9000244L595.3 -0.9000244L595.3 -0.9000244L595.3 841L595.3 841L0 841z" /></clipPath><clipPath id="17"><path id="" clip-rule="evenodd" transform="matrix(1 0 0 1 0 0)" d="M411.15 103.85L477.5 103.85L477.5 103.85L477.5 127.25L477.5 127.25L411.15 127.25z" /></clipPath><clipPath id="18"><path id="" clip-rule="evenodd" transform="matrix(1 0 0 1 0 0)" d="M0 -0.9000244L595.3 -0.9000244L595.3 -0.9000244L595.3 841L595.3 841L0 841z" /></clipPath><clipPath id="19"><path id="" clip-rule="evenodd" transform="matrix(1 0 0 1 0 0)" d="M477.45 103.85L543.95 103.85L543.95 103.85L543.95 127.25L543.95 127.25L477.45 127.25z" /></clipPath><clipPath id="20"><path id="" clip-rule="evenodd" transform="matrix(1 0 0 1 0 0)" d="M0 -0.9000244L595.3 -0.9000244L595.3 -0.9000244L595.3 841L595.3 841L0 841z" /></clipPath><clipPath id="21"><path id="" clip-rule="evenodd" transform="matrix(1 0 0 1 0 0)" d="M79.65 127.25L146 127.25L146 127.25L146 150.15L146 150.15L79.65 150.15z" /></clipPath><clipPath id="22"><path id="" clip-rule="evenodd" transform="matrix(1 0 0 1 0 0)" d="M0 -0.9000244L595.3 -0.9000244L595.3 -0.9000244L595.3 841L595.3 841L0 841z" /></clipPath><clipPath id="23"><path id="" clip-rule="evenodd" transform="matrix(1 0 0 1 0 0)" d="M145.95 127.25L212.3 127.25L212.3 127.25L212.3 150.15L212.3 150.15L145.95 150.15z" /></clipPath><clipPath id="24"><path id="" clip-rule="evenodd" transform="matrix(1 0 0 1 0 0)" d="M0 -0.9000244L595.3 -0.9000244L595.3 -0.9000244L595.3 841L595.3 841L0 841z" /></clipPath><clipPath id="25"><path id="" clip-rule="evenodd" transform="matrix(1 0 0 1 0 0)" d="M212.25 127.25L278.6 127.25L278.6 127.25L278.6 150.15L278.6 150.15L212.25 150.15z" /></clipPath><clipPath id="26"><path id="" clip-rule="evenodd" transform="matrix(1 0 0 1 0 0)" d="M0 -0.9000244L595.3 -0.9000244L595.3 -0.9000244L595.3 841L595.3 841L0 841z" /></clipPath><clipPath id="27"><path id="" clip-rule="evenodd" transform="matrix(1 0 0 1 0 0)" d="M278.55 127.25L344.9 127.25L344.9 127.25L344.9 150.15L344.9 150.15L278.55 150.15z" /></clipPath><clipPath id="28"><path id="" clip-rule="evenodd" transform="matrix(1 0 0 1 0 0)" d="M0 -0.9000244L595.3 -0.9000244L595.3 -0.9000244L595.3 841L595.3 841L0 841z" /></clipPath><clipPath id="29"><path id="" clip-rule="evenodd" transform="matrix(1 0 0 1 0 0)" d="M344.85 127.25L411.2 127.25L411.2 127.25L411.2 150.15L411.2 150.15L344.85 150.15z" /></clipPath><clipPath id="30"><path id="" clip-rule="evenodd" transform="matrix(1 0 0 1 0 0)" d="M0 -0.9000244L595.3 -0.9000244L595.3 -0.9000244L595.3 841L595.3 841L0 841z" /></clipPath><clipPath id="31"><path id="" clip-rule="evenodd" transform="matrix(1 0 0 1 0 0)" d="M411.15 127.25L477.5 127.25L477.5 127.25L477.5 150.15L477.5 150.15L411.15 150.15z" /></clipPath><clipPath id="32"><path id="" clip-rule="evenodd" transform="matrix(1 0 0 1 0 0)" d="M0 -0.9000244L595.3 -0.9000244L595.3 -0.9000244L595.3 841L595.3 841L0 841z" /></clipPath><clipPath id="33"><path id="" clip-rule="evenodd" transform="matrix(1 0 0 1 0 0)" d="M477.45 127.25L543.95 127.25L543.95 127.25L543.95 150.15L543.95 150.15L477.45 150.15z" /></clipPath><clipPath id="34"><path id="" clip-rule="evenodd" transform="matrix(1 0 0 1 0 0)" d="M0 -0.9000244L595.3 -0.9000244L595.3 -0.9000244L595.3 841L595.3 841L0 841z" /></clipPath><clipPath id="35"><path id="" clip-rule="evenodd" transform="matrix(1 0 0 1 0 0)" d="M79.65 150.15L146 150.15L146 150.15L146 172.05L146 172.05L79.65 172.05z" /></clipPath><clipPath id="36"><path id="" clip-rule="evenodd" transform="matrix(1 0 0 1 0 0)" d="M0 -0.9000244L595.3 -0.9000244L595.3 -0.9000244L595.3 841L595.3 841L0 841z" /></clipPath><clipPath id="37"><path id="" clip-rule="evenodd" transform="matrix(1 0 0 1 0 0)" d="M145.95 150.15L212.3 150.15L212.3 150.15L212.3 172.05L212.3 172.05L145.95 172.05z" /></clipPath><clipPath id="38"><path id="" clip-rule="evenodd" transform="matrix(1 0 0 1 0 0)" d="M0 -0.9000244L595.3 -0.9000244L595.3 -0.9000244L595.3 841L595.3 841L0 841z" /></clipPath><clipPath id="39"><path id="" clip-rule="evenodd" transform="matrix(1 0 0 1 0 0)" d="M212.25 150.15L278.6 150.15L278.6 150.15L278.6 172.05L278.6 172.05L212.25 172.05z" /></clipPath><clipPath id="40"><path id="" clip-rule="evenodd" transform="matrix(1 0 0 1 0 0)" d="M0 -0.9000244L595.3 -0.9000244L595.3 -0.9000244L595.3 841L595.3 841L0 841z" /></clipPath><clipPath id="41"><path id="" clip-rule="evenodd" transform="matrix(1 0 0 1 0 0)" d="M278.55 150.15L344.9 150.15L344.9 150.15L344.9 172.05L344.9 172.05L278.55 172.05z" /></clipPath><clipPath id="42"><path id="" clip-rule="evenodd" transform="matrix(1 0 0 1 0 0)" d="M0 -0.9000244L595.3 -0.9000244L595.3 -0.9000244L595.3 841L595.3 841L0 841z" /></clipPath><clipPath id="43"><path id="" clip-rule="evenodd" transform="matrix(1 0 0 1 0 0)" d="M344.85 150.15L411.2 150.15L411.2 150.15L411.2 172.05L411.2 172.05L344.85 172.05z" /></clipPath><clipPath id="44"><path id="" clip-rule="evenodd" transform="matrix(1 0 0 1 0 0)" d="M0 -0.9000244L595.3 -0.9000244L595.3 -0.9000244L595.3 841L595.3 841L0 841z" /></clipPath><clipPath id="45"><path id="" clip-rule="evenodd" transform="matrix(1 0 0 1 0 0)" d="M411.15 150.15L477.5 150.15L477.5 150.15L477.5 172.05L477.5 172.05L411.15 172.05z" /></clipPath><clipPath id="46"><path id="" clip-rule="evenodd" transform="matrix(1 0 0 1 0 0)" d="M0 -0.9000244L595.3 -0.9000244L595.3 -0.9000244L595.3 841L595.3 841L0 841z" /></clipPath><clipPath id="47"><path id="" clip-rule="evenodd" transform="matrix(1 0 0 1 0 0)" d="M477.45 150.15L543.95 150.15L543.95 150.15L543.95 172.05L543.95 172.05L477.45 172.05z" /></clipPath><clipPath id="48"><path id="" clip-rule="evenodd" transform="matrix(1 0 0 1 0 0)" d="M0 -0.9000244L595.3 -0.9000244L595.3 -0.9000244L595.3 841L595.3 841L0 841z" /></clipPath><clipPath id="49"><path id="" clip-rule="evenodd" transform="matrix(1 0 0 1 0 0)" d="M79.65 172.05L543.8 172.05L543.8 172.05L543.8 195.5L543.8 195.5L79.65 195.5z" /></clipPath><clipPath id="50"><path id="" clip-rule="evenodd" transform="matrix(1 0 0 1 0 0)" d="M0 -0.9000244L595.3 -0.9000244L595.3 -0.9000244L595.3 841L595.3 841L0 841z" /></clipPath><clipPath id="51"><path id="" clip-rule="evenodd" transform="matrix(1 0 0 1 0 0)" d="M0 -0.9000244L595.3 -0.9000244L595.3 -0.9000244L595.3 841L595.3 841L0 841z" /></clipPath><clipPath id="52"><path id="" clip-rule="evenodd" transform="matrix(1 0 0 1 0 0)" d="M79.65 305.25L145.9 305.25L145.9 305.25L145.9 351.55L145.9 351.55L79.65 351.55z" /></clipPath><clipPath id="53"><path id="" clip-rule="evenodd" transform="matrix(1 0 0 1 0 0)" d="M0 -0.9000244L595.3 -0.9000244L595.3 -0.9000244L595.3 841L595.3 841L0 841z" /></clipPath><clipPath id="54"><path id="" clip-rule="evenodd" transform="matrix(1 0 0 1 0 0)" d="M145.85 305.25L212.15 305.25L212.15 305.25L212.15 351.55L212.15 351.55L145.85 351.55z" /></clipPath><clipPath id="55"><path id="" clip-rule="evenodd" transform="matrix(1 0 0 1 0 0)" d="M0 -0.9000244L595.3 -0.9000244L595.3 -0.9000244L595.3 841L595.3 841L0 841z" /></clipPath><clipPath id="56"><path id="" clip-rule="evenodd" transform="matrix(1 0 0 1 0 0)" d="M212.1 305.25L281.85 305.25L281.85 305.25L281.85 351.55L281.85 351.55L212.1 351.55z" /></clipPath><clipPath id="57"><path id="" clip-rule="evenodd" transform="matrix(1 0 0 1 0 0)" d="M0 -0.9000244L595.3 -0.9000244L595.3 -0.9000244L595.3 841L595.3 841L0 841z" /></clipPath><clipPath id="58"><path id="" clip-rule="evenodd" transform="matrix(1 0 0 1 0 0)" d="M281.8 305.25L477.5 305.25L477.5 305.25L477.5 328.65L477.5 328.65L281.8 328.65z" /></clipPath><clipPath id="59"><path id="" clip-rule="evenodd" transform="matrix(1 0 0 1 0 0)" d="M0 -0.9000244L595.3 -0.9000244L595.3 -0.9000244L595.3 841L595.3 841L0 841z" /></clipPath><clipPath id="60"><path id="" clip-rule="evenodd" transform="matrix(1 0 0 1 0 0)" d="M477.45 305.25L543.85 305.25L543.85 305.25L543.85 351.55L543.85 351.55L477.45 351.55z" /></clipPath><clipPath id="61"><path id="" clip-rule="evenodd" transform="matrix(1 0 0 1 0 0)" d="M0 -0.9000244L595.3 -0.9000244L595.3 -0.9000244L595.3 841L595.3 841L0 841z" /></clipPath><clipPath id="62"><path id="" clip-rule="evenodd" transform="matrix(1 0 0 1 0 0)" d="M281.8 328.65L344.75 328.65L344.75 328.65L344.75 351.55L344.75 351.55L281.8 351.55z" /></clipPath><clipPath id="63"><path id="" clip-rule="evenodd" transform="matrix(1 0 0 1 0 0)" d="M0 -0.9000244L595.3 -0.9000244L595.3 -0.9000244L595.3 841L595.3 841L0 841z" /></clipPath><clipPath id="64"><path id="" clip-rule="evenodd" transform="matrix(1 0 0 1 0 0)" d="M344.7 328.65L411.1 328.65L411.1 328.65L411.1 351.55L411.1 351.55L344.7 351.55z" /></clipPath><clipPath id="65"><path id="" clip-rule="evenodd" transform="matrix(1 0 0 1 0 0)" d="M0 -0.9000244L595.3 -0.9000244L595.3 -0.9000244L595.3 841L595.3 841L0 841z" /></clipPath><clipPath id="66"><path id="" clip-rule="evenodd" transform="matrix(1 0 0 1 0 0)" d="M411.05 328.65L477.5 328.65L477.5 328.65L477.5 351.55L477.5 351.55L411.05 351.55z" /></clipPath><clipPath id="67"><path id="" clip-rule="evenodd" transform="matrix(1 0 0 1 0 0)" d="M0 -0.9000244L595.3 -0.9000244L595.3 -0.9000244L595.3 841L595.3 841L0 841z" /></clipPath><clipPath id="68"><path id="" clip-rule="evenodd" transform="matrix(1 0 0 1 0 0)" d="M79.65 351.55L145.9 351.55L145.9 351.55L145.9 376L145.9 376L79.65 376z" /></clipPath><clipPath id="69"><path id="" clip-rule="evenodd" transform="matrix(1 0 0 1 0 0)" d="M0 -0.9000244L595.3 -0.9000244L595.3 -0.9000244L595.3 841L595.3 841L0 841z" /></clipPath><clipPath id="70"><path id="" clip-rule="evenodd" transform="matrix(1 0 0 1 0 0)" d="M145.85 351.55L212.15 351.55L212.15 351.55L212.15 376L212.15 376L145.85 376z" /></clipPath><clipPath id="71"><path id="" clip-rule="evenodd" transform="matrix(1 0 0 1 0 0)" d="M0 -0.9000244L595.3 -0.9000244L595.3 -0.9000244L595.3 841L595.3 841L0 841z" /></clipPath><clipPath id="72"><path id="" clip-rule="evenodd" transform="matrix(1 0 0 1 0 0)" d="M212.1 351.55L281.85 351.55L281.85 351.55L281.85 376L281.85 376L212.1 376z" /></clipPath><clipPath id="73"><path id="" clip-rule="evenodd" transform="matrix(1 0 0 1 0 0)" d="M0 -0.9000244L595.3 -0.9000244L595.3 -0.9000244L595.3 841L595.3 841L0 841z" /></clipPath><clipPath id="74"><path id="" clip-rule="evenodd" transform="matrix(1 0 0 1 0 0)" d="M281.8 351.55L344.75 351.55L344.75 351.55L344.75 376L344.75 376L281.8 376z" /></clipPath><clipPath id="75"><path id="" clip-rule="evenodd" transform="matrix(1 0 0 1 0 0)" d="M0 -0.9000244L595.3 -0.9000244L595.3 -0.9000244L595.3 841L595.3 841L0 841z" /></clipPath><clipPath id="76"><path id="" clip-rule="evenodd" transform="matrix(1 0 0 1 0 0)" d="M344.7 351.55L411.1 351.55L411.1 351.55L411.1 376L411.1 376L344.7 376z" /></clipPath><clipPath id="77"><path id="" clip-rule="evenodd" transform="matrix(1 0 0 1 0 0)" d="M0 -0.9000244L595.3 -0.9000244L595.3 -0.9000244L595.3 841L595.3 841L0 841z" /></clipPath><clipPath id="78"><path id="" clip-rule="evenodd" transform="matrix(1 0 0 1 0 0)" d="M411.05 351.55L477.5 351.55L477.5 351.55L477.5 376L477.5 376L411.05 376z" /></clipPath><clipPath id="79"><path id="" clip-rule="evenodd" transform="matrix(1 0 0 1 0 0)" d="M0 -0.9000244L595.3 -0.9000244L595.3 -0.9000244L595.3 841L595.3 841L0 841z" /></clipPath><clipPath id="80"><path id="" clip-rule="evenodd" transform="matrix(1 0 0 1 0 0)" d="M477.45 351.55L543.85 351.55L543.85 351.55L543.85 376L543.85 376L477.45 376z" /></clipPath><clipPath id="81"><path id="" clip-rule="evenodd" transform="matrix(1 0 0 1 0 0)" d="M0 -0.9000244L595.3 -0.9000244L595.3 -0.9000244L595.3 841L595.3 841L0 841z" /></clipPath><clipPath id="82"><path id="" clip-rule="evenodd" transform="matrix(1 0 0 1 0 0)" d="M0 -0.9000244L595.3 -0.9000244L595.3 -0.9000244L595.3 841L595.3 841L0 841z" /></clipPath><clipPath id="83"><path id="" clip-rule="evenodd" transform="matrix(1 0 0 1 0 0)" d="M79.65 545.65L276.45 545.65L276.45 545.65L276.45 569.05L276.45 569.05L79.65 569.05z" /></clipPath><clipPath id="84"><path id="" clip-rule="evenodd" transform="matrix(1 0 0 1 0 0)" d="M0 -0.9000244L595.3 -0.9000244L595.3 -0.9000244L595.3 841L595.3 841L0 841z" /></clipPath><clipPath id="85"><path id="" clip-rule="evenodd" transform="matrix(1 0 0 1 0 0)" d="M276.4 545.65L365.5 545.65L365.5 545.65L365.5 569.05L365.5 569.05L276.4 569.05z" /></clipPath><clipPath id="86"><path id="" clip-rule="evenodd" transform="matrix(1 0 0 1 0 0)" d="M0 -0.9000244L595.3 -0.9000244L595.3 -0.9000244L595.3 841L595.3 841L0 841z" /></clipPath><clipPath id="87"><path id="" clip-rule="evenodd" transform="matrix(1 0 0 1 0 0)" d="M365.45 545.65L454.55 545.65L454.55 545.65L454.55 569.05L454.55 569.05L365.45 569.05z" /></clipPath><clipPath id="88"><path id="" clip-rule="evenodd" transform="matrix(1 0 0 1 0 0)" d="M0 -0.9000244L595.3 -0.9000244L595.3 -0.9000244L595.3 841L595.3 841L0 841z" /></clipPath><clipPath id="89"><path id="" clip-rule="evenodd" transform="matrix(1 0 0 1 0 0)" d="M454.5 545.65L543.7 545.65L543.7 545.65L543.7 569.05L543.7 569.05L454.5 569.05z" /></clipPath><clipPath id="90"><path id="" clip-rule="evenodd" transform="matrix(1 0 0 1 0 0)" d="M0 -0.9000244L595.3 -0.9000244L595.3 -0.9000244L595.3 841L595.3 841L0 841z" /></clipPath><clipPath id="91"><path id="" clip-rule="evenodd" transform="matrix(1 0 0 1 0 0)" d="M79.65 569.05L276.45 569.05L276.45 569.05L276.45 591.95L276.45 591.95L79.65 591.95z" /></clipPath><clipPath id="92"><path id="" clip-rule="evenodd" transform="matrix(1 0 0 1 0 0)" d="M0 -0.9000244L595.3 -0.9000244L595.3 -0.9000244L595.3 841L595.3 841L0 841z" /></clipPath><clipPath id="93"><path id="" clip-rule="evenodd" transform="matrix(1 0 0 1 0 0)" d="M276.4 569.05L365.5 569.05L365.5 569.05L365.5 591.95L365.5 591.95L276.4 591.95z" /></clipPath><clipPath id="94"><path id="" clip-rule="evenodd" transform="matrix(1 0 0 1 0 0)" d="M0 -0.9000244L595.3 -0.9000244L595.3 -0.9000244L595.3 841L595.3 841L0 841z" /></clipPath><clipPath id="95"><path id="" clip-rule="evenodd" transform="matrix(1 0 0 1 0 0)" d="M365.45 569.05L454.55 569.05L454.55 569.05L454.55 591.95L454.55 591.95L365.45 591.95z" /></clipPath><clipPath id="96"><path id="" clip-rule="evenodd" transform="matrix(1 0 0 1 0 0)" d="M0 -0.9000244L595.3 -0.9000244L595.3 -0.9000244L595.3 841L595.3 841L0 841z" /></clipPath><clipPath id="97"><path id="" clip-rule="evenodd" transform="matrix(1 0 0 1 0 0)" d="M454.5 569.05L543.7 569.05L543.7 569.05L543.7 591.95L543.7 591.95L454.5 591.95z" /></clipPath><clipPath id="98"><path id="" clip-rule="evenodd" transform="matrix(1 0 0 1 0 0)" d="M0 -0.9000244L595.3 -0.9000244L595.3 -0.9000244L595.3 841L595.3 841L0 841z" /></clipPath><clipPath id="99"><path id="" clip-rule="evenodd" transform="matrix(1 0 0 1 0 0)" d="M79.65 591.95L276.45 591.95L276.45 591.95L276.45 613.85L276.45 613.85L79.65 613.85z" /></clipPath><clipPath id="100"><path id="" clip-rule="evenodd" transform="matrix(1 0 0 1 0 0)" d="M0 -0.9000244L595.3 -0.9000244L595.3 -0.9000244L595.3 841L595.3 841L0 841z" /></clipPath><clipPath id="101"><path id="" clip-rule="evenodd" transform="matrix(1 0 0 1 0 0)" d="M276.4 591.95L365.5 591.95L365.5 591.95L365.5 613.85L365.5 613.85L276.4 613.85z" /></clipPath><clipPath id="102"><path id="" clip-rule="evenodd" transform="matrix(1 0 0 1 0 0)" d="M0 -0.9000244L595.3 -0.9000244L595.3 -0.9000244L595.3 841L595.3 841L0 841z" /></clipPath><clipPath id="103"><path id="" clip-rule="evenodd" transform="matrix(1 0 0 1 0 0)" d="M365.45 591.95L454.55 591.95L454.55 591.95L454.55 613.85L454.55 613.85L365.45 613.85z" /></clipPath><clipPath id="104"><path id="" clip-rule="evenodd" transform="matrix(1 0 0 1 0 0)" d="M0 -0.9000244L595.3 -0.9000244L595.3 -0.9000244L595.3 841L595.3 841L0 841z" /></clipPath><clipPath id="105"><path id="" clip-rule="evenodd" transform="matrix(1 0 0 1 0 0)" d="M454.5 591.95L543.7 591.95L543.7 591.95L543.7 613.85L543.7 613.85L454.5 613.85z" /></clipPath><clipPath id="106"><path id="" clip-rule="evenodd" transform="matrix(1 0 0 1 0 0)" d="M0 -0.9000244L595.3 -0.9000244L595.3 -0.9000244L595.3 841L595.3 841L0 841z" /></clipPath><clipPath id="107"><path id="" clip-rule="evenodd" transform="matrix(1 0 0 1 0 0)" d="M79.65 613.85L276.45 613.85L276.45 613.85L276.45 635.75L276.45 635.75L79.65 635.75z" /></clipPath><clipPath id="108"><path id="" clip-rule="evenodd" transform="matrix(1 0 0 1 0 0)" d="M0 -0.9000244L595.3 -0.9000244L595.3 -0.9000244L595.3 841L595.3 841L0 841z" /></clipPath><clipPath id="109"><path id="" clip-rule="evenodd" transform="matrix(1 0 0 1 0 0)" d="M276.4 613.85L365.5 613.85L365.5 613.85L365.5 635.75L365.5 635.75L276.4 635.75z" /></clipPath><clipPath id="110"><path id="" clip-rule="evenodd" transform="matrix(1 0 0 1 0 0)" d="M0 -0.9000244L595.3 -0.9000244L595.3 -0.9000244L595.3 841L595.3 841L0 841z" /></clipPath><clipPath id="111"><path id="" clip-rule="evenodd" transform="matrix(1 0 0 1 0 0)" d="M365.45 613.85L454.55 613.85L454.55 613.85L454.55 635.75L454.55 635.75L365.45 635.75z" /></clipPath><clipPath id="112"><path id="" clip-rule="evenodd" transform="matrix(1 0 0 1 0 0)" d="M0 -0.9000244L595.3 -0.9000244L595.3 -0.9000244L595.3 841L595.3 841L0 841z" /></clipPath><clipPath id="113"><path id="" clip-rule="evenodd" transform="matrix(1 0 0 1 0 0)" d="M454.5 613.85L543.7 613.85L543.7 613.85L543.7 635.75L543.7 635.75L454.5 635.75z" /></clipPath><clipPath id="114"><path id="" clip-rule="evenodd" transform="matrix(1 0 0 1 0 0)" d="M0 -0.9000244L595.3 -0.9000244L595.3 -0.9000244L595.3 841L595.3 841L0 841z" /></clipPath><clipPath id="115"><path id="" clip-rule="evenodd" transform="matrix(1 0 0 1 0 0)" d="M79.65 635.75L276.45 635.75L276.45 635.75L276.45 657.65L276.45 657.65L79.65 657.65z" /></clipPath><clipPath id="116"><path id="" clip-rule="evenodd" transform="matrix(1 0 0 1 0 0)" d="M0 -0.9000244L595.3 -0.9000244L595.3 -0.9000244L595.3 841L595.3 841L0 841z" /></clipPath><clipPath id="117"><path id="" clip-rule="evenodd" transform="matrix(1 0 0 1 0 0)" d="M276.4 635.75L365.5 635.75L365.5 635.75L365.5 657.65L365.5 657.65L276.4 657.65z" /></clipPath><clipPath id="118"><path id="" clip-rule="evenodd" transform="matrix(1 0 0 1 0 0)" d="M0 -0.9000244L595.3 -0.9000244L595.3 -0.9000244L595.3 841L595.3 841L0 841z" /></clipPath><clipPath id="119"><path id="" clip-rule="evenodd" transform="matrix(1 0 0 1 0 0)" d="M365.45 635.75L454.55 635.75L454.55 635.75L454.55 657.65L454.55 657.65L365.45 657.65z" /></clipPath><clipPath id="120"><path id="" clip-rule="evenodd" transform="matrix(1 0 0 1 0 0)" d="M0 -0.9000244L595.3 -0.9000244L595.3 -0.9000244L595.3 841L595.3 841L0 841z" /></clipPath><clipPath id="121"><path id="" clip-rule="evenodd" transform="matrix(1 0 0 1 0 0)" d="M454.5 635.75L543.7 635.75L543.7 635.75L543.7 657.65L543.7 657.65L454.5 657.65z" /></clipPath><clipPath id="122"><path id="" clip-rule="evenodd" transform="matrix(1 0 0 1 0 0)" d="M0 -0.9000244L595.3 -0.9000244L595.3 -0.9000244L595.3 841L595.3 841L0 841z" /></clipPath><clipPath id="123"><path id="" clip-rule="evenodd" transform="matrix(1 0 0 1 0 0)" d="M79.65 657.65L276.45 657.65L276.45 657.65L276.45 679.55L276.45 679.55L79.65 679.55z" /></clipPath><clipPath id="124"><path id="" clip-rule="evenodd" transform="matrix(1 0 0 1 0 0)" d="M0 -0.9000244L595.3 -0.9000244L595.3 -0.9000244L595.3 841L595.3 841L0 841z" /></clipPath><clipPath id="125"><path id="" clip-rule="evenodd" transform="matrix(1 0 0 1 0 0)" d="M276.4 657.65L365.5 657.65L365.5 657.65L365.5 679.55L365.5 679.55L276.4 679.55z" /></clipPath><clipPath id="126"><path id="" clip-rule="evenodd" transform="matrix(1 0 0 1 0 0)" d="M0 -0.9000244L595.3 -0.9000244L595.3 -0.9000244L595.3 841L595.3 841L0 841z" /></clipPath><clipPath id="127"><path id="" clip-rule="evenodd" transform="matrix(1 0 0 1 0 0)" d="M365.45 657.65L454.55 657.65L454.55 657.65L454.55 679.55L454.55 679.55L365.45 679.55z" /></clipPath><clipPath id="128"><path id="" clip-rule="evenodd" transform="matrix(1 0 0 1 0 0)" d="M0 -0.9000244L595.3 -0.9000244L595.3 -0.9000244L595.3 841L595.3 841L0 841z" /></clipPath><clipPath id="129"><path id="" clip-rule="evenodd" transform="matrix(1 0 0 1 0 0)" d="M454.5 657.65L543.7 657.65L543.7 657.65L543.7 679.55L543.7 679.55L454.5 679.55z" /></clipPath><clipPath id="130"><path id="" clip-rule="evenodd" transform="matrix(1 0 0 1 0 0)" d="M0 -0.9000244L595.3 -0.9000244L595.3 -0.9000244L595.3 841L595.3 841L0 841z" /></clipPath><clipPath id="131"><path id="" clip-rule="evenodd" transform="matrix(1 0 0 1 0 0)" d="M79.65 679.55L276.45 679.55L276.45 679.55L276.45 701.45L276.45 701.45L79.65 701.45z" /></clipPath><clipPath id="132"><path id="" clip-rule="evenodd" transform="matrix(1 0 0 1 0 0)" d="M0 -0.9000244L595.3 -0.9000244L595.3 -0.9000244L595.3 841L595.3 841L0 841z" /></clipPath><clipPath id="133"><path id="" clip-rule="evenodd" transform="matrix(1 0 0 1 0 0)" d="M276.4 679.55L365.5 679.55L365.5 679.55L365.5 701.45L365.5 701.45L276.4 701.45z" /></clipPath><clipPath id="134"><path id="" clip-rule="evenodd" transform="matrix(1 0 0 1 0 0)" d="M0 -0.9000244L595.3 -0.9000244L595.3 -0.9000244L595.3 841L595.3 841L0 841z" /></clipPath><clipPath id="135"><path id="" clip-rule="evenodd" transform="matrix(1 0 0 1 0 0)" d="M365.45 679.55L454.55 679.55L454.55 679.55L454.55 701.45L454.55 701.45L365.45 701.45z" /></clipPath><clipPath id="136"><path id="" clip-rule="evenodd" transform="matrix(1 0 0 1 0 0)" d="M0 -0.9000244L595.3 -0.9000244L595.3 -0.9000244L595.3 841L595.3 841L0 841z" /></clipPath><clipPath id="137"><path id="" clip-rule="evenodd" transform="matrix(1 0 0 1 0 0)" d="M454.5 679.55L543.7 679.55L543.7 679.55L543.7 701.45L543.7 701.45L454.5 701.45z" /></clipPath><clipPath id="138"><path id="" clip-rule="evenodd" transform="matrix(1 0 0 1 0 0)" d="M0 -0.9000244L595.3 -0.9000244L595.3 -0.9000244L595.3 841L595.3 841L0 841z" /></clipPath><clipPath id="139"><path id="" clip-rule="evenodd" transform="matrix(1 0 0 1 0 0)" d="M79.65 701.45L276.45 701.45L276.45 701.45L276.45 723.35L276.45 723.35L79.65 723.35z" /></clipPath><clipPath id="140"><path id="" clip-rule="evenodd" transform="matrix(1 0 0 1 0 0)" d="M0 -0.9000244L595.3 -0.9000244L595.3 -0.9000244L595.3 841L595.3 841L0 841z" /></clipPath><clipPath id="141"><path id="" clip-rule="evenodd" transform="matrix(1 0 0 1 0 0)" d="M276.4 701.45L365.5 701.45L365.5 701.45L365.5 723.35L365.5 723.35L276.4 723.35z" /></clipPath><clipPath id="142"><path id="" clip-rule="evenodd" transform="matrix(1 0 0 1 0 0)" d="M0 -0.9000244L595.3 -0.9000244L595.3 -0.9000244L595.3 841L595.3 841L0 841z" /></clipPath><clipPath id="143"><path id="" clip-rule="evenodd" transform="matrix(1 0 0 1 0 0)" d="M365.45 701.45L454.55 701.45L454.55 701.45L454.55 723.35L454.55 723.35L365.45 723.35z" /></clipPath><clipPath id="144"><path id="" clip-rule="evenodd" transform="matrix(1 0 0 1 0 0)" d="M0 -0.9000244L595.3 -0.9000244L595.3 -0.9000244L595.3 841L595.3 841L0 841z" /></clipPath><clipPath id="145"><path id="" clip-rule="evenodd" transform="matrix(1 0 0 1 0 0)" d="M454.5 701.45L543.7 701.45L543.7 701.45L543.7 723.35L543.7 723.35L454.5 723.35z" /></clipPath><clipPath id="146"><path id="" clip-rule="evenodd" transform="matrix(1 0 0 1 0 0)" d="M0 -0.9000244L595.3 -0.9000244L595.3 -0.9000244L595.3 841L595.3 841L0 841z" /></clipPath><clipPath id="147"><path id="" clip-rule="evenodd" transform="matrix(1 0 0 1 0 0)" d="M79.65 723.35L276.45 723.35L276.45 723.35L276.45 745.25L276.45 745.25L79.65 745.25z" /></clipPath><clipPath id="148"><path id="" clip-rule="evenodd" transform="matrix(1 0 0 1 0 0)" d="M0 -0.9000244L595.3 -0.9000244L595.3 -0.9000244L595.3 841L595.3 841L0 841z" /></clipPath><clipPath id="149"><path id="" clip-rule="evenodd" transform="matrix(1 0 0 1 0 0)" d="M276.4 723.35L365.5 723.35L365.5 723.35L365.5 745.25L365.5 745.25L276.4 745.25z" /></clipPath><clipPath id="150"><path id="" clip-rule="evenodd" transform="matrix(1 0 0 1 0 0)" d="M0 -0.9000244L595.3 -0.9000244L595.3 -0.9000244L595.3 841L595.3 841L0 841z" /></clipPath><clipPath id="151"><path id="" clip-rule="evenodd" transform="matrix(1 0 0 1 0 0)" d="M365.45 723.35L454.55 723.35L454.55 723.35L454.55 745.25L454.55 745.25L365.45 745.25z" /></clipPath><clipPath id="152"><path id="" clip-rule="evenodd" transform="matrix(1 0 0 1 0 0)" d="M0 -0.9000244L595.3 -0.9000244L595.3 -0.9000244L595.3 841L595.3 841L0 841z" /></clipPath><clipPath id="153"><path id="" clip-rule="evenodd" transform="matrix(1 0 0 1 0 0)" d="M454.5 723.35L543.7 723.35L543.7 723.35L543.7 745.25L543.7 745.25L454.5 745.25z" /></clipPath><clipPath id="154"><path id="" clip-rule="evenodd" transform="matrix(1 0 0 1 0 0)" d="M0 -0.9000244L595.3 -0.9000244L595.3 -0.9000244L595.3 841L595.3 841L0 841z" /></clipPath><clipPath id="155"><path id="" clip-rule="evenodd" transform="matrix(1 0 0 1 0 0)" d="M79.65 745.25L276.45 745.25L276.45 745.25L276.45 768.7L276.45 768.7L79.65 768.7z" /></clipPath><clipPath id="156"><path id="" clip-rule="evenodd" transform="matrix(1 0 0 1 0 0)" d="M0 -0.9000244L595.3 -0.9000244L595.3 -0.9000244L595.3 841L595.3 841L0 841z" /></clipPath><clipPath id="157"><path id="" clip-rule="evenodd" transform="matrix(1 0 0 1 0 0)" d="M276.4 745.25L365.5 745.25L365.5 745.25L365.5 768.7L365.5 768.7L276.4 768.7z" /></clipPath><clipPath id="158"><path id="" clip-rule="evenodd" transform="matrix(1 0 0 1 0 0)" d="M0 -0.9000244L595.3 -0.9000244L595.3 -0.9000244L595.3 841L595.3 841L0 841z" /></clipPath><clipPath id="159"><path id="" clip-rule="evenodd" transform="matrix(1 0 0 1 0 0)" d="M365.45 745.25L454.55 745.25L454.55 745.25L454.55 768.7L454.55 768.7L365.45 768.7z" /></clipPath><clipPath id="160"><path id="" clip-rule="evenodd" transform="matrix(1 0 0 1 0 0)" d="M0 -0.9000244L595.3 -0.9000244L595.3 -0.9000244L595.3 841L595.3 841L0 841z" /></clipPath><clipPath id="161"><path id="" clip-rule="evenodd" transform="matrix(1 0 0 1 0 0)" d="M454.5 745.25L543.7 745.25L543.7 745.25L543.7 768.7L543.7 768.7L454.5 768.7z" /></clipPath><clipPath id="162"><path id="" clip-rule="evenodd" transform="matrix(1 0 0 1 0 0)" d="M0 -0.9000244L595.3 -0.9000244L595.3 -0.9000244L595.3 841L595.3 841L0 841z" /></clipPath></defs><g transform="matrix(1.333333 0 0 1.333333 0 0)"><g clip-path="url(#1)"><g clip-path="url(#2)"><path id="25" transform="matrix(1 0 0 -1 0 841)" d="M85.05 774.1L538.6 774.1L538.6 774.1L538.6 773.62L538.6 773.62L85.05 773.62z" stroke="none" fill="#000000" fill-rule="evenodd" /></g><g clip-path="url(#3)"><g clip-path="url(#4)"></g></g><g clip-path="url(#5)"></g><g clip-path="url(#6)"><g clip-path="url(#7)"></g></g><g clip-path="url(#8)"><g clip-path="url(#9)"></g></g><g clip-path="url(#10)"><g clip-path="url(#11)"></g></g><g clip-path="url(#12)"><g clip-path="url(#13)"></g></g><g clip-path="url(#14)"><g clip-path="url(#15)"></g></g><g clip-path="url(#16)"><g clip-path="url(#17)"></g></g><g clip-path="url(#18)"><g clip-path="url(#19)"></g></g><g clip-path="url(#20)"><g clip-path="url(#21)"></g></g><g clip-path="url(#22)"><g clip-path="url(#23)"></g></g><g clip-path="url(#24)"><g clip-path="url(#25)"></g></g><g clip-path="url(#26)"><g clip-path="url(#27)"></g></g><g clip-path="url(#28)"><g clip-path="url(#29)"></g></g><g clip-path="url(#30)"><g clip-path="url(#31)"></g></g><g clip-path="url(#32)"><g clip-path="url(#33)"></g></g><g clip-path="url(#34)"><g clip-path="url(#35)"></g></g><g clip-path="url(#36)"><g clip-path="url(#37)"></g></g><g clip-path="url(#38)"><g clip-path="url(#39)"></g></g><g clip-path="url(#40)"><g clip-path="url(#41)"></g></g><g clip-path="url(#42)"><g clip-path="url(#43)"></g></g><g clip-path="url(#44)"><g clip-path="url(#45)"></g></g><g clip-path="url(#46)"><g clip-path="url(#47)"></g></g><g clip-path="url(#48)"><g clip-path="url(#49)"></g></g><g clip-path="url(#50)"><path id="205" transform="matrix(1 0 0 -1 0 841)" d="M79.65 736.4301L543.9 736.4301" stroke="#000000" stroke-width="1.44" fill="none" /><path id="206" transform="matrix(1 0 0 -1 0 841)" d="M79.65 646.33L543.75 646.33" stroke="#000000" stroke-width="1.44" fill="none" /><path id="207" transform="matrix(1 0 0 -1 0 841)" d="M79.65 713.27L543.9 713.27" stroke="#000000" stroke-width="0.96" fill="none" /></g><g clip-path="url(#51)"><g clip-path="url(#52)"></g></g><g clip-path="url(#53)"><g clip-path="url(#54)"></g></g><g clip-path="url(#55)"><g clip-path="url(#56)"></g></g><g clip-path="url(#57)"><g clip-path="url(#58)"></g></g><g clip-path="url(#59)"><g clip-path="url(#60)"></g></g><g clip-path="url(#61)"><g clip-path="url(#62)"></g></g><g clip-path="url(#63)"><g clip-path="url(#64)"></g></g><g clip-path="url(#65)"><g clip-path="url(#66)"></g></g><g clip-path="url(#67)"><g clip-path="url(#68)"></g></g><g clip-path="url(#69)"><g clip-path="url(#70)"></g></g><g clip-path="url(#71)"><g clip-path="url(#72)"></g></g><g clip-path="url(#73)"><g clip-path="url(#74)"></g></g><g clip-path="url(#75)"><g clip-path="url(#76)"></g></g><g clip-path="url(#77)"><g clip-path="url(#78)"></g></g><g clip-path="url(#79)"><g clip-path="url(#80)"></g></g><g clip-path="url(#81)"><path id="430" transform="matrix(1 0 0 -1 0 841)" d="M79.65 535.03L543.8 535.03" stroke="#000000" stroke-width="1.44" fill="none" /><path id="431" transform="matrix(1 0 0 -1 0 841)" d="M79.65 465.83L543.8 465.83" stroke="#000000" stroke-width="1.44" fill="none" /><path id="432" transform="matrix(1 0 0 -1 0 841)" d="M281.8 511.87L477.45 511.87" stroke="#000000" stroke-width="0.96" fill="none" /><path id="433" transform="matrix(1 0 0 -1 0 841)" d="M79.65 488.97L543.8 488.97" stroke="#000000" stroke-width="0.96" fill="none" /></g><g clip-path="url(#82)"><g clip-path="url(#83)"></g></g><g clip-path="url(#84)"><g clip-path="url(#85)"></g></g><g clip-path="url(#86)"><g clip-path="url(#87)"></g></g><g clip-path="url(#88)"><g clip-path="url(#89)"></g></g><g clip-path="url(#90)"><g clip-path="url(#91)"></g></g><g clip-path="url(#92)"><g clip-path="url(#93)"></g></g><g clip-path="url(#94)"><g clip-path="url(#95)"></g></g><g clip-path="url(#96)"><g clip-path="url(#97)"></g></g><g clip-path="url(#98)"><g clip-path="url(#99)"></g></g><g clip-path="url(#100)"><g clip-path="url(#101)"></g></g><g clip-path="url(#102)"><g clip-path="url(#103)"></g></g><g clip-path="url(#104)"><g clip-path="url(#105)"></g></g><g clip-path="url(#106)"><g clip-path="url(#107)"></g></g><g clip-path="url(#108)"><g clip-path="url(#109)"></g></g><g clip-path="url(#110)"><g clip-path="url(#111)"></g></g><g clip-path="url(#112)"><g clip-path="url(#113)"></g></g><g clip-path="url(#114)"><g clip-path="url(#115)"></g></g><g clip-path="url(#116)"><g clip-path="url(#117)"></g></g><g clip-path="url(#118)"><g clip-path="url(#119)"></g></g><g clip-path="url(#120)"><g clip-path="url(#121)"></g></g><g clip-path="url(#122)"><g clip-path="url(#123)"></g></g><g clip-path="url(#124)"><g clip-path="url(#125)"></g></g><g clip-path="url(#126)"><g clip-path="url(#127)"></g></g><g clip-path="url(#128)"><g clip-path="url(#129)"></g></g><g clip-path="url(#130)"><g clip-path="url(#131)"></g></g><g clip-path="url(#132)"><g clip-path="url(#133)"></g></g><g clip-path="url(#134)"><g clip-path="url(#135)"></g></g><g clip-path="url(#136)"><g clip-path="url(#137)"></g></g><g clip-path="url(#138)"><g clip-path="url(#139)"></g></g><g clip-path="url(#140)"><g clip-path="url(#141)"></g></g><g clip-path="url(#142)"><g clip-path="url(#143)"></g></g><g clip-path="url(#144)"><g clip-path="url(#145)"></g></g><g clip-path="url(#146)"><g clip-path="url(#147)"></g></g><g clip-path="url(#148)"><g clip-path="url(#149)"></g></g><g clip-path="url(#150)"><g clip-path="url(#151)"></g></g><g clip-path="url(#152)"><g clip-path="url(#153)"></g></g><g clip-path="url(#154)"><g clip-path="url(#155)"></g></g><g clip-path="url(#156)"><g clip-path="url(#157)"></g></g><g clip-path="url(#158)"><g clip-path="url(#159)"></g></g><g clip-path="url(#160)"><g clip-path="url(#161)"></g></g><g clip-path="url(#162)"><path id="1054" transform="matrix(1 0 0 -1 0 841)" d="M79.65 294.63L543.65 294.63" stroke="#000000" stroke-width="1.44" fill="none" /><path id="1055" transform="matrix(1 0 0 -1 0 841)" d="M79.65 73.13L543.65 73.13" stroke="#000000" stroke-width="1.44" fill="none" /><path id="1056" transform="matrix(1 0 0 -1 0 841)" d="M79.65 271.47L543.65 271.47" stroke="#000000" stroke-width="0.96" fill="none" /></g></g></g></svg>