<svg xmlns="http://www.w3.org/2000/svg" xmlns:xlink="http://www.w3.org/1999/xlink" id="body_1" preserveAspectRatio="xMinYMin meet" viewBox="0 0 793 1121"><defs><clipPath id="1"><path id="" clip-rule="evenodd" transform="matrix(1 0 0 1 0 0)" d="M0 841L0 -0.9000244L0 -0.9000244L595.3 -0.9000244L595.3 -0.9000244L595.3 841L595.3 841L0 841z" /></clipPath><clipPath id="2"><path id="" clip-rule="evenodd" transform="matrix(1 0 0 1 0 0)" d="M0 -0.9000244L595.3 -0.9000244L595.3 -0.9000244L595.3 841L595.3 841L0 841z" /></clipPath></defs><g transform="matrix(1.333333 0 0 1.333333 0 0)"><g clip-path="url(#1)"><g clip-path="url(#2)"><g transform="matrix(0.4884375 0 0 0.4882759 207.36 672.9)"><g transform="matrix(1 0 0 1 0 0)"><image x="0" y="0" xlink:href="img_01.png" width="128" height="58" /></g></g><g transform="matrix(0.4884375 0 0 0.4882759 208.8 330.42)"><g transform="matrix(1 0 0 1 0 0)"><image x="0" y="0" xlink:href="img_01.png" width="128" height="58" /></g></g><path id="211" transform="matrix(1 0 0 -1 0 841)" d="M203.5 484.45L282.2 484.45" stroke="#000000" stroke-width="0.72" fill="none" /><path id="415" transform="matrix(1 0 0 -1 0 841)" d="M203.5 144L282.2 144" stroke="#000000" stroke-width="0.72" fill="none" /><path id="429" transform="matrix(1 0 0 -1 0 841)" d="M182.5 117.6L282.2 117.6" stroke="#000000" stroke-width="0.72" fill="none" /><g><g transform="matrix(1 0 0 1 338.3989 344.5)"><path id="213" transform="matrix(1 0 0 1 0 0)" d="M2.57168 3.95957L2.57168 5.020898L4.245312 5.020898L4.245312 3.95957L2.57168 3.95957zM2.57168 6.49043L4.245312 6.49043L4.245312 5.265821L2.57168 5.265821zM2.57168 8.000781L4.245312 8.000781L4.245312 6.735352L2.57168 6.735352zM2.000195 3.714649C 2.000195 3.03431 1.986588 2.462826 1.959375 2.000196L2.898242 2.530859L2.57168 2.775781L2.57168 3.714649L4.245312 3.714649C 4.245312 3.224805 4.231705 2.65332 4.204492 2.000196L5.143359 2.490039L4.816797 2.734961L4.816797 3.714649L4.939258 3.714649L5.388281 3.265625L6.082226 3.95957L4.816797 3.95957L4.816797 8.000781L4.857617 8.000781L5.306641 7.551758L6.000586 8.245703L1.551172 8.245703L0.9796875 8.327344L0.653125 8.000781L2.000195 8.000781L2.000195 3.95957L1.632812 3.95957L1.061328 4.041211L0.7347656 3.714649L2.000195 3.714649zM3.265625 9.062109L2.898242 9.18457C 2.163476 10.0554 1.401497 10.73574 0.6123047 11.22559L0.530664 11.10312C 0.9388672 10.72214 1.313053 10.31393 1.653223 9.878515C 1.993392 9.443099 2.285937 8.953255 2.530859 8.408984zM3.877929 8.572266C 4.531054 8.926042 4.932455 9.198177 5.082129 9.388672C 5.231803 9.579166 5.225 9.810482 5.061718 10.08262C 4.898438 10.35475 4.748763 10.31393 4.612695 9.960156C 4.476627 9.60638 4.204492 9.170963 3.796289 8.653906L3.877929 8.572266zM6.898633 5.061719L8.898828 5.061719L8.898828 3.020703L6.898633 3.020703zM6.898633 5.306641C 6.898633 6.06862 6.885026 6.762565 6.857812 7.388476L8.898828 7.388476L8.898828 5.306641L6.898633 5.306641zM7.429296 10.36836C 7.946354 10.45 8.32054 10.49762 8.551855 10.51123C 8.783171 10.52484 8.898828 10.38197 8.898828 10.08262L8.898828 7.633398L6.857812 7.633398C 6.803385 8.585873 6.55166 9.361458 6.102636 9.960156C 5.653613 10.55885 5.088932 11.0623 4.408594 11.47051L4.326953 11.34805C 4.789583 10.96706 5.170573 10.55205 5.469922 10.10303C 5.769271 9.654004 5.986979 9.130143 6.123046 8.531446C 6.259114 7.932747 6.327148 6.939453 6.327148 5.551562C 6.327148 4.163672 6.313541 3.115951 6.286328 2.408399L6.898633 2.775781L8.817187 2.775781L9.102929 2.367579L9.756054 2.857422L9.470312 3.143164L9.470312 10.2459C 9.497526 10.79017 9.198176 11.17116 8.572266 11.38887C 8.572266 11.03509 8.191276 10.74935 7.429296 10.53164L7.429296 10.36836zM7.429296 10.36836z" stroke="none" fill="#000000" fill-rule="evenodd" /></g><g transform="matrix(1 0 0 1 348.9583 344.5)"><path id="214" transform="matrix(1 0 0 1 0 0)" d="M2.775781 9.511132C 2.748568 10.02819 2.619303 10.35475 2.387988 10.49082C 2.156673 10.62689 1.925358 10.62689 1.694043 10.49082C 1.462728 10.35475 1.340267 10.15065 1.32666 9.878515C 1.313053 9.60638 1.435514 9.402279 1.694043 9.266211C 1.952572 9.130143 2.197493 9.136947 2.428808 9.286621zM2.816602 7.021093zM2.816602 7.021093C 2.816602 7.592578 2.67373 7.93955 2.387988 8.062012C 2.102246 8.184473 1.850521 8.170866 1.632812 8.021192C 1.415104 7.871517 1.313053 7.667415 1.32666 7.408887C 1.340267 7.150358 1.469531 6.959863 1.714453 6.837402C 1.959375 6.714941 2.204297 6.714941 2.449219 6.837402zM2.816602 7.021093zM2.816602 7.021093z" stroke="none" fill="#000000" fill-rule="evenodd" /></g><g transform="matrix(1 0 0 1 385.8 344.5)"><path id="215" transform="matrix(1 0 0 1 0 0)" d="M2.898242 6.082227L2.898242 8.204883L5.26582 8.204883L5.26582 6.082227L2.898242 6.082227zM3.877929 2.408399L3.510547 2.57168C 3.292839 2.898242 3.07513 3.224805 2.857422 3.551367L8.164063 3.551367L8.776367 2.939063L9.633594 3.796289L5.878125 3.796289L5.878125 5.837305L7.551757 5.837305L8.123241 5.265821L8.939648 6.082227L5.878125 6.082227L5.878125 8.204883L8.531445 8.204883L9.143749 7.592578L10.00098 8.449804L5.878125 8.449804L5.878125 10.00098C 5.878125 10.46361 5.891732 10.87181 5.918945 11.22559L5.225 11.51133C 5.252213 10.66771 5.26582 10.0554 5.26582 9.674414L5.26582 8.449804L1.796094 8.449804C 1.442318 8.449804 1.115755 8.490625 0.8164062 8.572266L0.4490234 8.204883L2.285937 8.204883C 2.285937 6.95306 2.272331 6.041406 2.245117 5.469922L2.898242 5.837305L5.26582 5.837305L5.26582 3.796289L2.734961 3.796289C 2.462825 4.204492 2.177083 4.578678 1.877734 4.918848C 1.578385 5.259017 1.170182 5.633203 0.653125 6.041406L0.530664 5.959765C 1.020508 5.442708 1.483138 4.837207 1.918555 4.143262C 2.353971 3.449317 2.707747 2.680534 2.979883 1.836914zM2.979883 1.836914z" stroke="none" fill="#000000" fill-rule="evenodd" /></g><g transform="matrix(0.3279263 0 0 0.3282759 333 339.06)"><g transform="matrix(1 0 0 1 0 0)"><image x="0" y="0" xlink:href="img_02.png" width="217" height="87" /></g></g></g><g><g transform="matrix(1 0 0 1 417.24 344.5)"><path id="216" transform="matrix(1 0 0 1 0 0)" d="M3.428906 2.898242L3.428906 4.939258L7.388476 4.939258L7.388476 2.898242L3.428906 2.898242zM3.428906 5.18418C 3.428906 5.810091 3.415299 6.476823 3.388086 7.184375L7.388476 7.184375L7.388476 5.18418L3.428906 5.18418zM5.510742 10.28672C 6.245508 10.39557 6.742155 10.4432 7.000683 10.42959C 7.259212 10.41598 7.388476 10.2459 7.388476 9.919335L7.388476 7.429296L3.388086 7.429296C 3.306445 8.517838 3.0139 9.375065 2.510449 10.00098C 2.006999 10.62689 1.415104 11.13034 0.7347656 11.51133L0.653125 11.38887C 1.197396 10.95345 1.619206 10.51803 1.918555 10.08262C 2.217903 9.647201 2.442415 9.136947 2.59209 8.551855C 2.741764 7.966764 2.823405 7.204785 2.837012 6.265918C 2.850618 5.327051 2.843815 3.986784 2.816602 2.245117L3.428906 2.65332L7.306836 2.65332L7.674219 2.204297L8.327343 2.775781L7.95996 3.061523L7.95996 10.32754C 7.95996 10.81738 7.619791 11.17116 6.939453 11.38887C 6.91224 11.00788 6.436002 10.70853 5.510742 10.49082L5.510742 10.28672zM5.510742 10.28672z" stroke="none" fill="#000000" fill-rule="evenodd" /></g><g transform="matrix(0.3268965 0 0 0.3269388 390.36 334.5)"><g transform="matrix(1 0 0 1 0 0)"><image x="0" y="0" xlink:href="img_03.png" width="116" height="98" /></g></g></g><g><g transform="matrix(1 0 0 1 448.8 344.5)"><path id="217" transform="matrix(1 0 0 1 0 0)" d="M2.816602 2.939063L2.816602 6.041406L7.674219 6.041406L7.674219 2.939063L2.816602 2.939063zM2.816602 9.837695L7.674219 9.837695L7.674219 6.286328L2.816602 6.286328zM2.204297 11.22559C 2.23151 9.619987 2.245117 8.143652 2.245117 6.796582C 2.245117 5.449512 2.23151 3.945963 2.204297 2.285937L2.816602 2.694141L7.592578 2.694141L7.87832 2.285937L8.572266 2.816602L8.245703 3.061523L8.245703 8.653906C 8.245703 9.443099 8.25931 10.16426 8.286523 10.81738L7.674219 11.14394L7.674219 10.08262L2.816602 10.08262L2.816602 10.8582L2.204297 11.22559zM2.204297 11.22559z" stroke="none" fill="#000000" fill-rule="evenodd" /></g><g transform="matrix(0.328125 0 0 0.3259091 418.8 338.94)"><g transform="matrix(1 0 0 1 0 0)"><image x="0" y="0" xlink:href="img_04.png" width="128" height="88" /></g></g></g><g transform="matrix(0.326747 0 0 0.3284849 194.04 698.22)"><g transform="matrix(1 0 0 1 0 0)"><image x="0" y="0" xlink:href="img_05.png" width="166" height="99" /></g></g><g><g transform="matrix(1 0 0 1 345.2398 685.059)"><path id="417" transform="matrix(1 0 0 1 0 0)" d="M2.57168 3.95957L2.57168 5.020898L4.245312 5.020898L4.245312 3.95957L2.57168 3.95957zM2.57168 6.49043L4.245312 6.49043L4.245312 5.265821L2.57168 5.265821zM2.57168 8.000781L4.245312 8.000781L4.245312 6.735352L2.57168 6.735352zM2.000195 3.714649C 2.000195 3.03431 1.986588 2.462826 1.959375 2.000196L2.898242 2.530859L2.57168 2.775781L2.57168 3.714649L4.245312 3.714649C 4.245312 3.224805 4.231705 2.65332 4.204492 2.000196L5.143359 2.490039L4.816797 2.734961L4.816797 3.714649L4.939258 3.714649L5.388281 3.265625L6.082226 3.95957L4.816797 3.95957L4.816797 8.000781L4.857617 8.000781L5.306641 7.551758L6.000586 8.245703L1.551172 8.245703L0.9796875 8.327344L0.653125 8.000781L2.000195 8.000781L2.000195 3.95957L1.632812 3.95957L1.061328 4.041211L0.7347656 3.714649L2.000195 3.714649zM3.265625 9.062109L2.898242 9.18457C 2.163476 10.0554 1.401497 10.73574 0.6123047 11.22559L0.530664 11.10312C 0.9388672 10.72214 1.313053 10.31393 1.653223 9.878515C 1.993392 9.443099 2.285937 8.953255 2.530859 8.408984zM3.877929 8.572266C 4.531054 8.926042 4.932455 9.198177 5.082129 9.388672C 5.231803 9.579166 5.225 9.810482 5.061718 10.08262C 4.898438 10.35475 4.748763 10.31393 4.612695 9.960156C 4.476627 9.60638 4.204492 9.170963 3.796289 8.653906L3.877929 8.572266zM6.898633 5.061719L8.898828 5.061719L8.898828 3.020703L6.898633 3.020703zM6.898633 5.306641C 6.898633 6.06862 6.885026 6.762565 6.857812 7.388476L8.898828 7.388476L8.898828 5.306641L6.898633 5.306641zM7.429296 10.36836C 7.946354 10.45 8.32054 10.49762 8.551855 10.51123C 8.783171 10.52484 8.898828 10.38197 8.898828 10.08262L8.898828 7.633398L6.857812 7.633398C 6.803385 8.585873 6.55166 9.361458 6.102636 9.960156C 5.653613 10.55885 5.088932 11.0623 4.408594 11.47051L4.326953 11.34805C 4.789583 10.96706 5.170573 10.55205 5.469922 10.10303C 5.769271 9.654004 5.986979 9.130143 6.123046 8.531446C 6.259114 7.932747 6.327148 6.939453 6.327148 5.551562C 6.327148 4.163672 6.313541 3.115951 6.286328 2.408399L6.898633 2.775781L8.817187 2.775781L9.102929 2.367579L9.756054 2.857422L9.470312 3.143164L9.470312 10.2459C 9.497526 10.79017 9.198176 11.17116 8.572266 11.38887C 8.572266 11.03509 8.191276 10.74935 7.429296 10.53164L7.429296 10.36836zM7.429296 10.36836z" stroke="none" fill="#000000" fill-rule="evenodd" /></g><g transform="matrix(1 0 0 1 355.7992 685.059)"><path id="418" transform="matrix(1 0 0 1 0 0)" d="M2.775781 9.511132C 2.748568 10.02819 2.619303 10.35475 2.387988 10.49082C 2.156673 10.62689 1.925358 10.62689 1.694043 10.49082C 1.462728 10.35475 1.340267 10.15065 1.32666 9.878515C 1.313053 9.60638 1.435514 9.402279 1.694043 9.266211C 1.952572 9.130143 2.197493 9.136947 2.428808 9.286621zM2.816602 7.021093zM2.816602 7.021093C 2.816602 7.592578 2.67373 7.93955 2.387988 8.062012C 2.102246 8.184473 1.850521 8.170866 1.632812 8.021192C 1.415104 7.871517 1.313053 7.667415 1.32666 7.408887C 1.340267 7.150358 1.469531 6.959863 1.714453 6.837402C 1.959375 6.714941 2.204297 6.714941 2.449219 6.837402zM2.816602 7.021093zM2.816602 7.021093z" stroke="none" fill="#000000" fill-rule="evenodd" /></g><g transform="matrix(1 0 0 1 392.52 685.059)"><path id="419" transform="matrix(1 0 0 1 0 0)" d="M2.898242 6.082227L2.898242 8.204883L5.26582 8.204883L5.26582 6.082227L2.898242 6.082227zM3.877929 2.408399L3.510547 2.57168C 3.292839 2.898242 3.07513 3.224805 2.857422 3.551367L8.164063 3.551367L8.776367 2.939063L9.633594 3.796289L5.878125 3.796289L5.878125 5.837305L7.551757 5.837305L8.123241 5.265821L8.939648 6.082227L5.878125 6.082227L5.878125 8.204883L8.531445 8.204883L9.143749 7.592578L10.00098 8.449804L5.878125 8.449804L5.878125 10.00098C 5.878125 10.46361 5.891732 10.87181 5.918945 11.22559L5.225 11.51133C 5.252213 10.66771 5.26582 10.0554 5.26582 9.674414L5.26582 8.449804L1.796094 8.449804C 1.442318 8.449804 1.115755 8.490625 0.8164062 8.572266L0.4490234 8.204883L2.285937 8.204883C 2.285937 6.95306 2.272331 6.041406 2.245117 5.469922L2.898242 5.837305L5.26582 5.837305L5.26582 3.796289L2.734961 3.796289C 2.462825 4.204492 2.177083 4.578678 1.877734 4.918848C 1.578385 5.259017 1.170182 5.633203 0.653125 6.041406L0.530664 5.959765C 1.020508 5.442708 1.483138 4.837207 1.918555 4.143262C 2.353971 3.449317 2.707747 2.680534 2.979883 1.836914zM2.979883 1.836914z" stroke="none" fill="#000000" fill-rule="evenodd" /></g><g transform="matrix(0.3279263 0 0 0.3282759 340.44 677.22)"><g transform="matrix(1 0 0 1 0 0)"><image x="0" y="0" xlink:href="img_02.png" width="217" height="87" /></g></g></g><g><g transform="matrix(1 0 0 1 345.2398 711.34)"><path id="431" transform="matrix(1 0 0 1 0 0)" d="M2.57168 3.95957L2.57168 5.020898L4.245312 5.020898L4.245312 3.95957L2.57168 3.95957zM2.57168 6.49043L4.245312 6.49043L4.245312 5.265821L2.57168 5.265821zM2.57168 8.000781L4.245312 8.000781L4.245312 6.735352L2.57168 6.735352zM2.000195 3.714649C 2.000195 3.03431 1.986588 2.462826 1.959375 2.000196L2.898242 2.530859L2.57168 2.775781L2.57168 3.714649L4.245312 3.714649C 4.245312 3.224805 4.231705 2.65332 4.204492 2.000196L5.143359 2.490039L4.816797 2.734961L4.816797 3.714649L4.939258 3.714649L5.388281 3.265625L6.082226 3.95957L4.816797 3.95957L4.816797 8.000781L4.857617 8.000781L5.306641 7.551758L6.000586 8.245703L1.551172 8.245703L0.9796875 8.327344L0.653125 8.000781L2.000195 8.000781L2.000195 3.95957L1.632812 3.95957L1.061328 4.041211L0.7347656 3.714649L2.000195 3.714649zM3.265625 9.062109L2.898242 9.18457C 2.163476 10.0554 1.401497 10.73574 0.6123047 11.22559L0.530664 11.10312C 0.9388672 10.72214 1.313053 10.31393 1.653223 9.878515C 1.993392 9.443099 2.285937 8.953255 2.530859 8.408984zM3.877929 8.572266C 4.531054 8.926042 4.932455 9.198177 5.082129 9.388672C 5.231803 9.579166 5.225 9.810482 5.061718 10.08262C 4.898438 10.35475 4.748763 10.31393 4.612695 9.960156C 4.476627 9.60638 4.204492 9.170963 3.796289 8.653906L3.877929 8.572266zM6.898633 5.061719L8.898828 5.061719L8.898828 3.020703L6.898633 3.020703zM6.898633 5.306641C 6.898633 6.06862 6.885026 6.762565 6.857812 7.388476L8.898828 7.388476L8.898828 5.306641L6.898633 5.306641zM7.429296 10.36836C 7.946354 10.45 8.32054 10.49762 8.551855 10.51123C 8.783171 10.52484 8.898828 10.38197 8.898828 10.08262L8.898828 7.633398L6.857812 7.633398C 6.803385 8.585873 6.55166 9.361458 6.102636 9.960156C 5.653613 10.55885 5.088932 11.0623 4.408594 11.47051L4.326953 11.34805C 4.789583 10.96706 5.170573 10.55205 5.469922 10.10303C 5.769271 9.654004 5.986979 9.130143 6.123046 8.531446C 6.259114 7.932747 6.327148 6.939453 6.327148 5.551562C 6.327148 4.163672 6.313541 3.115951 6.286328 2.408399L6.898633 2.775781L8.817187 2.775781L9.102929 2.367579L9.756054 2.857422L9.470312 3.143164L9.470312 10.2459C 9.497526 10.79017 9.198176 11.17116 8.572266 11.38887C 8.572266 11.03509 8.191276 10.74935 7.429296 10.53164L7.429296 10.36836zM7.429296 10.36836z" stroke="none" fill="#000000" fill-rule="evenodd" /></g><g transform="matrix(1 0 0 1 355.7992 711.34)"><path id="432" transform="matrix(1 0 0 1 0 0)" d="M2.775781 9.511132C 2.748568 10.02819 2.619303 10.35475 2.387988 10.49082C 2.156673 10.62689 1.925358 10.62689 1.694043 10.49082C 1.462728 10.35475 1.340267 10.15065 1.32666 9.878515C 1.313053 9.60638 1.435514 9.402279 1.694043 9.266211C 1.952572 9.130143 2.197493 9.136947 2.428808 9.286621zM2.816602 7.021093zM2.816602 7.021093C 2.816602 7.592578 2.67373 7.93955 2.387988 8.062012C 2.102246 8.184473 1.850521 8.170866 1.632812 8.021192C 1.415104 7.871517 1.313053 7.667415 1.32666 7.408887C 1.340267 7.150358 1.469531 6.959863 1.714453 6.837402C 1.959375 6.714941 2.204297 6.714941 2.449219 6.837402zM2.816602 7.021093zM2.816602 7.021093z" stroke="none" fill="#000000" fill-rule="evenodd" /></g><g transform="matrix(1 0 0 1 392.52 711.34)"><path id="433" transform="matrix(1 0 0 1 0 0)" d="M2.898242 6.082227L2.898242 8.204883L5.26582 8.204883L5.26582 6.082227L2.898242 6.082227zM3.877929 2.408399L3.510547 2.57168C 3.292839 2.898242 3.07513 3.224805 2.857422 3.551367L8.164063 3.551367L8.776367 2.939063L9.633594 3.796289L5.878125 3.796289L5.878125 5.837305L7.551757 5.837305L8.123241 5.265821L8.939648 6.082227L5.878125 6.082227L5.878125 8.204883L8.531445 8.204883L9.143749 7.592578L10.00098 8.449804L5.878125 8.449804L5.878125 10.00098C 5.878125 10.46361 5.891732 10.87181 5.918945 11.22559L5.225 11.51133C 5.252213 10.66771 5.26582 10.0554 5.26582 9.674414L5.26582 8.449804L1.796094 8.449804C 1.442318 8.449804 1.115755 8.490625 0.8164062 8.572266L0.4490234 8.204883L2.285937 8.204883C 2.285937 6.95306 2.272331 6.041406 2.245117 5.469922L2.898242 5.837305L5.26582 5.837305L5.26582 3.796289L2.734961 3.796289C 2.462825 4.204492 2.177083 4.578678 1.877734 4.918848C 1.578385 5.259017 1.170182 5.633203 0.653125 6.041406L0.530664 5.959765C 1.020508 5.442708 1.483138 4.837207 1.918555 4.143262C 2.353971 3.449317 2.707747 2.680534 2.979883 1.836914zM2.979883 1.836914z" stroke="none" fill="#000000" fill-rule="evenodd" /></g><g transform="matrix(0.3279263 0 0 0.3282759 341.16 704.34)"><g transform="matrix(1 0 0 1 0 0)"><image x="0" y="0" xlink:href="img_02.png" width="217" height="87" /></g></g></g><g><g transform="matrix(1 0 0 1 424.08 685.059)"><path id="420" transform="matrix(1 0 0 1 0 0)" d="M3.428906 2.898242L3.428906 4.939258L7.388476 4.939258L7.388476 2.898242L3.428906 2.898242zM3.428906 5.18418C 3.428906 5.810091 3.415299 6.476823 3.388086 7.184375L7.388476 7.184375L7.388476 5.18418L3.428906 5.18418zM5.510742 10.28672C 6.245508 10.39557 6.742155 10.4432 7.000683 10.42959C 7.259212 10.41598 7.388476 10.2459 7.388476 9.919335L7.388476 7.429296L3.388086 7.429296C 3.306445 8.517838 3.0139 9.375065 2.510449 10.00098C 2.006999 10.62689 1.415104 11.13034 0.7347656 11.51133L0.653125 11.38887C 1.197396 10.95345 1.619206 10.51803 1.918555 10.08262C 2.217903 9.647201 2.442415 9.136947 2.59209 8.551855C 2.741764 7.966764 2.823405 7.204785 2.837012 6.265918C 2.850618 5.327051 2.843815 3.986784 2.816602 2.245117L3.428906 2.65332L7.306836 2.65332L7.674219 2.204297L8.327343 2.775781L7.95996 3.061523L7.95996 10.32754C 7.95996 10.81738 7.619791 11.17116 6.939453 11.38887C 6.91224 11.00788 6.436002 10.70853 5.510742 10.49082L5.510742 10.28672zM5.510742 10.28672z" stroke="none" fill="#000000" fill-rule="evenodd" /></g><g transform="matrix(0.3268965 0 0 0.3269388 395.04 673.5)"><g transform="matrix(1 0 0 1 0 0)"><image x="0" y="0" xlink:href="img_03.png" width="116" height="98" /></g></g></g><g><g transform="matrix(1 0 0 1 424.08 711.34)"><path id="434" transform="matrix(1 0 0 1 0 0)" d="M3.428906 2.898242L3.428906 4.939258L7.388476 4.939258L7.388476 2.898242L3.428906 2.898242zM3.428906 5.18418C 3.428906 5.810091 3.415299 6.476823 3.388086 7.184375L7.388476 7.184375L7.388476 5.18418L3.428906 5.18418zM5.510742 10.28672C 6.245508 10.39557 6.742155 10.4432 7.000683 10.42959C 7.259212 10.41598 7.388476 10.2459 7.388476 9.919335L7.388476 7.429296L3.388086 7.429296C 3.306445 8.517838 3.0139 9.375065 2.510449 10.00098C 2.006999 10.62689 1.415104 11.13034 0.7347656 11.51133L0.653125 11.38887C 1.197396 10.95345 1.619206 10.51803 1.918555 10.08262C 2.217903 9.647201 2.442415 9.136947 2.59209 8.551855C 2.741764 7.966764 2.823405 7.204785 2.837012 6.265918C 2.850618 5.327051 2.843815 3.986784 2.816602 2.245117L3.428906 2.65332L7.306836 2.65332L7.674219 2.204297L8.327343 2.775781L7.95996 3.061523L7.95996 10.32754C 7.95996 10.81738 7.619791 11.17116 6.939453 11.38887C 6.91224 11.00788 6.436002 10.70853 5.510742 10.49082L5.510742 10.28672zM5.510742 10.28672z" stroke="none" fill="#000000" fill-rule="evenodd" /></g><g transform="matrix(0.3268965 0 0 0.3269388 396.48 700.62)"><g transform="matrix(1 0 0 1 0 0)"><image x="0" y="0" xlink:href="img_03.png" width="116" height="98" /></g></g></g><g><g transform="matrix(1 0 0 1 455.52 685.059)"><path id="421" transform="matrix(1 0 0 1 0 0)" d="M2.816602 2.939063L2.816602 6.041406L7.674219 6.041406L7.674219 2.939063L2.816602 2.939063zM2.816602 9.837695L7.674219 9.837695L7.674219 6.286328L2.816602 6.286328zM2.204297 11.22559C 2.23151 9.619987 2.245117 8.143652 2.245117 6.796582C 2.245117 5.449512 2.23151 3.945963 2.204297 2.285937L2.816602 2.694141L7.592578 2.694141L7.87832 2.285937L8.572266 2.816602L8.245703 3.061523L8.245703 8.653906C 8.245703 9.443099 8.25931 10.16426 8.286523 10.81738L7.674219 11.14394L7.674219 10.08262L2.816602 10.08262L2.816602 10.8582L2.204297 11.22559zM2.204297 11.22559z" stroke="none" fill="#000000" fill-rule="evenodd" /></g><g transform="matrix(0.3255814 0 0 0.3259091 425.28 676.74)"><g transform="matrix(1 0 0 1 0 0)"><image x="0" y="0" xlink:href="img_06.png" width="129" height="88" /></g></g></g><g><g transform="matrix(1 0 0 1 455.52 711.34)"><path id="435" transform="matrix(1 0 0 1 0 0)" d="M2.816602 2.939063L2.816602 6.041406L7.674219 6.041406L7.674219 2.939063L2.816602 2.939063zM2.816602 9.837695L7.674219 9.837695L7.674219 6.286328L2.816602 6.286328zM2.204297 11.22559C 2.23151 9.619987 2.245117 8.143652 2.245117 6.796582C 2.245117 5.449512 2.23151 3.945963 2.204297 2.285937L2.816602 2.694141L7.592578 2.694141L7.87832 2.285937L8.572266 2.816602L8.245703 3.061523L8.245703 8.653906C 8.245703 9.443099 8.25931 10.16426 8.286523 10.81738L7.674219 11.14394L7.674219 10.08262L2.816602 10.08262L2.816602 10.8582L2.204297 11.22559zM2.204297 11.22559z" stroke="none" fill="#000000" fill-rule="evenodd" /></g><g transform="matrix(0.3255814 0 0 0.3259091 424.56 703.86)"><g transform="matrix(1 0 0 1 0 0)"><image x="0" y="0" xlink:href="img_06.png" width="129" height="88" /></g></g></g></g></g></g></svg>