<svg xmlns="http://www.w3.org/2000/svg" xmlns:xlink="http://www.w3.org/1999/xlink" id="body_1" preserveAspectRatio="xMinYMin meet" viewBox="0 0 793 1121"><defs><clipPath id="1"><path id="" clip-rule="evenodd" transform="matrix(1 0 0 1 0 0)" d="M0 841L0 -0.9000244L0 -0.9000244L595.3 -0.9000244L595.3 -0.9000244L595.3 841L595.3 841L0 841z" /></clipPath><clipPath id="2"><path id="" clip-rule="evenodd" transform="matrix(1 0 0 1 0 0)" d="M0 -0.9000244L595.3 -0.9000244L595.3 -0.9000244L595.3 841L595.3 841L0 841z" /></clipPath><clipPath id="3"><path id="" clip-rule="evenodd" transform="matrix(1 0 0 1 0 0)" d="M0 -0.9000244L595.3 -0.9000244L595.3 -0.9000244L595.3 841L595.3 841L0 841z" /></clipPath><clipPath id="4"><path id="" clip-rule="evenodd" transform="matrix(1 0 0 1 0 0)" d="M528.25 787.75L538.35 787.75L538.35 787.75L538.35 799.8L538.35 799.8L528.25 799.8z" /></clipPath><clipPath id="5"><path id="" clip-rule="evenodd" transform="matrix(1 0 0 1 0 0)" d="M0 -0.9000244L595.3 -0.9000244L595.3 -0.9000244L595.3 841L595.3 841L0 841z" /></clipPath><clipPath id="6"><path id="" clip-rule="evenodd" transform="matrix(1 0 0 1 0 0)" d="M0 -0.9000244L595.3 -0.9000244L595.3 -0.9000244L595.3 841L595.3 841L0 841z" /></clipPath><clipPath id="7"><path id="" clip-rule="evenodd" transform="matrix(1 0 0 1 0 0)" d="M84.3 343.85L246.35 343.85L246.35 343.85L246.35 368L246.35 368L84.3 368z" /></clipPath><clipPath id="8"><path id="" clip-rule="evenodd" transform="matrix(1 0 0 1 0 0)" d="M0 -0.9000244L595.3 -0.9000244L595.3 -0.9000244L595.3 841L595.3 841L0 841z" /></clipPath><clipPath id="9"><path id="" clip-rule="evenodd" transform="matrix(1 0 0 1 0 0)" d="M246.3 343.85L282.95 343.85L282.95 343.85L282.95 368L282.95 368L246.3 368z" /></clipPath><clipPath id="10"><path id="" clip-rule="evenodd" transform="matrix(1 0 0 1 0 0)" d="M0 -0.9000244L595.3 -0.9000244L595.3 -0.9000244L595.3 841L595.3 841L0 841z" /></clipPath><clipPath id="11"><path id="" clip-rule="evenodd" transform="matrix(1 0 0 1 0 0)" d="M282.9 343.85L319.55 343.85L319.55 343.85L319.55 368L319.55 368L282.9 368z" /></clipPath><clipPath id="12"><path id="" clip-rule="evenodd" transform="matrix(1 0 0 1 0 0)" d="M0 -0.9000244L595.3 -0.9000244L595.3 -0.9000244L595.3 841L595.3 841L0 841z" /></clipPath><clipPath id="13"><path id="" clip-rule="evenodd" transform="matrix(1 0 0 1 0 0)" d="M319.5 343.85L356.15 343.85L356.15 343.85L356.15 368L356.15 368L319.5 368z" /></clipPath><clipPath id="14"><path id="" clip-rule="evenodd" transform="matrix(1 0 0 1 0 0)" d="M0 -0.9000244L595.3 -0.9000244L595.3 -0.9000244L595.3 841L595.3 841L0 841z" /></clipPath><clipPath id="15"><path id="" clip-rule="evenodd" transform="matrix(1 0 0 1 0 0)" d="M356.1 343.85L392.75 343.85L392.75 343.85L392.75 368L392.75 368L356.1 368z" /></clipPath><clipPath id="16"><path id="" clip-rule="evenodd" transform="matrix(1 0 0 1 0 0)" d="M0 -0.9000244L595.3 -0.9000244L595.3 -0.9000244L595.3 841L595.3 841L0 841z" /></clipPath><clipPath id="17"><path id="" clip-rule="evenodd" transform="matrix(1 0 0 1 0 0)" d="M392.7 343.85L429.35 343.85L429.35 343.85L429.35 368L429.35 368L392.7 368z" /></clipPath><clipPath id="18"><path id="" clip-rule="evenodd" transform="matrix(1 0 0 1 0 0)" d="M0 -0.9000244L595.3 -0.9000244L595.3 -0.9000244L595.3 841L595.3 841L0 841z" /></clipPath><clipPath id="19"><path id="" clip-rule="evenodd" transform="matrix(1 0 0 1 0 0)" d="M429.3 343.85L465.95 343.85L465.95 343.85L465.95 368L465.95 368L429.3 368z" /></clipPath><clipPath id="20"><path id="" clip-rule="evenodd" transform="matrix(1 0 0 1 0 0)" d="M0 -0.9000244L595.3 -0.9000244L595.3 -0.9000244L595.3 841L595.3 841L0 841z" /></clipPath><clipPath id="21"><path id="" clip-rule="evenodd" transform="matrix(1 0 0 1 0 0)" d="M465.9 343.85L502.55 343.85L502.55 343.85L502.55 368L502.55 368L465.9 368z" /></clipPath><clipPath id="22"><path id="" clip-rule="evenodd" transform="matrix(1 0 0 1 0 0)" d="M0 -0.9000244L595.3 -0.9000244L595.3 -0.9000244L595.3 841L595.3 841L0 841z" /></clipPath><clipPath id="23"><path id="" clip-rule="evenodd" transform="matrix(1 0 0 1 0 0)" d="M502.5 343.85L539.4 343.85L539.4 343.85L539.4 368L539.4 368L502.5 368z" /></clipPath><clipPath id="24"><path id="" clip-rule="evenodd" transform="matrix(1 0 0 1 0 0)" d="M0 -0.9000244L595.3 -0.9000244L595.3 -0.9000244L595.3 841L595.3 841L0 841z" /></clipPath><clipPath id="25"><path id="" clip-rule="evenodd" transform="matrix(1 0 0 1 0 0)" d="M84.3 368L246.35 368L246.35 368L246.35 391.65L246.35 391.65L84.3 391.65z" /></clipPath><clipPath id="26"><path id="" clip-rule="evenodd" transform="matrix(1 0 0 1 0 0)" d="M0 -0.9000244L595.3 -0.9000244L595.3 -0.9000244L595.3 841L595.3 841L0 841z" /></clipPath><clipPath id="27"><path id="" clip-rule="evenodd" transform="matrix(1 0 0 1 0 0)" d="M246.3 368L282.95 368L282.95 368L282.95 391.65L282.95 391.65L246.3 391.65z" /></clipPath><clipPath id="28"><path id="" clip-rule="evenodd" transform="matrix(1 0 0 1 0 0)" d="M0 -0.9000244L595.3 -0.9000244L595.3 -0.9000244L595.3 841L595.3 841L0 841z" /></clipPath><clipPath id="29"><path id="" clip-rule="evenodd" transform="matrix(1 0 0 1 0 0)" d="M282.9 368L319.55 368L319.55 368L319.55 391.65L319.55 391.65L282.9 391.65z" /></clipPath><clipPath id="30"><path id="" clip-rule="evenodd" transform="matrix(1 0 0 1 0 0)" d="M0 -0.9000244L595.3 -0.9000244L595.3 -0.9000244L595.3 841L595.3 841L0 841z" /></clipPath><clipPath id="31"><path id="" clip-rule="evenodd" transform="matrix(1 0 0 1 0 0)" d="M319.5 368L356.15 368L356.15 368L356.15 391.65L356.15 391.65L319.5 391.65z" /></clipPath><clipPath id="32"><path id="" clip-rule="evenodd" transform="matrix(1 0 0 1 0 0)" d="M0 -0.9000244L595.3 -0.9000244L595.3 -0.9000244L595.3 841L595.3 841L0 841z" /></clipPath><clipPath id="33"><path id="" clip-rule="evenodd" transform="matrix(1 0 0 1 0 0)" d="M356.1 368L392.75 368L392.75 368L392.75 391.65L392.75 391.65L356.1 391.65z" /></clipPath><clipPath id="34"><path id="" clip-rule="evenodd" transform="matrix(1 0 0 1 0 0)" d="M0 -0.9000244L595.3 -0.9000244L595.3 -0.9000244L595.3 841L595.3 841L0 841z" /></clipPath><clipPath id="35"><path id="" clip-rule="evenodd" transform="matrix(1 0 0 1 0 0)" d="M392.7 368L429.35 368L429.35 368L429.35 391.65L429.35 391.65L392.7 391.65z" /></clipPath><clipPath id="36"><path id="" clip-rule="evenodd" transform="matrix(1 0 0 1 0 0)" d="M0 -0.9000244L595.3 -0.9000244L595.3 -0.9000244L595.3 841L595.3 841L0 841z" /></clipPath><clipPath id="37"><path id="" clip-rule="evenodd" transform="matrix(1 0 0 1 0 0)" d="M429.3 368L465.95 368L465.95 368L465.95 391.65L465.95 391.65L429.3 391.65z" /></clipPath><clipPath id="38"><path id="" clip-rule="evenodd" transform="matrix(1 0 0 1 0 0)" d="M0 -0.9000244L595.3 -0.9000244L595.3 -0.9000244L595.3 841L595.3 841L0 841z" /></clipPath><clipPath id="39"><path id="" clip-rule="evenodd" transform="matrix(1 0 0 1 0 0)" d="M465.9 368L502.55 368L502.55 368L502.55 391.65L502.55 391.65L465.9 391.65z" /></clipPath><clipPath id="40"><path id="" clip-rule="evenodd" transform="matrix(1 0 0 1 0 0)" d="M0 -0.9000244L595.3 -0.9000244L595.3 -0.9000244L595.3 841L595.3 841L0 841z" /></clipPath><clipPath id="41"><path id="" clip-rule="evenodd" transform="matrix(1 0 0 1 0 0)" d="M502.5 368L539.4 368L539.4 368L539.4 391.65L539.4 391.65L502.5 391.65z" /></clipPath><clipPath id="42"><path id="" clip-rule="evenodd" transform="matrix(1 0 0 1 0 0)" d="M0 -0.9000244L595.3 -0.9000244L595.3 -0.9000244L595.3 841L595.3 841L0 841z" /></clipPath><clipPath id="43"><path id="" clip-rule="evenodd" transform="matrix(1 0 0 1 0 0)" d="M84.3 391.65L246.35 391.65L246.35 391.65L246.35 414.3L246.35 414.3L84.3 414.3z" /></clipPath><clipPath id="44"><path id="" clip-rule="evenodd" transform="matrix(1 0 0 1 0 0)" d="M0 -0.9000244L595.3 -0.9000244L595.3 -0.9000244L595.3 841L595.3 841L0 841z" /></clipPath><clipPath id="45"><path id="" clip-rule="evenodd" transform="matrix(1 0 0 1 0 0)" d="M246.3 391.65L282.95 391.65L282.95 391.65L282.95 414.3L282.95 414.3L246.3 414.3z" /></clipPath><clipPath id="46"><path id="" clip-rule="evenodd" transform="matrix(1 0 0 1 0 0)" d="M0 -0.9000244L595.3 -0.9000244L595.3 -0.9000244L595.3 841L595.3 841L0 841z" /></clipPath><clipPath id="47"><path id="" clip-rule="evenodd" transform="matrix(1 0 0 1 0 0)" d="M282.9 391.65L319.55 391.65L319.55 391.65L319.55 414.3L319.55 414.3L282.9 414.3z" /></clipPath><clipPath id="48"><path id="" clip-rule="evenodd" transform="matrix(1 0 0 1 0 0)" d="M0 -0.9000244L595.3 -0.9000244L595.3 -0.9000244L595.3 841L595.3 841L0 841z" /></clipPath><clipPath id="49"><path id="" clip-rule="evenodd" transform="matrix(1 0 0 1 0 0)" d="M319.5 391.65L356.15 391.65L356.15 391.65L356.15 414.3L356.15 414.3L319.5 414.3z" /></clipPath><clipPath id="50"><path id="" clip-rule="evenodd" transform="matrix(1 0 0 1 0 0)" d="M0 -0.9000244L595.3 -0.9000244L595.3 -0.9000244L595.3 841L595.3 841L0 841z" /></clipPath><clipPath id="51"><path id="" clip-rule="evenodd" transform="matrix(1 0 0 1 0 0)" d="M356.1 391.65L392.75 391.65L392.75 391.65L392.75 414.3L392.75 414.3L356.1 414.3z" /></clipPath><clipPath id="52"><path id="" clip-rule="evenodd" transform="matrix(1 0 0 1 0 0)" d="M0 -0.9000244L595.3 -0.9000244L595.3 -0.9000244L595.3 841L595.3 841L0 841z" /></clipPath><clipPath id="53"><path id="" clip-rule="evenodd" transform="matrix(1 0 0 1 0 0)" d="M392.7 391.65L429.35 391.65L429.35 391.65L429.35 414.3L429.35 414.3L392.7 414.3z" /></clipPath><clipPath id="54"><path id="" clip-rule="evenodd" transform="matrix(1 0 0 1 0 0)" d="M0 -0.9000244L595.3 -0.9000244L595.3 -0.9000244L595.3 841L595.3 841L0 841z" /></clipPath><clipPath id="55"><path id="" clip-rule="evenodd" transform="matrix(1 0 0 1 0 0)" d="M429.3 391.65L465.95 391.65L465.95 391.65L465.95 414.3L465.95 414.3L429.3 414.3z" /></clipPath><clipPath id="56"><path id="" clip-rule="evenodd" transform="matrix(1 0 0 1 0 0)" d="M0 -0.9000244L595.3 -0.9000244L595.3 -0.9000244L595.3 841L595.3 841L0 841z" /></clipPath><clipPath id="57"><path id="" clip-rule="evenodd" transform="matrix(1 0 0 1 0 0)" d="M465.9 391.65L502.55 391.65L502.55 391.65L502.55 414.3L502.55 414.3L465.9 414.3z" /></clipPath><clipPath id="58"><path id="" clip-rule="evenodd" transform="matrix(1 0 0 1 0 0)" d="M0 -0.9000244L595.3 -0.9000244L595.3 -0.9000244L595.3 841L595.3 841L0 841z" /></clipPath><clipPath id="59"><path id="" clip-rule="evenodd" transform="matrix(1 0 0 1 0 0)" d="M502.5 391.65L539.4 391.65L539.4 391.65L539.4 414.3L539.4 414.3L502.5 414.3z" /></clipPath><clipPath id="60"><path id="" clip-rule="evenodd" transform="matrix(1 0 0 1 0 0)" d="M0 -0.9000244L595.3 -0.9000244L595.3 -0.9000244L595.3 841L595.3 841L0 841z" /></clipPath><clipPath id="61"><path id="" clip-rule="evenodd" transform="matrix(1 0 0 1 0 0)" d="M84.3 414.3L246.35 414.3L246.35 414.3L246.35 436.95L246.35 436.95L84.3 436.95z" /></clipPath><clipPath id="62"><path id="" clip-rule="evenodd" transform="matrix(1 0 0 1 0 0)" d="M0 -0.9000244L595.3 -0.9000244L595.3 -0.9000244L595.3 841L595.3 841L0 841z" /></clipPath><clipPath id="63"><path id="" clip-rule="evenodd" transform="matrix(1 0 0 1 0 0)" d="M246.3 414.3L282.95 414.3L282.95 414.3L282.95 436.95L282.95 436.95L246.3 436.95z" /></clipPath><clipPath id="64"><path id="" clip-rule="evenodd" transform="matrix(1 0 0 1 0 0)" d="M0 -0.9000244L595.3 -0.9000244L595.3 -0.9000244L595.3 841L595.3 841L0 841z" /></clipPath><clipPath id="65"><path id="" clip-rule="evenodd" transform="matrix(1 0 0 1 0 0)" d="M282.9 414.3L319.55 414.3L319.55 414.3L319.55 436.95L319.55 436.95L282.9 436.95z" /></clipPath><clipPath id="66"><path id="" clip-rule="evenodd" transform="matrix(1 0 0 1 0 0)" d="M0 -0.9000244L595.3 -0.9000244L595.3 -0.9000244L595.3 841L595.3 841L0 841z" /></clipPath><clipPath id="67"><path id="" clip-rule="evenodd" transform="matrix(1 0 0 1 0 0)" d="M319.5 414.3L356.15 414.3L356.15 414.3L356.15 436.95L356.15 436.95L319.5 436.95z" /></clipPath><clipPath id="68"><path id="" clip-rule="evenodd" transform="matrix(1 0 0 1 0 0)" d="M0 -0.9000244L595.3 -0.9000244L595.3 -0.9000244L595.3 841L595.3 841L0 841z" /></clipPath><clipPath id="69"><path id="" clip-rule="evenodd" transform="matrix(1 0 0 1 0 0)" d="M356.1 414.3L392.75 414.3L392.75 414.3L392.75 436.95L392.75 436.95L356.1 436.95z" /></clipPath><clipPath id="70"><path id="" clip-rule="evenodd" transform="matrix(1 0 0 1 0 0)" d="M0 -0.9000244L595.3 -0.9000244L595.3 -0.9000244L595.3 841L595.3 841L0 841z" /></clipPath><clipPath id="71"><path id="" clip-rule="evenodd" transform="matrix(1 0 0 1 0 0)" d="M392.7 414.3L429.35 414.3L429.35 414.3L429.35 436.95L429.35 436.95L392.7 436.95z" /></clipPath><clipPath id="72"><path id="" clip-rule="evenodd" transform="matrix(1 0 0 1 0 0)" d="M0 -0.9000244L595.3 -0.9000244L595.3 -0.9000244L595.3 841L595.3 841L0 841z" /></clipPath><clipPath id="73"><path id="" clip-rule="evenodd" transform="matrix(1 0 0 1 0 0)" d="M429.3 414.3L465.95 414.3L465.95 414.3L465.95 436.95L465.95 436.95L429.3 436.95z" /></clipPath><clipPath id="74"><path id="" clip-rule="evenodd" transform="matrix(1 0 0 1 0 0)" d="M0 -0.9000244L595.3 -0.9000244L595.3 -0.9000244L595.3 841L595.3 841L0 841z" /></clipPath><clipPath id="75"><path id="" clip-rule="evenodd" transform="matrix(1 0 0 1 0 0)" d="M465.9 414.3L502.55 414.3L502.55 414.3L502.55 436.95L502.55 436.95L465.9 436.95z" /></clipPath><clipPath id="76"><path id="" clip-rule="evenodd" transform="matrix(1 0 0 1 0 0)" d="M0 -0.9000244L595.3 -0.9000244L595.3 -0.9000244L595.3 841L595.3 841L0 841z" /></clipPath><clipPath id="77"><path id="" clip-rule="evenodd" transform="matrix(1 0 0 1 0 0)" d="M502.5 414.3L539.4 414.3L539.4 414.3L539.4 436.95L539.4 436.95L502.5 436.95z" /></clipPath><clipPath id="78"><path id="" clip-rule="evenodd" transform="matrix(1 0 0 1 0 0)" d="M0 -0.9000244L595.3 -0.9000244L595.3 -0.9000244L595.3 841L595.3 841L0 841z" /></clipPath><clipPath id="79"><path id="" clip-rule="evenodd" transform="matrix(1 0 0 1 0 0)" d="M84.3 436.95L246.35 436.95L246.35 436.95L246.35 459.6L246.35 459.6L84.3 459.6z" /></clipPath><clipPath id="80"><path id="" clip-rule="evenodd" transform="matrix(1 0 0 1 0 0)" d="M0 -0.9000244L595.3 -0.9000244L595.3 -0.9000244L595.3 841L595.3 841L0 841z" /></clipPath><clipPath id="81"><path id="" clip-rule="evenodd" transform="matrix(1 0 0 1 0 0)" d="M246.3 436.95L282.95 436.95L282.95 436.95L282.95 459.6L282.95 459.6L246.3 459.6z" /></clipPath><clipPath id="82"><path id="" clip-rule="evenodd" transform="matrix(1 0 0 1 0 0)" d="M0 -0.9000244L595.3 -0.9000244L595.3 -0.9000244L595.3 841L595.3 841L0 841z" /></clipPath><clipPath id="83"><path id="" clip-rule="evenodd" transform="matrix(1 0 0 1 0 0)" d="M282.9 436.95L319.55 436.95L319.55 436.95L319.55 459.6L319.55 459.6L282.9 459.6z" /></clipPath><clipPath id="84"><path id="" clip-rule="evenodd" transform="matrix(1 0 0 1 0 0)" d="M0 -0.9000244L595.3 -0.9000244L595.3 -0.9000244L595.3 841L595.3 841L0 841z" /></clipPath><clipPath id="85"><path id="" clip-rule="evenodd" transform="matrix(1 0 0 1 0 0)" d="M319.5 436.95L356.15 436.95L356.15 436.95L356.15 459.6L356.15 459.6L319.5 459.6z" /></clipPath><clipPath id="86"><path id="" clip-rule="evenodd" transform="matrix(1 0 0 1 0 0)" d="M0 -0.9000244L595.3 -0.9000244L595.3 -0.9000244L595.3 841L595.3 841L0 841z" /></clipPath><clipPath id="87"><path id="" clip-rule="evenodd" transform="matrix(1 0 0 1 0 0)" d="M356.1 436.95L392.75 436.95L392.75 436.95L392.75 459.6L392.75 459.6L356.1 459.6z" /></clipPath><clipPath id="88"><path id="" clip-rule="evenodd" transform="matrix(1 0 0 1 0 0)" d="M0 -0.9000244L595.3 -0.9000244L595.3 -0.9000244L595.3 841L595.3 841L0 841z" /></clipPath><clipPath id="89"><path id="" clip-rule="evenodd" transform="matrix(1 0 0 1 0 0)" d="M392.7 436.95L429.35 436.95L429.35 436.95L429.35 459.6L429.35 459.6L392.7 459.6z" /></clipPath><clipPath id="90"><path id="" clip-rule="evenodd" transform="matrix(1 0 0 1 0 0)" d="M0 -0.9000244L595.3 -0.9000244L595.3 -0.9000244L595.3 841L595.3 841L0 841z" /></clipPath><clipPath id="91"><path id="" clip-rule="evenodd" transform="matrix(1 0 0 1 0 0)" d="M429.3 436.95L465.95 436.95L465.95 436.95L465.95 459.6L465.95 459.6L429.3 459.6z" /></clipPath><clipPath id="92"><path id="" clip-rule="evenodd" transform="matrix(1 0 0 1 0 0)" d="M0 -0.9000244L595.3 -0.9000244L595.3 -0.9000244L595.3 841L595.3 841L0 841z" /></clipPath><clipPath id="93"><path id="" clip-rule="evenodd" transform="matrix(1 0 0 1 0 0)" d="M465.9 436.95L502.55 436.95L502.55 436.95L502.55 459.6L502.55 459.6L465.9 459.6z" /></clipPath><clipPath id="94"><path id="" clip-rule="evenodd" transform="matrix(1 0 0 1 0 0)" d="M0 -0.9000244L595.3 -0.9000244L595.3 -0.9000244L595.3 841L595.3 841L0 841z" /></clipPath><clipPath id="95"><path id="" clip-rule="evenodd" transform="matrix(1 0 0 1 0 0)" d="M502.5 436.95L539.4 436.95L539.4 436.95L539.4 459.6L539.4 459.6L502.5 459.6z" /></clipPath><clipPath id="96"><path id="" clip-rule="evenodd" transform="matrix(1 0 0 1 0 0)" d="M0 -0.9000244L595.3 -0.9000244L595.3 -0.9000244L595.3 841L595.3 841L0 841z" /></clipPath><clipPath id="97"><path id="" clip-rule="evenodd" transform="matrix(1 0 0 1 0 0)" d="M84.3 459.6L246.35 459.6L246.35 459.6L246.35 482.25L246.35 482.25L84.3 482.25z" /></clipPath><clipPath id="98"><path id="" clip-rule="evenodd" transform="matrix(1 0 0 1 0 0)" d="M0 -0.9000244L595.3 -0.9000244L595.3 -0.9000244L595.3 841L595.3 841L0 841z" /></clipPath><clipPath id="99"><path id="" clip-rule="evenodd" transform="matrix(1 0 0 1 0 0)" d="M246.3 459.6L282.95 459.6L282.95 459.6L282.95 482.25L282.95 482.25L246.3 482.25z" /></clipPath><clipPath id="100"><path id="" clip-rule="evenodd" transform="matrix(1 0 0 1 0 0)" d="M0 -0.9000244L595.3 -0.9000244L595.3 -0.9000244L595.3 841L595.3 841L0 841z" /></clipPath><clipPath id="101"><path id="" clip-rule="evenodd" transform="matrix(1 0 0 1 0 0)" d="M282.9 459.6L319.55 459.6L319.55 459.6L319.55 482.25L319.55 482.25L282.9 482.25z" /></clipPath><clipPath id="102"><path id="" clip-rule="evenodd" transform="matrix(1 0 0 1 0 0)" d="M0 -0.9000244L595.3 -0.9000244L595.3 -0.9000244L595.3 841L595.3 841L0 841z" /></clipPath><clipPath id="103"><path id="" clip-rule="evenodd" transform="matrix(1 0 0 1 0 0)" d="M319.5 459.6L356.15 459.6L356.15 459.6L356.15 482.25L356.15 482.25L319.5 482.25z" /></clipPath><clipPath id="104"><path id="" clip-rule="evenodd" transform="matrix(1 0 0 1 0 0)" d="M0 -0.9000244L595.3 -0.9000244L595.3 -0.9000244L595.3 841L595.3 841L0 841z" /></clipPath><clipPath id="105"><path id="" clip-rule="evenodd" transform="matrix(1 0 0 1 0 0)" d="M356.1 459.6L392.75 459.6L392.75 459.6L392.75 482.25L392.75 482.25L356.1 482.25z" /></clipPath><clipPath id="106"><path id="" clip-rule="evenodd" transform="matrix(1 0 0 1 0 0)" d="M0 -0.9000244L595.3 -0.9000244L595.3 -0.9000244L595.3 841L595.3 841L0 841z" /></clipPath><clipPath id="107"><path id="" clip-rule="evenodd" transform="matrix(1 0 0 1 0 0)" d="M392.7 459.6L429.35 459.6L429.35 459.6L429.35 482.25L429.35 482.25L392.7 482.25z" /></clipPath><clipPath id="108"><path id="" clip-rule="evenodd" transform="matrix(1 0 0 1 0 0)" d="M0 -0.9000244L595.3 -0.9000244L595.3 -0.9000244L595.3 841L595.3 841L0 841z" /></clipPath><clipPath id="109"><path id="" clip-rule="evenodd" transform="matrix(1 0 0 1 0 0)" d="M429.3 459.6L465.95 459.6L465.95 459.6L465.95 482.25L465.95 482.25L429.3 482.25z" /></clipPath><clipPath id="110"><path id="" clip-rule="evenodd" transform="matrix(1 0 0 1 0 0)" d="M0 -0.9000244L595.3 -0.9000244L595.3 -0.9000244L595.3 841L595.3 841L0 841z" /></clipPath><clipPath id="111"><path id="" clip-rule="evenodd" transform="matrix(1 0 0 1 0 0)" d="M465.9 459.6L502.55 459.6L502.55 459.6L502.55 482.25L502.55 482.25L465.9 482.25z" /></clipPath><clipPath id="112"><path id="" clip-rule="evenodd" transform="matrix(1 0 0 1 0 0)" d="M0 -0.9000244L595.3 -0.9000244L595.3 -0.9000244L595.3 841L595.3 841L0 841z" /></clipPath><clipPath id="113"><path id="" clip-rule="evenodd" transform="matrix(1 0 0 1 0 0)" d="M502.5 459.6L539.4 459.6L539.4 459.6L539.4 482.25L539.4 482.25L502.5 482.25z" /></clipPath><clipPath id="114"><path id="" clip-rule="evenodd" transform="matrix(1 0 0 1 0 0)" d="M0 -0.9000244L595.3 -0.9000244L595.3 -0.9000244L595.3 841L595.3 841L0 841z" /></clipPath><clipPath id="115"><path id="" clip-rule="evenodd" transform="matrix(1 0 0 1 0 0)" d="M84.3 482.25L246.35 482.25L246.35 482.25L246.35 504.9L246.35 504.9L84.3 504.9z" /></clipPath><clipPath id="116"><path id="" clip-rule="evenodd" transform="matrix(1 0 0 1 0 0)" d="M0 -0.9000244L595.3 -0.9000244L595.3 -0.9000244L595.3 841L595.3 841L0 841z" /></clipPath><clipPath id="117"><path id="" clip-rule="evenodd" transform="matrix(1 0 0 1 0 0)" d="M246.3 482.25L282.95 482.25L282.95 482.25L282.95 504.9L282.95 504.9L246.3 504.9z" /></clipPath><clipPath id="118"><path id="" clip-rule="evenodd" transform="matrix(1 0 0 1 0 0)" d="M0 -0.9000244L595.3 -0.9000244L595.3 -0.9000244L595.3 841L595.3 841L0 841z" /></clipPath><clipPath id="119"><path id="" clip-rule="evenodd" transform="matrix(1 0 0 1 0 0)" d="M282.9 482.25L319.55 482.25L319.55 482.25L319.55 504.9L319.55 504.9L282.9 504.9z" /></clipPath><clipPath id="120"><path id="" clip-rule="evenodd" transform="matrix(1 0 0 1 0 0)" d="M0 -0.9000244L595.3 -0.9000244L595.3 -0.9000244L595.3 841L595.3 841L0 841z" /></clipPath><clipPath id="121"><path id="" clip-rule="evenodd" transform="matrix(1 0 0 1 0 0)" d="M319.5 482.25L356.15 482.25L356.15 482.25L356.15 504.9L356.15 504.9L319.5 504.9z" /></clipPath><clipPath id="122"><path id="" clip-rule="evenodd" transform="matrix(1 0 0 1 0 0)" d="M0 -0.9000244L595.3 -0.9000244L595.3 -0.9000244L595.3 841L595.3 841L0 841z" /></clipPath><clipPath id="123"><path id="" clip-rule="evenodd" transform="matrix(1 0 0 1 0 0)" d="M356.1 482.25L392.75 482.25L392.75 482.25L392.75 504.9L392.75 504.9L356.1 504.9z" /></clipPath><clipPath id="124"><path id="" clip-rule="evenodd" transform="matrix(1 0 0 1 0 0)" d="M0 -0.9000244L595.3 -0.9000244L595.3 -0.9000244L595.3 841L595.3 841L0 841z" /></clipPath><clipPath id="125"><path id="" clip-rule="evenodd" transform="matrix(1 0 0 1 0 0)" d="M392.7 482.25L429.35 482.25L429.35 482.25L429.35 504.9L429.35 504.9L392.7 504.9z" /></clipPath><clipPath id="126"><path id="" clip-rule="evenodd" transform="matrix(1 0 0 1 0 0)" d="M0 -0.9000244L595.3 -0.9000244L595.3 -0.9000244L595.3 841L595.3 841L0 841z" /></clipPath><clipPath id="127"><path id="" clip-rule="evenodd" transform="matrix(1 0 0 1 0 0)" d="M429.3 482.25L465.95 482.25L465.95 482.25L465.95 504.9L465.95 504.9L429.3 504.9z" /></clipPath><clipPath id="128"><path id="" clip-rule="evenodd" transform="matrix(1 0 0 1 0 0)" d="M0 -0.9000244L595.3 -0.9000244L595.3 -0.9000244L595.3 841L595.3 841L0 841z" /></clipPath><clipPath id="129"><path id="" clip-rule="evenodd" transform="matrix(1 0 0 1 0 0)" d="M465.9 482.25L502.55 482.25L502.55 482.25L502.55 504.9L502.55 504.9L465.9 504.9z" /></clipPath><clipPath id="130"><path id="" clip-rule="evenodd" transform="matrix(1 0 0 1 0 0)" d="M0 -0.9000244L595.3 -0.9000244L595.3 -0.9000244L595.3 841L595.3 841L0 841z" /></clipPath><clipPath id="131"><path id="" clip-rule="evenodd" transform="matrix(1 0 0 1 0 0)" d="M502.5 482.25L539.4 482.25L539.4 482.25L539.4 504.9L539.4 504.9L502.5 504.9z" /></clipPath><clipPath id="132"><path id="" clip-rule="evenodd" transform="matrix(1 0 0 1 0 0)" d="M0 -0.9000244L595.3 -0.9000244L595.3 -0.9000244L595.3 841L595.3 841L0 841z" /></clipPath><clipPath id="133"><path id="" clip-rule="evenodd" transform="matrix(1 0 0 1 0 0)" d="M84.3 504.9L246.35 504.9L246.35 504.9L246.35 527.55L246.35 527.55L84.3 527.55z" /></clipPath><clipPath id="134"><path id="" clip-rule="evenodd" transform="matrix(1 0 0 1 0 0)" d="M0 -0.9000244L595.3 -0.9000244L595.3 -0.9000244L595.3 841L595.3 841L0 841z" /></clipPath><clipPath id="135"><path id="" clip-rule="evenodd" transform="matrix(1 0 0 1 0 0)" d="M246.3 504.9L282.95 504.9L282.95 504.9L282.95 527.55L282.95 527.55L246.3 527.55z" /></clipPath><clipPath id="136"><path id="" clip-rule="evenodd" transform="matrix(1 0 0 1 0 0)" d="M0 -0.9000244L595.3 -0.9000244L595.3 -0.9000244L595.3 841L595.3 841L0 841z" /></clipPath><clipPath id="137"><path id="" clip-rule="evenodd" transform="matrix(1 0 0 1 0 0)" d="M282.9 504.9L319.55 504.9L319.55 504.9L319.55 527.55L319.55 527.55L282.9 527.55z" /></clipPath><clipPath id="138"><path id="" clip-rule="evenodd" transform="matrix(1 0 0 1 0 0)" d="M0 -0.9000244L595.3 -0.9000244L595.3 -0.9000244L595.3 841L595.3 841L0 841z" /></clipPath><clipPath id="139"><path id="" clip-rule="evenodd" transform="matrix(1 0 0 1 0 0)" d="M319.5 504.9L356.15 504.9L356.15 504.9L356.15 527.55L356.15 527.55L319.5 527.55z" /></clipPath><clipPath id="140"><path id="" clip-rule="evenodd" transform="matrix(1 0 0 1 0 0)" d="M0 -0.9000244L595.3 -0.9000244L595.3 -0.9000244L595.3 841L595.3 841L0 841z" /></clipPath><clipPath id="141"><path id="" clip-rule="evenodd" transform="matrix(1 0 0 1 0 0)" d="M356.1 504.9L392.75 504.9L392.75 504.9L392.75 527.55L392.75 527.55L356.1 527.55z" /></clipPath><clipPath id="142"><path id="" clip-rule="evenodd" transform="matrix(1 0 0 1 0 0)" d="M0 -0.9000244L595.3 -0.9000244L595.3 -0.9000244L595.3 841L595.3 841L0 841z" /></clipPath><clipPath id="143"><path id="" clip-rule="evenodd" transform="matrix(1 0 0 1 0 0)" d="M392.7 504.9L429.35 504.9L429.35 504.9L429.35 527.55L429.35 527.55L392.7 527.55z" /></clipPath><clipPath id="144"><path id="" clip-rule="evenodd" transform="matrix(1 0 0 1 0 0)" d="M0 -0.9000244L595.3 -0.9000244L595.3 -0.9000244L595.3 841L595.3 841L0 841z" /></clipPath><clipPath id="145"><path id="" clip-rule="evenodd" transform="matrix(1 0 0 1 0 0)" d="M429.3 504.9L465.95 504.9L465.95 504.9L465.95 527.55L465.95 527.55L429.3 527.55z" /></clipPath><clipPath id="146"><path id="" clip-rule="evenodd" transform="matrix(1 0 0 1 0 0)" d="M0 -0.9000244L595.3 -0.9000244L595.3 -0.9000244L595.3 841L595.3 841L0 841z" /></clipPath><clipPath id="147"><path id="" clip-rule="evenodd" transform="matrix(1 0 0 1 0 0)" d="M465.9 504.9L502.55 504.9L502.55 504.9L502.55 527.55L502.55 527.55L465.9 527.55z" /></clipPath><clipPath id="148"><path id="" clip-rule="evenodd" transform="matrix(1 0 0 1 0 0)" d="M0 -0.9000244L595.3 -0.9000244L595.3 -0.9000244L595.3 841L595.3 841L0 841z" /></clipPath><clipPath id="149"><path id="" clip-rule="evenodd" transform="matrix(1 0 0 1 0 0)" d="M502.5 504.9L539.4 504.9L539.4 504.9L539.4 527.55L539.4 527.55L502.5 527.55z" /></clipPath><clipPath id="150"><path id="" clip-rule="evenodd" transform="matrix(1 0 0 1 0 0)" d="M0 -0.9000244L595.3 -0.9000244L595.3 -0.9000244L595.3 841L595.3 841L0 841z" /></clipPath><clipPath id="151"><path id="" clip-rule="evenodd" transform="matrix(1 0 0 1 0 0)" d="M84.3 527.55L246.35 527.55L246.35 527.55L246.35 550.2L246.35 550.2L84.3 550.2z" /></clipPath><clipPath id="152"><path id="" clip-rule="evenodd" transform="matrix(1 0 0 1 0 0)" d="M0 -0.9000244L595.3 -0.9000244L595.3 -0.9000244L595.3 841L595.3 841L0 841z" /></clipPath><clipPath id="153"><path id="" clip-rule="evenodd" transform="matrix(1 0 0 1 0 0)" d="M246.3 527.55L282.95 527.55L282.95 527.55L282.95 550.2L282.95 550.2L246.3 550.2z" /></clipPath><clipPath id="154"><path id="" clip-rule="evenodd" transform="matrix(1 0 0 1 0 0)" d="M0 -0.9000244L595.3 -0.9000244L595.3 -0.9000244L595.3 841L595.3 841L0 841z" /></clipPath><clipPath id="155"><path id="" clip-rule="evenodd" transform="matrix(1 0 0 1 0 0)" d="M282.9 527.55L319.55 527.55L319.55 527.55L319.55 550.2L319.55 550.2L282.9 550.2z" /></clipPath><clipPath id="156"><path id="" clip-rule="evenodd" transform="matrix(1 0 0 1 0 0)" d="M0 -0.9000244L595.3 -0.9000244L595.3 -0.9000244L595.3 841L595.3 841L0 841z" /></clipPath><clipPath id="157"><path id="" clip-rule="evenodd" transform="matrix(1 0 0 1 0 0)" d="M319.5 527.55L356.15 527.55L356.15 527.55L356.15 550.2L356.15 550.2L319.5 550.2z" /></clipPath><clipPath id="158"><path id="" clip-rule="evenodd" transform="matrix(1 0 0 1 0 0)" d="M0 -0.9000244L595.3 -0.9000244L595.3 -0.9000244L595.3 841L595.3 841L0 841z" /></clipPath><clipPath id="159"><path id="" clip-rule="evenodd" transform="matrix(1 0 0 1 0 0)" d="M356.1 527.55L392.75 527.55L392.75 527.55L392.75 550.2L392.75 550.2L356.1 550.2z" /></clipPath><clipPath id="160"><path id="" clip-rule="evenodd" transform="matrix(1 0 0 1 0 0)" d="M0 -0.9000244L595.3 -0.9000244L595.3 -0.9000244L595.3 841L595.3 841L0 841z" /></clipPath><clipPath id="161"><path id="" clip-rule="evenodd" transform="matrix(1 0 0 1 0 0)" d="M392.7 527.55L429.35 527.55L429.35 527.55L429.35 550.2L429.35 550.2L392.7 550.2z" /></clipPath><clipPath id="162"><path id="" clip-rule="evenodd" transform="matrix(1 0 0 1 0 0)" d="M0 -0.9000244L595.3 -0.9000244L595.3 -0.9000244L595.3 841L595.3 841L0 841z" /></clipPath><clipPath id="163"><path id="" clip-rule="evenodd" transform="matrix(1 0 0 1 0 0)" d="M429.3 527.55L465.95 527.55L465.95 527.55L465.95 550.2L465.95 550.2L429.3 550.2z" /></clipPath><clipPath id="164"><path id="" clip-rule="evenodd" transform="matrix(1 0 0 1 0 0)" d="M0 -0.9000244L595.3 -0.9000244L595.3 -0.9000244L595.3 841L595.3 841L0 841z" /></clipPath><clipPath id="165"><path id="" clip-rule="evenodd" transform="matrix(1 0 0 1 0 0)" d="M465.9 527.55L502.55 527.55L502.55 527.55L502.55 550.2L502.55 550.2L465.9 550.2z" /></clipPath><clipPath id="166"><path id="" clip-rule="evenodd" transform="matrix(1 0 0 1 0 0)" d="M0 -0.9000244L595.3 -0.9000244L595.3 -0.9000244L595.3 841L595.3 841L0 841z" /></clipPath><clipPath id="167"><path id="" clip-rule="evenodd" transform="matrix(1 0 0 1 0 0)" d="M502.5 527.55L539.4 527.55L539.4 527.55L539.4 550.2L539.4 550.2L502.5 550.2z" /></clipPath><clipPath id="168"><path id="" clip-rule="evenodd" transform="matrix(1 0 0 1 0 0)" d="M0 -0.9000244L595.3 -0.9000244L595.3 -0.9000244L595.3 841L595.3 841L0 841z" /></clipPath><clipPath id="169"><path id="" clip-rule="evenodd" transform="matrix(1 0 0 1 0 0)" d="M84.3 550.2L246.35 550.2L246.35 550.2L246.35 572.85L246.35 572.85L84.3 572.85z" /></clipPath><clipPath id="170"><path id="" clip-rule="evenodd" transform="matrix(1 0 0 1 0 0)" d="M0 -0.9000244L595.3 -0.9000244L595.3 -0.9000244L595.3 841L595.3 841L0 841z" /></clipPath><clipPath id="171"><path id="" clip-rule="evenodd" transform="matrix(1 0 0 1 0 0)" d="M246.3 550.2L282.95 550.2L282.95 550.2L282.95 572.85L282.95 572.85L246.3 572.85z" /></clipPath><clipPath id="172"><path id="" clip-rule="evenodd" transform="matrix(1 0 0 1 0 0)" d="M0 -0.9000244L595.3 -0.9000244L595.3 -0.9000244L595.3 841L595.3 841L0 841z" /></clipPath><clipPath id="173"><path id="" clip-rule="evenodd" transform="matrix(1 0 0 1 0 0)" d="M282.9 550.2L319.55 550.2L319.55 550.2L319.55 572.85L319.55 572.85L282.9 572.85z" /></clipPath><clipPath id="174"><path id="" clip-rule="evenodd" transform="matrix(1 0 0 1 0 0)" d="M0 -0.9000244L595.3 -0.9000244L595.3 -0.9000244L595.3 841L595.3 841L0 841z" /></clipPath><clipPath id="175"><path id="" clip-rule="evenodd" transform="matrix(1 0 0 1 0 0)" d="M319.5 550.2L356.15 550.2L356.15 550.2L356.15 572.85L356.15 572.85L319.5 572.85z" /></clipPath><clipPath id="176"><path id="" clip-rule="evenodd" transform="matrix(1 0 0 1 0 0)" d="M0 -0.9000244L595.3 -0.9000244L595.3 -0.9000244L595.3 841L595.3 841L0 841z" /></clipPath><clipPath id="177"><path id="" clip-rule="evenodd" transform="matrix(1 0 0 1 0 0)" d="M356.1 550.2L392.75 550.2L392.75 550.2L392.75 572.85L392.75 572.85L356.1 572.85z" /></clipPath><clipPath id="178"><path id="" clip-rule="evenodd" transform="matrix(1 0 0 1 0 0)" d="M0 -0.9000244L595.3 -0.9000244L595.3 -0.9000244L595.3 841L595.3 841L0 841z" /></clipPath><clipPath id="179"><path id="" clip-rule="evenodd" transform="matrix(1 0 0 1 0 0)" d="M392.7 550.2L429.35 550.2L429.35 550.2L429.35 572.85L429.35 572.85L392.7 572.85z" /></clipPath><clipPath id="180"><path id="" clip-rule="evenodd" transform="matrix(1 0 0 1 0 0)" d="M0 -0.9000244L595.3 -0.9000244L595.3 -0.9000244L595.3 841L595.3 841L0 841z" /></clipPath><clipPath id="181"><path id="" clip-rule="evenodd" transform="matrix(1 0 0 1 0 0)" d="M429.3 550.2L465.95 550.2L465.95 550.2L465.95 572.85L465.95 572.85L429.3 572.85z" /></clipPath><clipPath id="182"><path id="" clip-rule="evenodd" transform="matrix(1 0 0 1 0 0)" d="M0 -0.9000244L595.3 -0.9000244L595.3 -0.9000244L595.3 841L595.3 841L0 841z" /></clipPath><clipPath id="183"><path id="" clip-rule="evenodd" transform="matrix(1 0 0 1 0 0)" d="M465.9 550.2L502.55 550.2L502.55 550.2L502.55 572.85L502.55 572.85L465.9 572.85z" /></clipPath><clipPath id="184"><path id="" clip-rule="evenodd" transform="matrix(1 0 0 1 0 0)" d="M0 -0.9000244L595.3 -0.9000244L595.3 -0.9000244L595.3 841L595.3 841L0 841z" /></clipPath><clipPath id="185"><path id="" clip-rule="evenodd" transform="matrix(1 0 0 1 0 0)" d="M502.5 550.2L539.4 550.2L539.4 550.2L539.4 572.85L539.4 572.85L502.5 572.85z" /></clipPath><clipPath id="186"><path id="" clip-rule="evenodd" transform="matrix(1 0 0 1 0 0)" d="M0 -0.9000244L595.3 -0.9000244L595.3 -0.9000244L595.3 841L595.3 841L0 841z" /></clipPath><clipPath id="187"><path id="" clip-rule="evenodd" transform="matrix(1 0 0 1 0 0)" d="M84.3 572.85L246.35 572.85L246.35 572.85L246.35 595.5L246.35 595.5L84.3 595.5z" /></clipPath><clipPath id="188"><path id="" clip-rule="evenodd" transform="matrix(1 0 0 1 0 0)" d="M0 -0.9000244L595.3 -0.9000244L595.3 -0.9000244L595.3 841L595.3 841L0 841z" /></clipPath><clipPath id="189"><path id="" clip-rule="evenodd" transform="matrix(1 0 0 1 0 0)" d="M246.3 572.85L282.95 572.85L282.95 572.85L282.95 595.5L282.95 595.5L246.3 595.5z" /></clipPath><clipPath id="190"><path id="" clip-rule="evenodd" transform="matrix(1 0 0 1 0 0)" d="M0 -0.9000244L595.3 -0.9000244L595.3 -0.9000244L595.3 841L595.3 841L0 841z" /></clipPath><clipPath id="191"><path id="" clip-rule="evenodd" transform="matrix(1 0 0 1 0 0)" d="M282.9 572.85L319.55 572.85L319.55 572.85L319.55 595.5L319.55 595.5L282.9 595.5z" /></clipPath><clipPath id="192"><path id="" clip-rule="evenodd" transform="matrix(1 0 0 1 0 0)" d="M0 -0.9000244L595.3 -0.9000244L595.3 -0.9000244L595.3 841L595.3 841L0 841z" /></clipPath><clipPath id="193"><path id="" clip-rule="evenodd" transform="matrix(1 0 0 1 0 0)" d="M319.5 572.85L356.15 572.85L356.15 572.85L356.15 595.5L356.15 595.5L319.5 595.5z" /></clipPath><clipPath id="194"><path id="" clip-rule="evenodd" transform="matrix(1 0 0 1 0 0)" d="M0 -0.9000244L595.3 -0.9000244L595.3 -0.9000244L595.3 841L595.3 841L0 841z" /></clipPath><clipPath id="195"><path id="" clip-rule="evenodd" transform="matrix(1 0 0 1 0 0)" d="M356.1 572.85L392.75 572.85L392.75 572.85L392.75 595.5L392.75 595.5L356.1 595.5z" /></clipPath><clipPath id="196"><path id="" clip-rule="evenodd" transform="matrix(1 0 0 1 0 0)" d="M0 -0.9000244L595.3 -0.9000244L595.3 -0.9000244L595.3 841L595.3 841L0 841z" /></clipPath><clipPath id="197"><path id="" clip-rule="evenodd" transform="matrix(1 0 0 1 0 0)" d="M392.7 572.85L429.35 572.85L429.35 572.85L429.35 595.5L429.35 595.5L392.7 595.5z" /></clipPath><clipPath id="198"><path id="" clip-rule="evenodd" transform="matrix(1 0 0 1 0 0)" d="M0 -0.9000244L595.3 -0.9000244L595.3 -0.9000244L595.3 841L595.3 841L0 841z" /></clipPath><clipPath id="199"><path id="" clip-rule="evenodd" transform="matrix(1 0 0 1 0 0)" d="M429.3 572.85L465.95 572.85L465.95 572.85L465.95 595.5L465.95 595.5L429.3 595.5z" /></clipPath><clipPath id="200"><path id="" clip-rule="evenodd" transform="matrix(1 0 0 1 0 0)" d="M0 -0.9000244L595.3 -0.9000244L595.3 -0.9000244L595.3 841L595.3 841L0 841z" /></clipPath><clipPath id="201"><path id="" clip-rule="evenodd" transform="matrix(1 0 0 1 0 0)" d="M465.9 572.85L502.55 572.85L502.55 572.85L502.55 595.5L502.55 595.5L465.9 595.5z" /></clipPath><clipPath id="202"><path id="" clip-rule="evenodd" transform="matrix(1 0 0 1 0 0)" d="M0 -0.9000244L595.3 -0.9000244L595.3 -0.9000244L595.3 841L595.3 841L0 841z" /></clipPath><clipPath id="203"><path id="" clip-rule="evenodd" transform="matrix(1 0 0 1 0 0)" d="M502.5 572.85L539.4 572.85L539.4 572.85L539.4 595.5L539.4 595.5L502.5 595.5z" /></clipPath><clipPath id="204"><path id="" clip-rule="evenodd" transform="matrix(1 0 0 1 0 0)" d="M0 -0.9000244L595.3 -0.9000244L595.3 -0.9000244L595.3 841L595.3 841L0 841z" /></clipPath><clipPath id="205"><path id="" clip-rule="evenodd" transform="matrix(1 0 0 1 0 0)" d="M84.3 595.5L246.35 595.5L246.35 595.5L246.35 618.15L246.35 618.15L84.3 618.15z" /></clipPath><clipPath id="206"><path id="" clip-rule="evenodd" transform="matrix(1 0 0 1 0 0)" d="M0 -0.9000244L595.3 -0.9000244L595.3 -0.9000244L595.3 841L595.3 841L0 841z" /></clipPath><clipPath id="207"><path id="" clip-rule="evenodd" transform="matrix(1 0 0 1 0 0)" d="M246.3 595.5L282.95 595.5L282.95 595.5L282.95 618.15L282.95 618.15L246.3 618.15z" /></clipPath><clipPath id="208"><path id="" clip-rule="evenodd" transform="matrix(1 0 0 1 0 0)" d="M0 -0.9000244L595.3 -0.9000244L595.3 -0.9000244L595.3 841L595.3 841L0 841z" /></clipPath><clipPath id="209"><path id="" clip-rule="evenodd" transform="matrix(1 0 0 1 0 0)" d="M282.9 595.5L319.55 595.5L319.55 595.5L319.55 618.15L319.55 618.15L282.9 618.15z" /></clipPath><clipPath id="210"><path id="" clip-rule="evenodd" transform="matrix(1 0 0 1 0 0)" d="M0 -0.9000244L595.3 -0.9000244L595.3 -0.9000244L595.3 841L595.3 841L0 841z" /></clipPath><clipPath id="211"><path id="" clip-rule="evenodd" transform="matrix(1 0 0 1 0 0)" d="M319.5 595.5L356.15 595.5L356.15 595.5L356.15 618.15L356.15 618.15L319.5 618.15z" /></clipPath><clipPath id="212"><path id="" clip-rule="evenodd" transform="matrix(1 0 0 1 0 0)" d="M0 -0.9000244L595.3 -0.9000244L595.3 -0.9000244L595.3 841L595.3 841L0 841z" /></clipPath><clipPath id="213"><path id="" clip-rule="evenodd" transform="matrix(1 0 0 1 0 0)" d="M356.1 595.5L392.75 595.5L392.75 595.5L392.75 618.15L392.75 618.15L356.1 618.15z" /></clipPath><clipPath id="214"><path id="" clip-rule="evenodd" transform="matrix(1 0 0 1 0 0)" d="M0 -0.9000244L595.3 -0.9000244L595.3 -0.9000244L595.3 841L595.3 841L0 841z" /></clipPath><clipPath id="215"><path id="" clip-rule="evenodd" transform="matrix(1 0 0 1 0 0)" d="M392.7 595.5L429.35 595.5L429.35 595.5L429.35 618.15L429.35 618.15L392.7 618.15z" /></clipPath><clipPath id="216"><path id="" clip-rule="evenodd" transform="matrix(1 0 0 1 0 0)" d="M0 -0.9000244L595.3 -0.9000244L595.3 -0.9000244L595.3 841L595.3 841L0 841z" /></clipPath><clipPath id="217"><path id="" clip-rule="evenodd" transform="matrix(1 0 0 1 0 0)" d="M429.3 595.5L465.95 595.5L465.95 595.5L465.95 618.15L465.95 618.15L429.3 618.15z" /></clipPath><clipPath id="218"><path id="" clip-rule="evenodd" transform="matrix(1 0 0 1 0 0)" d="M0 -0.9000244L595.3 -0.9000244L595.3 -0.9000244L595.3 841L595.3 841L0 841z" /></clipPath><clipPath id="219"><path id="" clip-rule="evenodd" transform="matrix(1 0 0 1 0 0)" d="M465.9 595.5L502.55 595.5L502.55 595.5L502.55 618.15L502.55 618.15L465.9 618.15z" /></clipPath><clipPath id="220"><path id="" clip-rule="evenodd" transform="matrix(1 0 0 1 0 0)" d="M0 -0.9000244L595.3 -0.9000244L595.3 -0.9000244L595.3 841L595.3 841L0 841z" /></clipPath><clipPath id="221"><path id="" clip-rule="evenodd" transform="matrix(1 0 0 1 0 0)" d="M502.5 595.5L539.4 595.5L539.4 595.5L539.4 618.15L539.4 618.15L502.5 618.15z" /></clipPath><clipPath id="222"><path id="" clip-rule="evenodd" transform="matrix(1 0 0 1 0 0)" d="M0 -0.9000244L595.3 -0.9000244L595.3 -0.9000244L595.3 841L595.3 841L0 841z" /></clipPath><clipPath id="223"><path id="" clip-rule="evenodd" transform="matrix(1 0 0 1 0 0)" d="M84.3 618.15L246.35 618.15L246.35 618.15L246.35 640.8L246.35 640.8L84.3 640.8z" /></clipPath><clipPath id="224"><path id="" clip-rule="evenodd" transform="matrix(1 0 0 1 0 0)" d="M0 -0.9000244L595.3 -0.9000244L595.3 -0.9000244L595.3 841L595.3 841L0 841z" /></clipPath><clipPath id="225"><path id="" clip-rule="evenodd" transform="matrix(1 0 0 1 0 0)" d="M246.3 618.15L282.95 618.15L282.95 618.15L282.95 640.8L282.95 640.8L246.3 640.8z" /></clipPath><clipPath id="226"><path id="" clip-rule="evenodd" transform="matrix(1 0 0 1 0 0)" d="M0 -0.9000244L595.3 -0.9000244L595.3 -0.9000244L595.3 841L595.3 841L0 841z" /></clipPath><clipPath id="227"><path id="" clip-rule="evenodd" transform="matrix(1 0 0 1 0 0)" d="M282.9 618.15L319.55 618.15L319.55 618.15L319.55 640.8L319.55 640.8L282.9 640.8z" /></clipPath><clipPath id="228"><path id="" clip-rule="evenodd" transform="matrix(1 0 0 1 0 0)" d="M0 -0.9000244L595.3 -0.9000244L595.3 -0.9000244L595.3 841L595.3 841L0 841z" /></clipPath><clipPath id="229"><path id="" clip-rule="evenodd" transform="matrix(1 0 0 1 0 0)" d="M319.5 618.15L356.15 618.15L356.15 618.15L356.15 640.8L356.15 640.8L319.5 640.8z" /></clipPath><clipPath id="230"><path id="" clip-rule="evenodd" transform="matrix(1 0 0 1 0 0)" d="M0 -0.9000244L595.3 -0.9000244L595.3 -0.9000244L595.3 841L595.3 841L0 841z" /></clipPath><clipPath id="231"><path id="" clip-rule="evenodd" transform="matrix(1 0 0 1 0 0)" d="M356.1 618.15L392.75 618.15L392.75 618.15L392.75 640.8L392.75 640.8L356.1 640.8z" /></clipPath><clipPath id="232"><path id="" clip-rule="evenodd" transform="matrix(1 0 0 1 0 0)" d="M0 -0.9000244L595.3 -0.9000244L595.3 -0.9000244L595.3 841L595.3 841L0 841z" /></clipPath><clipPath id="233"><path id="" clip-rule="evenodd" transform="matrix(1 0 0 1 0 0)" d="M392.7 618.15L429.35 618.15L429.35 618.15L429.35 640.8L429.35 640.8L392.7 640.8z" /></clipPath><clipPath id="234"><path id="" clip-rule="evenodd" transform="matrix(1 0 0 1 0 0)" d="M0 -0.9000244L595.3 -0.9000244L595.3 -0.9000244L595.3 841L595.3 841L0 841z" /></clipPath><clipPath id="235"><path id="" clip-rule="evenodd" transform="matrix(1 0 0 1 0 0)" d="M429.3 618.15L465.95 618.15L465.95 618.15L465.95 640.8L465.95 640.8L429.3 640.8z" /></clipPath><clipPath id="236"><path id="" clip-rule="evenodd" transform="matrix(1 0 0 1 0 0)" d="M0 -0.9000244L595.3 -0.9000244L595.3 -0.9000244L595.3 841L595.3 841L0 841z" /></clipPath><clipPath id="237"><path id="" clip-rule="evenodd" transform="matrix(1 0 0 1 0 0)" d="M465.9 618.15L502.55 618.15L502.55 618.15L502.55 640.8L502.55 640.8L465.9 640.8z" /></clipPath><clipPath id="238"><path id="" clip-rule="evenodd" transform="matrix(1 0 0 1 0 0)" d="M0 -0.9000244L595.3 -0.9000244L595.3 -0.9000244L595.3 841L595.3 841L0 841z" /></clipPath><clipPath id="239"><path id="" clip-rule="evenodd" transform="matrix(1 0 0 1 0 0)" d="M502.5 618.15L539.4 618.15L539.4 618.15L539.4 640.8L539.4 640.8L502.5 640.8z" /></clipPath><clipPath id="240"><path id="" clip-rule="evenodd" transform="matrix(1 0 0 1 0 0)" d="M0 -0.9000244L595.3 -0.9000244L595.3 -0.9000244L595.3 841L595.3 841L0 841z" /></clipPath><clipPath id="241"><path id="" clip-rule="evenodd" transform="matrix(1 0 0 1 0 0)" d="M84.3 640.8L246.35 640.8L246.35 640.8L246.35 663.45L246.35 663.45L84.3 663.45z" /></clipPath><clipPath id="242"><path id="" clip-rule="evenodd" transform="matrix(1 0 0 1 0 0)" d="M0 -0.9000244L595.3 -0.9000244L595.3 -0.9000244L595.3 841L595.3 841L0 841z" /></clipPath><clipPath id="243"><path id="" clip-rule="evenodd" transform="matrix(1 0 0 1 0 0)" d="M246.3 640.8L282.95 640.8L282.95 640.8L282.95 663.45L282.95 663.45L246.3 663.45z" /></clipPath><clipPath id="244"><path id="" clip-rule="evenodd" transform="matrix(1 0 0 1 0 0)" d="M0 -0.9000244L595.3 -0.9000244L595.3 -0.9000244L595.3 841L595.3 841L0 841z" /></clipPath><clipPath id="245"><path id="" clip-rule="evenodd" transform="matrix(1 0 0 1 0 0)" d="M282.9 640.8L319.55 640.8L319.55 640.8L319.55 663.45L319.55 663.45L282.9 663.45z" /></clipPath><clipPath id="246"><path id="" clip-rule="evenodd" transform="matrix(1 0 0 1 0 0)" d="M0 -0.9000244L595.3 -0.9000244L595.3 -0.9000244L595.3 841L595.3 841L0 841z" /></clipPath><clipPath id="247"><path id="" clip-rule="evenodd" transform="matrix(1 0 0 1 0 0)" d="M319.5 640.8L356.15 640.8L356.15 640.8L356.15 663.45L356.15 663.45L319.5 663.45z" /></clipPath><clipPath id="248"><path id="" clip-rule="evenodd" transform="matrix(1 0 0 1 0 0)" d="M0 -0.9000244L595.3 -0.9000244L595.3 -0.9000244L595.3 841L595.3 841L0 841z" /></clipPath><clipPath id="249"><path id="" clip-rule="evenodd" transform="matrix(1 0 0 1 0 0)" d="M356.1 640.8L392.75 640.8L392.75 640.8L392.75 663.45L392.75 663.45L356.1 663.45z" /></clipPath><clipPath id="250"><path id="" clip-rule="evenodd" transform="matrix(1 0 0 1 0 0)" d="M0 -0.9000244L595.3 -0.9000244L595.3 -0.9000244L595.3 841L595.3 841L0 841z" /></clipPath><clipPath id="251"><path id="" clip-rule="evenodd" transform="matrix(1 0 0 1 0 0)" d="M392.7 640.8L429.35 640.8L429.35 640.8L429.35 663.45L429.35 663.45L392.7 663.45z" /></clipPath><clipPath id="252"><path id="" clip-rule="evenodd" transform="matrix(1 0 0 1 0 0)" d="M0 -0.9000244L595.3 -0.9000244L595.3 -0.9000244L595.3 841L595.3 841L0 841z" /></clipPath><clipPath id="253"><path id="" clip-rule="evenodd" transform="matrix(1 0 0 1 0 0)" d="M429.3 640.8L465.95 640.8L465.95 640.8L465.95 663.45L465.95 663.45L429.3 663.45z" /></clipPath><clipPath id="254"><path id="" clip-rule="evenodd" transform="matrix(1 0 0 1 0 0)" d="M0 -0.9000244L595.3 -0.9000244L595.3 -0.9000244L595.3 841L595.3 841L0 841z" /></clipPath><clipPath id="255"><path id="" clip-rule="evenodd" transform="matrix(1 0 0 1 0 0)" d="M465.9 640.8L502.55 640.8L502.55 640.8L502.55 663.45L502.55 663.45L465.9 663.45z" /></clipPath><clipPath id="256"><path id="" clip-rule="evenodd" transform="matrix(1 0 0 1 0 0)" d="M0 -0.9000244L595.3 -0.9000244L595.3 -0.9000244L595.3 841L595.3 841L0 841z" /></clipPath><clipPath id="257"><path id="" clip-rule="evenodd" transform="matrix(1 0 0 1 0 0)" d="M502.5 640.8L539.4 640.8L539.4 640.8L539.4 663.45L539.4 663.45L502.5 663.45z" /></clipPath><clipPath id="258"><path id="" clip-rule="evenodd" transform="matrix(1 0 0 1 0 0)" d="M0 -0.9000244L595.3 -0.9000244L595.3 -0.9000244L595.3 841L595.3 841L0 841z" /></clipPath><clipPath id="259"><path id="" clip-rule="evenodd" transform="matrix(1 0 0 1 0 0)" d="M84.3 663.45L246.35 663.45L246.35 663.45L246.35 687.65L246.35 687.65L84.3 687.65z" /></clipPath><clipPath id="260"><path id="" clip-rule="evenodd" transform="matrix(1 0 0 1 0 0)" d="M0 -0.9000244L595.3 -0.9000244L595.3 -0.9000244L595.3 841L595.3 841L0 841z" /></clipPath><clipPath id="261"><path id="" clip-rule="evenodd" transform="matrix(1 0 0 1 0 0)" d="M246.3 663.45L282.95 663.45L282.95 663.45L282.95 687.65L282.95 687.65L246.3 687.65z" /></clipPath><clipPath id="262"><path id="" clip-rule="evenodd" transform="matrix(1 0 0 1 0 0)" d="M0 -0.9000244L595.3 -0.9000244L595.3 -0.9000244L595.3 841L595.3 841L0 841z" /></clipPath><clipPath id="263"><path id="" clip-rule="evenodd" transform="matrix(1 0 0 1 0 0)" d="M282.9 663.45L319.55 663.45L319.55 663.45L319.55 687.65L319.55 687.65L282.9 687.65z" /></clipPath><clipPath id="264"><path id="" clip-rule="evenodd" transform="matrix(1 0 0 1 0 0)" d="M0 -0.9000244L595.3 -0.9000244L595.3 -0.9000244L595.3 841L595.3 841L0 841z" /></clipPath><clipPath id="265"><path id="" clip-rule="evenodd" transform="matrix(1 0 0 1 0 0)" d="M319.5 663.45L356.15 663.45L356.15 663.45L356.15 687.65L356.15 687.65L319.5 687.65z" /></clipPath><clipPath id="266"><path id="" clip-rule="evenodd" transform="matrix(1 0 0 1 0 0)" d="M0 -0.9000244L595.3 -0.9000244L595.3 -0.9000244L595.3 841L595.3 841L0 841z" /></clipPath><clipPath id="267"><path id="" clip-rule="evenodd" transform="matrix(1 0 0 1 0 0)" d="M356.1 663.45L392.75 663.45L392.75 663.45L392.75 687.65L392.75 687.65L356.1 687.65z" /></clipPath><clipPath id="268"><path id="" clip-rule="evenodd" transform="matrix(1 0 0 1 0 0)" d="M0 -0.9000244L595.3 -0.9000244L595.3 -0.9000244L595.3 841L595.3 841L0 841z" /></clipPath><clipPath id="269"><path id="" clip-rule="evenodd" transform="matrix(1 0 0 1 0 0)" d="M392.7 663.45L429.35 663.45L429.35 663.45L429.35 687.65L429.35 687.65L392.7 687.65z" /></clipPath><clipPath id="270"><path id="" clip-rule="evenodd" transform="matrix(1 0 0 1 0 0)" d="M0 -0.9000244L595.3 -0.9000244L595.3 -0.9000244L595.3 841L595.3 841L0 841z" /></clipPath><clipPath id="271"><path id="" clip-rule="evenodd" transform="matrix(1 0 0 1 0 0)" d="M429.3 663.45L465.95 663.45L465.95 663.45L465.95 687.65L465.95 687.65L429.3 687.65z" /></clipPath><clipPath id="272"><path id="" clip-rule="evenodd" transform="matrix(1 0 0 1 0 0)" d="M0 -0.9000244L595.3 -0.9000244L595.3 -0.9000244L595.3 841L595.3 841L0 841z" /></clipPath><clipPath id="273"><path id="" clip-rule="evenodd" transform="matrix(1 0 0 1 0 0)" d="M465.9 663.45L502.55 663.45L502.55 663.45L502.55 687.65L502.55 687.65L465.9 687.65z" /></clipPath><clipPath id="274"><path id="" clip-rule="evenodd" transform="matrix(1 0 0 1 0 0)" d="M0 -0.9000244L595.3 -0.9000244L595.3 -0.9000244L595.3 841L595.3 841L0 841z" /></clipPath><clipPath id="275"><path id="" clip-rule="evenodd" transform="matrix(1 0 0 1 0 0)" d="M502.5 663.45L539.4 663.45L539.4 663.45L539.4 687.65L539.4 687.65L502.5 687.65z" /></clipPath><clipPath id="276"><path id="" clip-rule="evenodd" transform="matrix(1 0 0 1 0 0)" d="M0 -0.9000244L595.3 -0.9000244L595.3 -0.9000244L595.3 841L595.3 841L0 841z" /></clipPath></defs><g transform="matrix(1.333333 0 0 1.333333 0 0)"><g clip-path="url(#1)"><g clip-path="url(#2)"><path id="15" transform="matrix(1 0 0 -1 0 841)" d="M85.05 774.1L538.6 774.1L538.6 774.1L538.6 773.62L538.6 773.62L85.05 773.62z" stroke="none" fill="#000000" fill-rule="evenodd" /></g><g clip-path="url(#3)"><g clip-path="url(#4)"></g></g><g clip-path="url(#5)"></g><g clip-path="url(#6)"><g clip-path="url(#7)"></g></g><g clip-path="url(#8)"><g clip-path="url(#9)"></g></g><g clip-path="url(#10)"><g clip-path="url(#11)"></g></g><g clip-path="url(#12)"><g clip-path="url(#13)"></g></g><g clip-path="url(#14)"><g clip-path="url(#15)"></g></g><g clip-path="url(#16)"><g clip-path="url(#17)"></g></g><g clip-path="url(#18)"><g clip-path="url(#19)"></g></g><g clip-path="url(#20)"><g clip-path="url(#21)"></g></g><g clip-path="url(#22)"><g clip-path="url(#23)"></g></g><g clip-path="url(#24)"><g clip-path="url(#25)"></g></g><g clip-path="url(#26)"><g clip-path="url(#27)"></g></g><g clip-path="url(#28)"><g clip-path="url(#29)"></g></g><g clip-path="url(#30)"><g clip-path="url(#31)"></g></g><g clip-path="url(#32)"><g clip-path="url(#33)"></g></g><g clip-path="url(#34)"><g clip-path="url(#35)"></g></g><g clip-path="url(#36)"><g clip-path="url(#37)"></g></g><g clip-path="url(#38)"><g clip-path="url(#39)"></g></g><g clip-path="url(#40)"><g clip-path="url(#41)"></g></g><g clip-path="url(#42)"><g clip-path="url(#43)"></g></g><g clip-path="url(#44)"><g clip-path="url(#45)"></g></g><g clip-path="url(#46)"><g clip-path="url(#47)"></g></g><g clip-path="url(#48)"><g clip-path="url(#49)"></g></g><g clip-path="url(#50)"><g clip-path="url(#51)"></g></g><g clip-path="url(#52)"><g clip-path="url(#53)"></g></g><g clip-path="url(#54)"><g clip-path="url(#55)"></g></g><g clip-path="url(#56)"><g clip-path="url(#57)"></g></g><g clip-path="url(#58)"><g clip-path="url(#59)"></g></g><g clip-path="url(#60)"><g clip-path="url(#61)"></g></g><g clip-path="url(#62)"><g clip-path="url(#63)"></g></g><g clip-path="url(#64)"><g clip-path="url(#65)"></g></g><g clip-path="url(#66)"><g clip-path="url(#67)"></g></g><g clip-path="url(#68)"><g clip-path="url(#69)"></g></g><g clip-path="url(#70)"><g clip-path="url(#71)"></g></g><g clip-path="url(#72)"><g clip-path="url(#73)"></g></g><g clip-path="url(#74)"><g clip-path="url(#75)"></g></g><g clip-path="url(#76)"><g clip-path="url(#77)"></g></g><g clip-path="url(#78)"><g clip-path="url(#79)"></g></g><g clip-path="url(#80)"><g clip-path="url(#81)"></g></g><g clip-path="url(#82)"><g clip-path="url(#83)"></g></g><g clip-path="url(#84)"><g clip-path="url(#85)"></g></g><g clip-path="url(#86)"><g clip-path="url(#87)"></g></g><g clip-path="url(#88)"><g clip-path="url(#89)"></g></g><g clip-path="url(#90)"><g clip-path="url(#91)"></g></g><g clip-path="url(#92)"><g clip-path="url(#93)"></g></g><g clip-path="url(#94)"><g clip-path="url(#95)"></g></g><g clip-path="url(#96)"><g clip-path="url(#97)"></g></g><g clip-path="url(#98)"><g clip-path="url(#99)"></g></g><g clip-path="url(#100)"><g clip-path="url(#101)"></g></g><g clip-path="url(#102)"><g clip-path="url(#103)"></g></g><g clip-path="url(#104)"><g clip-path="url(#105)"></g></g><g clip-path="url(#106)"><g clip-path="url(#107)"></g></g><g clip-path="url(#108)"><g clip-path="url(#109)"></g></g><g clip-path="url(#110)"><g clip-path="url(#111)"></g></g><g clip-path="url(#112)"><g clip-path="url(#113)"></g></g><g clip-path="url(#114)"><g clip-path="url(#115)"></g></g><g clip-path="url(#116)"><g clip-path="url(#117)"></g></g><g clip-path="url(#118)"><g clip-path="url(#119)"></g></g><g clip-path="url(#120)"><g clip-path="url(#121)"></g></g><g clip-path="url(#122)"><g clip-path="url(#123)"></g></g><g clip-path="url(#124)"><g clip-path="url(#125)"></g></g><g clip-path="url(#126)"><g clip-path="url(#127)"></g></g><g clip-path="url(#128)"><g clip-path="url(#129)"></g></g><g clip-path="url(#130)"><g clip-path="url(#131)"></g></g><g clip-path="url(#132)"><g clip-path="url(#133)"></g></g><g clip-path="url(#134)"><g clip-path="url(#135)"></g></g><g clip-path="url(#136)"><g clip-path="url(#137)"></g></g><g clip-path="url(#138)"><g clip-path="url(#139)"></g></g><g clip-path="url(#140)"><g clip-path="url(#141)"></g></g><g clip-path="url(#142)"><g clip-path="url(#143)"></g></g><g clip-path="url(#144)"><g clip-path="url(#145)"></g></g><g clip-path="url(#146)"><g clip-path="url(#147)"></g></g><g clip-path="url(#148)"><g clip-path="url(#149)"></g></g><g clip-path="url(#150)"><g clip-path="url(#151)"></g></g><g clip-path="url(#152)"><g clip-path="url(#153)"></g></g><g clip-path="url(#154)"><g clip-path="url(#155)"></g></g><g clip-path="url(#156)"><g clip-path="url(#157)"></g></g><g clip-path="url(#158)"><g clip-path="url(#159)"></g></g><g clip-path="url(#160)"><g clip-path="url(#161)"></g></g><g clip-path="url(#162)"><g clip-path="url(#163)"></g></g><g clip-path="url(#164)"><g clip-path="url(#165)"></g></g><g clip-path="url(#166)"><g clip-path="url(#167)"></g></g><g clip-path="url(#168)"><g clip-path="url(#169)"></g></g><g clip-path="url(#170)"><g clip-path="url(#171)"></g></g><g clip-path="url(#172)"><g clip-path="url(#173)"></g></g><g clip-path="url(#174)"><g clip-path="url(#175)"></g></g><g clip-path="url(#176)"><g clip-path="url(#177)"></g></g><g clip-path="url(#178)"><g clip-path="url(#179)"></g></g><g clip-path="url(#180)"><g clip-path="url(#181)"></g></g><g clip-path="url(#182)"><g clip-path="url(#183)"></g></g><g clip-path="url(#184)"><g clip-path="url(#185)"></g></g><g clip-path="url(#186)"><g clip-path="url(#187)"></g></g><g clip-path="url(#188)"><g clip-path="url(#189)"></g></g><g clip-path="url(#190)"><g clip-path="url(#191)"></g></g><g clip-path="url(#192)"><g clip-path="url(#193)"></g></g><g clip-path="url(#194)"><g clip-path="url(#195)"></g></g><g clip-path="url(#196)"><g clip-path="url(#197)"></g></g><g clip-path="url(#198)"><g clip-path="url(#199)"></g></g><g clip-path="url(#200)"><g clip-path="url(#201)"></g></g><g clip-path="url(#202)"><g clip-path="url(#203)"></g></g><g clip-path="url(#204)"><g clip-path="url(#205)"></g></g><g clip-path="url(#206)"><g clip-path="url(#207)"></g></g><g clip-path="url(#208)"><g clip-path="url(#209)"></g></g><g clip-path="url(#210)"><g clip-path="url(#211)"></g></g><g clip-path="url(#212)"><g clip-path="url(#213)"></g></g><g clip-path="url(#214)"><g clip-path="url(#215)"></g></g><g clip-path="url(#216)"><g clip-path="url(#217)"></g></g><g clip-path="url(#218)"><g clip-path="url(#219)"></g></g><g clip-path="url(#220)"><g clip-path="url(#221)"></g></g><g clip-path="url(#222)"><g clip-path="url(#223)"></g></g><g clip-path="url(#224)"><g clip-path="url(#225)"></g></g><g clip-path="url(#226)"><g clip-path="url(#227)"></g></g><g clip-path="url(#228)"><g clip-path="url(#229)"></g></g><g clip-path="url(#230)"><g clip-path="url(#231)"></g></g><g clip-path="url(#232)"><g clip-path="url(#233)"></g></g><g clip-path="url(#234)"><g clip-path="url(#235)"></g></g><g clip-path="url(#236)"><g clip-path="url(#237)"></g></g><g clip-path="url(#238)"><g clip-path="url(#239)"></g></g><g clip-path="url(#240)"><g clip-path="url(#241)"></g></g><g clip-path="url(#242)"><g clip-path="url(#243)"></g></g><g clip-path="url(#244)"><g clip-path="url(#245)"></g></g><g clip-path="url(#246)"><g clip-path="url(#247)"></g></g><g clip-path="url(#248)"><g clip-path="url(#249)"></g></g><g clip-path="url(#250)"><g clip-path="url(#251)"></g></g><g clip-path="url(#252)"><g clip-path="url(#253)"></g></g><g clip-path="url(#254)"><g clip-path="url(#255)"></g></g><g clip-path="url(#256)"><g clip-path="url(#257)"></g></g><g clip-path="url(#258)"><g clip-path="url(#259)"></g></g><g clip-path="url(#260)"><g clip-path="url(#261)"></g></g><g clip-path="url(#262)"><g clip-path="url(#263)"></g></g><g clip-path="url(#264)"><g clip-path="url(#265)"></g></g><g clip-path="url(#266)"><g clip-path="url(#267)"></g></g><g clip-path="url(#268)"><g clip-path="url(#269)"></g></g><g clip-path="url(#270)"><g clip-path="url(#271)"></g></g><g clip-path="url(#272)"><g clip-path="url(#273)"></g></g><g clip-path="url(#274)"><g clip-path="url(#275)"></g></g><g clip-path="url(#276)"><path id="1181" transform="matrix(1 0 0 -1 0 841)" d="M84.3 496.43L539.35 496.43" stroke="#000000" stroke-width="1.44" fill="none" /><path id="1182" transform="matrix(1 0 0 -1 0 841)" d="M84.3 154.1801L539.35 154.1801" stroke="#000000" stroke-width="1.44" fill="none" /><path id="1183" transform="matrix(1 0 0 -1 0 841)" d="M84.3 472.52L539.35 472.52" stroke="#000000" stroke-width="0.96" fill="none" /></g></g></g></svg>