<svg xmlns="http://www.w3.org/2000/svg" xmlns:xlink="http://www.w3.org/1999/xlink" id="body_1" preserveAspectRatio="xMinYMin meet" viewBox="0 0 793 1121"><defs><clipPath id="1"><path id="" clip-rule="evenodd" transform="matrix(1 0 0 1 0 0)" d="M0 841L0 -0.9000244L0 -0.9000244L595.3 -0.9000244L595.3 -0.9000244L595.3 841L595.3 841L0 841z" /></clipPath><clipPath id="2"><path id="" clip-rule="evenodd" transform="matrix(1 0 0 1 0 0)" d="M0 -0.9000244L595.3 -0.9000244L595.3 -0.9000244L595.3 841L595.3 841L0 841z" /></clipPath><clipPath id="3"><path id="" clip-rule="evenodd" transform="matrix(1 0 0 1 0 0)" d="M0 -0.9000244L595.3 -0.9000244L595.3 -0.9000244L595.3 841L595.3 841L0 841z" /></clipPath><clipPath id="4"><path id="" clip-rule="evenodd" transform="matrix(1 0 0 1 0 0)" d="M527.85 787.75L538.35 787.75L538.35 787.75L538.35 799.8L538.35 799.8L527.85 799.8z" /></clipPath><clipPath id="5"><path id="" clip-rule="evenodd" transform="matrix(1 0 0 1 0 0)" d="M0 -0.9000244L595.3 -0.9000244L595.3 -0.9000244L595.3 841L595.3 841L0 841z" /></clipPath><clipPath id="6"><path id="" clip-rule="evenodd" transform="matrix(1 0 0 1 0 0)" d="M0 -0.9000244L595.3 -0.9000244L595.3 -0.9000244L595.3 841L595.3 841L0 841z" /></clipPath><clipPath id="7"><path id="" clip-rule="evenodd" transform="matrix(1 0 0 1 0 0)" d="M243.25 465.3L380.5 465.3L380.5 465.3L380.5 517.85L380.5 517.85L243.25 517.85z" /></clipPath><clipPath id="8"><path id="" clip-rule="evenodd" transform="matrix(1 0 0 1 0 0)" d="M0 -0.9000244L595.3 -0.9000244L595.3 -0.9000244L595.3 841L595.3 841L0 841z" /></clipPath><clipPath id="9"><path id="" clip-rule="evenodd" transform="matrix(1 0 0 1 0 0)" d="M0 -0.9000244L595.3 -0.9000244L595.3 -0.9000244L595.3 841L595.3 841L0 841z" /></clipPath><clipPath id="10"><path id="" clip-rule="evenodd" transform="matrix(1 0 0 1 0 0)" d="M-1638.4 535.3L2176.95 535.3L2176.95 535.3L2176.95 555.3L2176.95 555.3L-1638.4 555.3z" /></clipPath><clipPath id="11"><path id="" clip-rule="evenodd" transform="matrix(1 0 0 1 0 0)" d="M144.35 540.4L190.3 540.4L190.3 540.4L190.3 554.35L190.3 554.35L144.35 554.35z" /></clipPath><clipPath id="12"><path id="" clip-rule="evenodd" transform="matrix(1 0 0 1 0 0)" d="M0 -0.9000244L595.3 -0.9000244L595.3 -0.9000244L595.3 841L595.3 841L0 841z" /></clipPath><clipPath id="13"><path id="" clip-rule="evenodd" transform="matrix(1 0 0 1 0 0)" d="M0 -0.9000244L595.3 -0.9000244L595.3 -0.9000244L595.3 841L595.3 841L0 841z" /></clipPath><clipPath id="14"><path id="" clip-rule="evenodd" transform="matrix(1 0 0 1 0 0)" d="M-1638.4 535.3L2176.95 535.3L2176.95 535.3L2176.95 555.3L2176.95 555.3L-1638.4 555.3z" /></clipPath><clipPath id="15"><path id="" clip-rule="evenodd" transform="matrix(1 0 0 1 0 0)" d="M372.35 540.3L405.35 540.3L405.35 540.3L405.35 555.3L405.35 555.3L372.35 555.3z" /></clipPath><clipPath id="16"><path id="" clip-rule="evenodd" transform="matrix(1 0 0 1 0 0)" d="M0 -0.9000244L595.3 -0.9000244L595.3 -0.9000244L595.3 841L595.3 841L0 841z" /></clipPath><clipPath id="17"><path id="" clip-rule="evenodd" transform="matrix(1 0 0 1 0 0)" d="M0 -0.9000244L595.3 -0.9000244L595.3 -0.9000244L595.3 841L595.3 841L0 841z" /></clipPath><clipPath id="18"><path id="" clip-rule="evenodd" transform="matrix(1 0 0 1 0 0)" d="M-1638.4 555.35L2176.95 555.35L2176.95 555.35L2176.95 575.35L2176.95 575.35L-1638.4 575.35z" /></clipPath><clipPath id="19"><path id="" clip-rule="evenodd" transform="matrix(1 0 0 1 0 0)" d="M331.9 558.3L391.9 558.3L391.9 558.3L391.9 578.35L391.9 578.35L331.9 578.35z" /></clipPath><clipPath id="20"><path id="" clip-rule="evenodd" transform="matrix(1 0 0 1 0 0)" d="M0 -0.9000244L595.3 -0.9000244L595.3 -0.9000244L595.3 841L595.3 841L0 841z" /></clipPath><clipPath id="21"><path id="" clip-rule="evenodd" transform="matrix(1 0 0 1 0 0)" d="M0 -0.9000244L595.3 -0.9000244L595.3 -0.9000244L595.3 841L595.3 841L0 841z" /></clipPath><clipPath id="22"><path id="" clip-rule="evenodd" transform="matrix(1 0 0 1 0 0)" d="M-1638.4 575.3L2176.95 575.3L2176.95 575.3L2176.95 595.3L2176.95 595.3L-1638.4 595.3z" /></clipPath><clipPath id="23"><path id="" clip-rule="evenodd" transform="matrix(1 0 0 1 0 0)" d="M367.1 580.4L379.1 580.4L379.1 580.4L379.1 595.4L379.1 595.4L367.1 595.4z" /></clipPath><clipPath id="24"><path id="" clip-rule="evenodd" transform="matrix(1 0 0 1 0 0)" d="M0 -0.9000244L595.3 -0.9000244L595.3 -0.9000244L595.3 841L595.3 841L0 841z" /></clipPath><clipPath id="25"><path id="" clip-rule="evenodd" transform="matrix(1 0 0 1 0 0)" d="M0 -0.9000244L595.3 -0.9000244L595.3 -0.9000244L595.3 841L595.3 841L0 841z" /></clipPath><clipPath id="26"><path id="" clip-rule="evenodd" transform="matrix(1 0 0 1 0 0)" d="M236.65 723.3L387 723.3L387 723.3L387 763L387 763L236.65 763z" /></clipPath></defs><g transform="matrix(1.333333 0 0 1.333333 0 0)"><g clip-path="url(#1)"><g clip-path="url(#2)"><path id="18" transform="matrix(1 0 0 -1 0 841)" d="M85.05 774.1L538.6 774.1L538.6 774.1L538.6 773.62L538.6 773.62L85.05 773.62z" stroke="none" fill="#000000" fill-rule="evenodd" /></g><g clip-path="url(#3)"><g clip-path="url(#4)"></g></g><g clip-path="url(#5)"></g><g clip-path="url(#6)"><g clip-path="url(#7)"><path id="504" transform="matrix(1 0 0 -1 0 841)" d="M349.606 372.478L334.688 351.625" stroke="#000000" stroke-width="0.248" stroke-linecap="round" fill="none" /><path id="505" transform="matrix(1 0 0 -1 0 841)" d="M355.791 343.569L343.39 326.249" stroke="#000000" stroke-width="0.248" stroke-linecap="round" fill="none" /><path id="506" transform="matrix(1 0 0 -1 0 841)" d="M315.511 346.946L365.706 346.946" stroke="#000000" stroke-width="0.497" stroke-linecap="round" fill="none" /></g></g><g clip-path="url(#8)"></g><g clip-path="url(#9)"><g clip-path="url(#10)"><g clip-path="url(#11)"></g></g></g><g clip-path="url(#12)"></g><g clip-path="url(#13)"><g clip-path="url(#14)"><g clip-path="url(#15)"></g></g></g><g clip-path="url(#16)"></g><g clip-path="url(#17)"><g clip-path="url(#18)"><g clip-path="url(#19)"></g></g></g><g clip-path="url(#20)"></g><g clip-path="url(#21)"><g clip-path="url(#22)"><g clip-path="url(#23)"></g></g></g><g clip-path="url(#24)"></g><g clip-path="url(#25)"><g clip-path="url(#26)"><path id="844" transform="matrix(1 0 0 -1 0 841)" d="M313.103 98.45203L328.702 98.45203" stroke="#000000" stroke-width="0.601" stroke-linecap="round" fill="none" /></g></g></g></g></svg>